<?xml version="1.0" encoding="iso-8859-1"?>
<!-- Generator: Adobe Illustrator 22.0.1, SVG Export Plug-In . SVG Version: 6.00 Build 0)  -->
<svg version="1.1" id="_x35_0" xmlns="http://www.w3.org/2000/svg" xmlns:xlink="http://www.w3.org/1999/xlink" x="0px" y="0px"
	 viewBox="0 0 512 512" style="enable-background:new 0 0 512 512;" xml:space="preserve">
<linearGradient id="SVGID_1_" gradientUnits="userSpaceOnUse" x1="17.4639" y1="46.5111" x2="456.1059" y2="464.979">
	<stop  offset="0" style="stop-color:#FEF050"/>
	<stop  offset="0.0348" style="stop-color:#FAE73D"/>
	<stop  offset="0.0935" style="stop-color:#F5DB22"/>
	<stop  offset="0.1536" style="stop-color:#F2D20F"/>
	<stop  offset="0.2152" style="stop-color:#F0CD04"/>
	<stop  offset="0.2809" style="stop-color:#EFCB00"/>
	<stop  offset="0.6685" style="stop-color:#D99544"/>
	<stop  offset="0.8876" style="stop-color:#CD6F3C"/>
	<stop  offset="1" style="stop-color:#C34435"/>
</linearGradient>
<path style="fill:url(#SVGID_1_);" d="M81.538,236.792c-1.381,0-2.5,1.119-2.5,2.5v45.496c0,10.219,7.682,18.663,17.572,19.899
	v82.143c0,13.246,10.777,24.023,24.023,24.023h150.49c1.381,0,2.5-1.119,2.5-2.5s-1.119-2.5-2.5-2.5h-150.49
	c-10.489,0-19.023-8.534-19.023-19.023v-81.97h53.201v24.665c0,9.232,7.511,16.743,16.743,16.743h18.892
	c9.232,0,16.743-7.511,16.743-16.743v-24.665h97.622v24.665c0,9.232,7.511,16.743,16.743,16.743h18.892
	c9.232,0,16.743-7.511,16.743-16.743v-24.665h53.201v81.97c0,10.489-8.534,19.023-19.023,19.023h-45.62c-1.381,0-2.5,1.119-2.5,2.5
	s1.119,2.5,2.5,2.5h45.62c13.246,0,24.023-10.777,24.023-24.023v-82.143c9.89-1.237,17.572-9.68,17.572-19.899V176.398
	c0-11.068-9.004-20.072-20.072-20.072h-42.156v-10.648c0-5.157-4.195-9.352-9.352-9.352h-17.901v-28.625
	c0-11.942-9.716-21.658-21.658-21.658H248.63c-1.381,0-2.5,1.119-2.5,2.5s1.119,2.5,2.5,2.5h73.192
	c9.186,0,16.658,7.473,16.658,16.658v28.625h-15v-20.901c0-5.173-4.208-9.382-9.382-9.382H197.882c-5.173,0-9.382,4.208-9.382,9.382
	v20.901h-15v-28.625c0-9.186,7.473-16.658,16.658-16.658h14.531c1.381,0,2.5-1.119,2.5-2.5s-1.119-2.5-2.5-2.5h-14.531
	c-11.942,0-21.658,9.716-21.658,21.658v28.625h-17.901c-5.157,0-9.352,4.195-9.352,9.352v10.648H99.11
	c-11.068,0-20.072,9.004-20.072,20.072v12.576c0,1.381,1.119,2.5,2.5,2.5s2.5-1.119,2.5-2.5v-12.576
	c0-8.311,6.761-15.072,15.072-15.072h313.78c8.311,0,15.072,6.761,15.072,15.072v108.391c0,8.311-6.761,15.072-15.072,15.072
	h-55.701v-4.665c0-9.232-7.511-16.743-16.743-16.743h-18.892c-9.232,0-16.743,7.511-16.743,16.743v4.665h-97.622v-4.665
	c0-9.232-7.511-16.743-16.743-16.743h-18.892c-9.232,0-16.743,7.511-16.743,16.743v4.665H99.11c-8.311,0-15.072-6.761-15.072-15.072
	v-45.496C84.038,237.912,82.918,236.792,81.538,236.792z M215.753,156.326h-69.506v-10.648c0-2.4,1.952-4.352,4.352-4.352h60.802
	c2.4,0,4.352,1.952,4.352,4.352V156.326z M291.229,145.678v10.648h-70.476v-10.648c0-5.157-4.195-9.352-9.352-9.352H193.5v-20.901
	c0-2.416,1.966-4.382,4.382-4.382h116.217c2.416,0,4.382,1.966,4.382,4.382v20.901H300.58
	C295.424,136.326,291.229,140.521,291.229,145.678z M365.734,156.326h-69.505v-10.648c0-2.4,1.952-4.352,4.352-4.352h60.802
	c2.399,0,4.352,1.952,4.352,4.352V156.326z M309.811,295.196c0-6.475,5.268-11.743,11.743-11.743h18.892
	c6.475,0,11.743,5.268,11.743,11.743v34.329c0,6.475-5.268,11.743-11.743,11.743h-18.892c-6.475,0-11.743-5.268-11.743-11.743
	V295.196z M159.811,295.196c0-6.475,5.268-11.743,11.743-11.743h18.892c6.475,0,11.743,5.268,11.743,11.743v34.329
	c0,6.475-5.268,11.743-11.743,11.743h-18.892c-6.475,0-11.743-5.268-11.743-11.743V295.196z"/>
<linearGradient id="SVGID_2_" gradientUnits="userSpaceOnUse" x1="34.0785" y1="29.0955" x2="472.7205" y2="447.5634">
	<stop  offset="0" style="stop-color:#FEF050"/>
	<stop  offset="0.0348" style="stop-color:#FAE73D"/>
	<stop  offset="0.0935" style="stop-color:#F5DB22"/>
	<stop  offset="0.1536" style="stop-color:#F2D20F"/>
	<stop  offset="0.2152" style="stop-color:#F0CD04"/>
	<stop  offset="0.2809" style="stop-color:#EFCB00"/>
	<stop  offset="0.6685" style="stop-color:#D99544"/>
	<stop  offset="0.8876" style="stop-color:#CD6F3C"/>
	<stop  offset="1" style="stop-color:#C34435"/>
</linearGradient>
<path style="fill:url(#SVGID_2_);" d="M327.153,333.036h7.694c4.771,0,8.653-3.881,8.653-8.652v-24.045
	c0-4.771-3.882-8.653-8.653-8.653h-7.694c-4.771,0-8.653,3.882-8.653,8.653v24.045C318.5,329.155,322.382,333.036,327.153,333.036z
	 M323.5,300.338c0-2.014,1.639-3.653,3.653-3.653h7.694c2.014,0,3.653,1.639,3.653,3.653v24.045c0,2.014-1.639,3.652-3.653,3.652
	h-7.694c-2.014,0-3.653-1.639-3.653-3.652V300.338z"/>
<linearGradient id="SVGID_3_" gradientUnits="userSpaceOnUse" x1="-37.3928" y1="104.0125" x2="401.2491" y2="522.4804">
	<stop  offset="0" style="stop-color:#FEF050"/>
	<stop  offset="0.0348" style="stop-color:#FAE73D"/>
	<stop  offset="0.0935" style="stop-color:#F5DB22"/>
	<stop  offset="0.1536" style="stop-color:#F2D20F"/>
	<stop  offset="0.2152" style="stop-color:#F0CD04"/>
	<stop  offset="0.2809" style="stop-color:#EFCB00"/>
	<stop  offset="0.6685" style="stop-color:#D99544"/>
	<stop  offset="0.8876" style="stop-color:#CD6F3C"/>
	<stop  offset="1" style="stop-color:#C34435"/>
</linearGradient>
<path style="fill:url(#SVGID_3_);" d="M177.153,333.036h7.694c4.771,0,8.653-3.881,8.653-8.652v-24.045
	c0-4.771-3.882-8.653-8.653-8.653h-7.694c-4.771,0-8.653,3.882-8.653,8.653v24.045C168.5,329.155,172.382,333.036,177.153,333.036z
	 M173.5,300.338c0-2.014,1.639-3.653,3.653-3.653h7.694c2.014,0,3.653,1.639,3.653,3.653v24.045c0,2.014-1.639,3.652-3.653,3.652
	h-7.694c-2.014,0-3.653-1.639-3.653-3.652V300.338z"/>
</svg>
