<?xml version="1.0" encoding="iso-8859-1"?>
<!-- Generator: Adobe Illustrator 19.0.0, SVG Export Plug-In . SVG Version: 6.00 Build 0)  -->
<svg version="1.1" id="Layer_1" xmlns="http://www.w3.org/2000/svg" xmlns:xlink="http://www.w3.org/1999/xlink" x="0px" y="0px"
	 viewBox="0 0 512.001 512.001" style="enable-background:new 0 0 512.001 512.001;" xml:space="preserve">
<path style="fill:#EBF9FE;" d="M417.271,313.254c-1.745,0-3.507-0.517-5.045-1.593L265.101,206.102
	c-3.988-2.79-4.957-8.286-2.167-12.272c2.79-3.987,8.287-4.957,12.272-2.165l147.125,105.558c3.988,2.79,4.957,8.286,2.167,12.272
	C422.784,311.944,420.05,313.254,417.271,313.254z"/>
<polygon style="fill:#B1C6D3;" points="388.357,272.914 380.432,288.949 365.05,277.855 376.238,263.498 "/>
<polygon style="fill:#BED8E4;" points="330.462,231.334 321.698,246.81 334.471,256.133 340.811,238.512 "/>
<path style="fill:#EBF9FE;" d="M145.564,268.391c-2.277,0-4.553-0.876-6.278-2.627c-3.415-3.466-3.374-9.046,0.092-12.461
	l48.34-47.613c3.466-3.417,9.045-3.376,12.461,0.092c3.415,3.466,3.374,9.046-0.092,12.461l-48.34,47.613
	C150.032,267.546,147.798,268.391,145.564,268.391z"/>
<circle style="fill:#FEA8D6;" cx="90.35" cy="309.24" r="81.728"/>
<g>
	<path style="fill:#FF97CB;" d="M30.899,253.099c-1.566,34.464,41.513,112.009,108.876,120.626l13.315-10.966l-70.495-61.096
		l-35.248-64.229L30.899,253.099z"/>
	<path style="fill:#FF97CB;" d="M95.576,227.649c2.325,10.297,29.565,69.094,76.069,83.71c0,0,0.664,14.616-6.312,24.249
		c-6.976,9.633-108.291-69.426-92.014-106.63C73.32,228.978,82.954,226.653,95.576,227.649z"/>
</g>
<path style="fill:#BED8E4;" d="M332.317,394.463c-2.913,0-5.762-1.443-7.442-4.082l-26.436-43.115
	c-2.614-4.106-1.403-9.552,2.703-12.165c4.104-2.612,9.551-1.403,12.165,2.703l26.436,43.115c2.613,4.106,1.403,9.552-2.703,12.165
	C335.574,394.018,333.936,394.463,332.317,394.463z"/>
<circle style="fill:#6BE8C7;" cx="226.102" cy="174.806" r="53.675"/>
<circle style="fill:#FFE4A1;" cx="450.688" cy="330.177" r="53.675"/>
<path style="fill:#D3E8F1;" d="M348.847,85.038c-35.812-42.95-90.901-66.355-146.607-63.462
	c-20.549,1.067-40.717,5.658-59.644,13.749c-23.144,9.893-43.937,24.749-60.948,43.291C62.7,99.273,48.481,124.33,40.981,151.369
	c-14.496,52.264-3.533,110.863,29.115,154.21c18.476,24.53,43.343,44.238,71.532,56.45c48.126,20.849,104.492,19.166,151.218-4.653
	c17.456-8.845,33.147-20.553,46.574-34.403c23.601-24.343,40.207-55.302,47.104-88.958c1.814-8.853,2.953-17.846,3.372-26.874
	C391.934,163.251,376.985,118.786,348.847,85.038z M344.88,205.063c-0.313,6.738-1.162,13.45-2.517,20.058
	c-5.147,25.121-17.543,48.228-35.158,66.398c-10.022,10.337-21.734,19.076-34.764,25.678c-34.878,17.779-76.949,19.035-112.87,3.473
	c-21.04-9.115-39.602-23.825-53.392-42.135c-24.368-32.354-32.551-76.093-21.731-115.102c5.597-20.182,16.21-38.885,30.354-54.303
	c12.696-13.841,28.217-24.928,45.492-32.313c14.127-6.039,29.18-9.466,44.519-10.263c41.578-2.158,82.698,15.31,109.427,47.368
	C335.245,139.112,346.402,172.301,344.88,205.063z"/>
<path style="fill:#EBF9FE;" d="M244.132,24.039C122.934,23.99,22.284,121.116,52.014,275.618
	C-22.755,100.751,146.042-6.558,244.132,24.039z"/>
<path style="fill:#BED8E4;" d="M381.309,139.225c-12.813-35.937-37.829-66.102-68.944-87.102
	c149.015,166.049-15.607,331.766-147.019,318.19c22.366,6.362,46.046,7.948,69.37,5.163c19.437-2.273,38.205-7.844,55.589-16.204
	c30.555-14.697,56.83-38.017,74.924-67.221c4.76-7.682,8.933-15.729,12.444-24.057C394.738,227.505,396.064,180.612,381.309,139.225
	z"/>
<path style="fill:#8D93A4;" d="M406.729,476.893l-21.794,14.033c-6.911,4.451-16.207,2.437-20.656-4.474l-46.488-72.193
	c-4.451-6.911-2.437-16.207,4.474-20.656l21.794-14.033c6.911-4.451,16.207-2.437,20.656,4.474l46.488,72.193
	C415.653,463.148,413.64,472.443,406.729,476.893z"/>
<polygon style="fill:#B1C6D3;" points="301.703,353.154 316.881,343.581 327.939,361.369 312.09,369.727 "/>
<path style="fill:#707682;" d="M407.675,476.231c6.14-4.661,7.767-13.409,3.527-19.994l-46.488-72.193
	c-4.451-6.911-13.745-8.925-20.656-4.474L407.675,476.231z"/>
<path d="M370.948,378.098c-4.387-6.813-11.87-10.881-20.012-10.881c-4.56,0-8.994,1.303-12.824,3.769l-3.629,2.337l-15.068-23.677
	c80.584-57.371,102.681-168.925,48.577-252.945c-26.982-41.901-68.666-70.788-117.375-81.337
	c-48.705-10.55-98.609-1.5-140.51,25.482c-29.932,19.275-53.588,46.478-68.412,78.67c-14.425,31.327-19.923,65.955-15.9,100.143
	c0.569,4.834,4.956,8.289,9.781,7.722c4.834-0.569,8.29-4.948,7.722-9.781c-3.645-30.965,1.337-62.333,14.405-90.712
	c13.418-29.139,34.839-53.768,61.945-71.224c37.944-24.434,83.13-32.629,127.238-23.075s81.854,35.712,106.288,73.655
	c50.438,78.328,27.748,183.088-50.58,233.527c-78.328,50.437-183.088,27.748-233.526-50.58c-2.635-4.092-8.088-5.272-12.179-2.638
	s-5.273,8.088-2.638,12.179c35.628,55.329,95.788,85.519,157.166,85.514c31.816-0.002,63.957-8.142,93.171-25.074l15.078,23.693
	l-3.346,2.155c-5.321,3.427-8.993,8.736-10.339,14.949c-1.346,6.213-0.2,12.566,3.228,17.887l46.488,72.193
	c4.386,6.815,11.869,10.882,20.012,10.882c4.56,0,8.993-1.303,12.823-3.769l21.794-14.034c5.321-3.427,8.993-8.736,10.339-14.949
	c1.346-6.214,0.2-12.566-3.228-17.887L370.948,378.098z M403.439,464.449c-0.35,1.612-1.294,2.984-2.656,3.862l-21.794,14.034
	c-0.979,0.63-2.114,0.963-3.282,0.963c-2.125,0-4.066-1.047-5.195-2.8l-46.488-72.194c-0.878-1.363-1.169-3.002-0.82-4.614
	c0.35-1.613,1.294-2.984,2.656-3.862l21.794-14.033c0.979-0.63,2.114-0.963,3.283-0.963c2.124,0,4.066,1.047,5.196,2.799
	l46.487,72.194C403.496,461.198,403.787,462.835,403.439,464.449z"/>
<path d="M113.878,375.206c-7.851,2.861-16.112,4.312-24.554,4.312c-39.536,0-71.701-32.165-71.701-71.701
	c0-13.482,3.76-26.616,10.873-37.981c2.582-4.125,1.331-9.563-2.794-12.144c-4.126-2.582-9.564-1.33-12.144,2.794
	C4.688,274.659,0,291.026,0,307.818c0,49.254,40.071,89.325,89.325,89.325c10.506,0,20.798-1.809,30.589-5.378
	c4.573-1.666,6.927-6.724,5.261-11.297C123.509,375.895,118.452,373.54,113.878,375.206z"/>
<path d="M224.925,236.117c19.687,0,37.265-9.161,48.728-23.433l27.976,19.584c1.538,1.076,3.3,1.593,5.045,1.593
	c2.779,0,5.513-1.31,7.227-3.76c2.79-3.987,1.821-9.482-2.167-12.272l-29.065-20.345c3.05-7.355,4.742-15.409,4.742-23.854
	c0-34.456-28.031-62.487-62.487-62.487s-62.487,28.031-62.487,62.487c0,15.246,5.495,29.227,14.6,40.085l-28.051,27.642
	c-8.081-7.262-17.503-13.092-27.889-17.046c-4.55-1.731-9.64,0.552-11.371,5.1c-1.732,4.548,0.552,9.639,5.1,11.37
	c21.414,8.152,37.76,26.202,43.725,48.283c1.061,3.929,4.617,6.516,8.502,6.516c0.76,0,1.534-0.099,2.303-0.307
	c4.699-1.269,7.478-6.107,6.209-10.805c-2.969-10.991-8.006-21.176-14.679-30.097l29.274-28.848
	C200.107,232.21,212.067,236.117,224.925,236.117z M224.925,128.767c24.738,0,44.863,20.125,44.863,44.863
	s-20.125,44.863-44.863,44.863s-44.863-20.125-44.863-44.863S200.188,128.767,224.925,128.767z"/>
<path d="M449.513,266.518c-17.543,0-33.41,7.277-44.77,18.959l-6.665-5.078c-3.871-2.95-9.402-2.202-12.35,1.67
	c-2.95,3.871-2.202,9.401,1.67,12.35l6.944,5.291c-4.662,8.744-7.315,18.715-7.315,29.298c0,34.456,28.031,62.487,62.488,62.487
	c34.455,0,62.487-28.031,62.487-62.487S483.969,266.518,449.513,266.518z M449.513,373.868c-24.738,0-44.864-20.125-44.864-44.863
	c0-24.738,20.126-44.863,44.864-44.863s44.863,20.125,44.863,44.863C494.376,353.743,474.251,373.868,449.513,373.868z"/>
<path d="M340.536,214.853c4.829,0.31,9.049-3.365,9.365-8.222c1.437-22.108-2.326-43.697-11.188-64.161
	c-14.757-34.081-41.901-60.376-76.436-74.04c-34.532-13.664-72.32-13.063-106.402,1.693
	C85.521,100.585,53.068,182.605,83.53,252.959c14.757,34.081,41.901,60.376,76.434,74.04c16.571,6.557,33.887,9.828,51.187,9.828
	c18.753,0,37.488-3.847,55.215-11.522c21.628-9.364,40.612-24.132,54.903-42.705c2.967-3.857,2.246-9.39-1.611-12.358
	c-3.86-2.969-9.39-2.245-12.358,1.611c-12.469,16.209-29.046,29.099-47.938,37.279c-29.76,12.887-62.76,13.412-92.914,1.479
	c-30.157-11.933-53.861-34.894-66.747-64.655c-26.601-61.437,1.74-133.06,63.177-159.661c29.761-12.887,62.758-13.412,92.915-1.479
	c30.156,11.932,53.861,34.894,66.746,64.655c7.74,17.876,11.029,36.722,9.774,56.016
	C331.999,210.345,335.68,214.538,340.536,214.853z"/>
<g>
</g>
<g>
</g>
<g>
</g>
<g>
</g>
<g>
</g>
<g>
</g>
<g>
</g>
<g>
</g>
<g>
</g>
<g>
</g>
<g>
</g>
<g>
</g>
<g>
</g>
<g>
</g>
<g>
</g>
</svg>
