<?xml version="1.0" encoding="utf-8"?>
<!-- Generator: Adobe Illustrator 16.0.0, SVG Export Plug-In . SVG Version: 6.00 Build 0)  -->
<!DOCTYPE svg PUBLIC "-//W3C//DTD SVG 1.1//EN" "http://www.w3.org/Graphics/SVG/1.1/DTD/svg11.dtd">
<svg version="1.1" id="Layer_1" xmlns="http://www.w3.org/2000/svg" xmlns:xlink="http://www.w3.org/1999/xlink" x="0px" y="0px"
	 width="512px" height="512px" viewBox="0 0 512 512" enable-background="new 0 0 512 512" xml:space="preserve">
<g id="_x31_6_coffee_x2C__cup_x2C__break_x2C__business_x2C__job_x2C__work_x2C__office">
	<g>
		<g>
			<path fill="#ED5564" d="M455.864,252.001v143.902c0,17.59-14.389,31.979-31.979,31.979H359.93h-7.994v-23.983h7.994h55.962
				c8.791,0,15.989-7.198,15.989-15.989V259.996c0-8.791-7.198-15.989-15.989-15.989H359.93h-7.994v-23.983h7.994h63.956
				C441.476,220.023,455.864,234.412,455.864,252.001z"/>
		</g>
	</g>
	<g>
		<g>
			<polygon fill="#656D78" points="260.076,319.394 231.696,346.578 238.652,385.271 204.035,366.72 169.419,385.271 
				176.375,346.578 147.995,319.394 186.926,314.037 204.035,278.624 221.145,314.037 			"/>
		</g>
	</g>
	<g opacity="0.3">
		<g>
			<polygon fill="#FFFFFF" points="169.396,317.551 169.396,316.45 147.995,319.394 176.375,346.578 169.419,385.271 
				178.264,380.531 184.369,346.578 155.99,319.394 			"/>
		</g>
	</g>
	<g opacity="0.2">
		<g>
			<polygon fill="#3A3847" points="238.676,317.551 238.676,316.45 260.076,319.394 231.696,346.578 238.652,385.271 
				229.807,380.531 223.702,346.578 252.081,319.394 			"/>
		</g>
	</g>
	<g>
		<g>
			<path fill="#FFCE54" d="M204.035,244.007c50.767,0,91.938,41.176,91.938,91.938c0,50.763-41.171,91.938-91.938,91.938
				c-50.766,0-91.937-41.175-91.937-91.938C112.099,285.183,153.27,244.007,204.035,244.007z M231.696,346.578l28.38-27.185
				l-38.932-5.356l-17.109-35.413l-17.109,35.413l-38.931,5.356l28.38,27.185l-6.956,38.692l34.616-18.551l34.617,18.551
				L231.696,346.578z"/>
		</g>
	</g>
	<g opacity="0.5">
		<g>
			<g>
				<path fill="#FFFFFF" d="M128.087,335.944c0-48.061,36.929-87.472,83.943-91.531c-2.639-0.227-5.297-0.406-7.995-0.406
					c-50.766,0-91.937,41.176-91.937,91.938c0,50.763,41.171,91.938,91.937,91.938c2.698,0,5.356-0.18,7.995-0.406
					C165.016,423.416,128.087,384.005,128.087,335.944z"/>
			</g>
		</g>
	</g>
	<g opacity="0.3">
		<g>
			<g>
				<path fill="#3A3847" d="M279.344,335.944c0,48.061-36.928,87.472-83.943,91.531c2.64,0.227,5.298,0.406,7.995,0.406
					c50.766,0,91.938-41.175,91.938-91.938c0-50.762-41.172-91.938-91.938-91.938c-2.697,0-5.355,0.18-7.995,0.406
					C242.416,248.473,279.344,287.884,279.344,335.944z"/>
			</g>
		</g>
	</g>
	<g>
		<g>
			<path fill="#ED5564" d="M295.973,148.072h55.963v71.951v23.983v159.892v23.983v31.979c0,26.38-13.593,47.967-39.974,47.967
				H104.104c-26.381,0-47.967-21.587-47.967-47.967V148.072h39.973h55.962h87.939H295.973z M295.973,335.944
				c0-50.762-41.171-91.938-91.938-91.938c-50.766,0-91.937,41.176-91.937,91.938c0,50.763,41.171,91.938,91.937,91.938
				C254.802,427.882,295.973,386.707,295.973,335.944z"/>
		</g>
	</g>
	<g opacity="0.4">
		<g>
			<g>
				<path fill="#FFFFFF" d="M72.125,459.86V148.072H56.137V459.86c0,26.38,21.586,47.967,47.967,47.967h15.989
					C93.712,507.827,72.125,486.24,72.125,459.86z"/>
			</g>
		</g>
	</g>
	<g opacity="0.3">
		<g>
			<g>
				<path fill="#3A3847" d="M335.945,459.86V148.072h15.99V459.86c0,26.38-21.588,47.967-47.968,47.967h-15.989
					C314.359,507.827,335.945,486.24,335.945,459.86z"/>
			</g>
		</g>
	</g>
	<g>
		<g>
			<g>
				<path fill="#3A3847" d="M311.962,511.825H104.104c-28.652,0-51.965-23.312-51.965-51.965V148.072
					c0-2.209,1.788-3.997,3.998-3.997h295.799c2.209,0,3.997,1.788,3.997,3.997V459.86
					C355.933,490.94,338.257,511.825,311.962,511.825z M60.134,152.069V459.86c0,24.241,19.725,43.97,43.97,43.97h207.858
					c26.553,0,35.976-23.687,35.976-43.97V152.069H60.134z"/>
			</g>
		</g>
		<g>
			<g>
				<path fill="#3A3847" d="M423.886,431.879H359.93c-2.209,0-3.997-1.788-3.997-3.997s1.788-3.997,3.997-3.997h63.956
					c15.427,0,27.981-12.554,27.981-27.981V252.001c0-15.427-12.555-27.981-27.981-27.981H359.93c-2.209,0-3.997-1.788-3.997-3.997
					c0-2.209,1.788-3.997,3.997-3.997h63.956c19.839,0,35.976,16.137,35.976,35.975v143.902
					C459.861,415.741,443.725,431.879,423.886,431.879z"/>
			</g>
		</g>
		<g>
			<g>
				<path fill="#3A3847" d="M415.892,407.896H359.93c-2.209,0-3.997-1.788-3.997-3.997c0-2.21,1.788-3.997,3.997-3.997h55.962
					c6.612,0,11.991-5.38,11.991-11.992V259.996c0-6.612-5.379-11.992-11.991-11.992H359.93c-2.209,0-3.997-1.788-3.997-3.998
					c0-2.209,1.788-3.997,3.997-3.997h55.962c11.023,0,19.986,8.963,19.986,19.986v127.913
					C435.878,398.933,426.915,407.896,415.892,407.896z"/>
			</g>
		</g>
		<g>
			<g>
				<path fill="#3A3847" d="M204.035,431.879c-52.897,0-95.935-43.033-95.935-95.935s43.037-95.935,95.935-95.935
					c52.898,0,95.936,43.033,95.936,95.935S256.934,431.879,204.035,431.879z M204.035,248.004c-48.49,0-87.939,39.45-87.939,87.94
					s39.449,87.94,87.939,87.94c48.491,0,87.94-39.45,87.94-87.94S252.526,248.004,204.035,248.004z"/>
			</g>
		</g>
		<g>
			<g>
				<path fill="#3A3847" d="M238.652,389.268c-0.647,0-1.296-0.156-1.889-0.477l-32.729-17.534l-32.728,17.534
					c-1.347,0.727-2.994,0.617-4.239-0.288c-1.241-0.898-1.854-2.429-1.585-3.943l6.578-36.576l-26.83-25.701
					c-1.108-1.062-1.511-2.662-1.038-4.123c0.473-1.459,1.737-2.514,3.256-2.725l36.811-5.066l16.177-33.485
					c1.335-2.764,5.863-2.764,7.198,0l16.177,33.485l36.811,5.066c1.519,0.211,2.783,1.266,3.256,2.725
					c0.476,1.461,0.07,3.061-1.038,4.123l-26.83,25.701l6.578,36.576c0.269,1.515-0.344,3.045-1.585,3.943
					C240.304,389.01,239.48,389.268,238.652,389.268z M204.035,362.724c0.648,0,1.301,0.155,1.89,0.476l27.333,14.646l-5.496-30.558
					c-0.238-1.319,0.203-2.67,1.171-3.599l22.406-21.462l-30.74-4.232c-1.323-0.179-2.471-1.015-3.053-2.217l-13.511-27.965
					l-13.51,27.965c-0.582,1.202-1.729,2.038-3.053,2.217l-30.741,4.232l22.407,21.462c0.968,0.929,1.409,2.279,1.171,3.599
					l-5.496,30.558l27.333-14.646C202.735,362.879,203.388,362.724,204.035,362.724z"/>
			</g>
		</g>
		<g>
			<g>
				<path fill="#3A3847" d="M200.046,120.091c-1.019,0-2.037-0.39-2.818-1.163c-1.565-1.554-1.573-4.083-0.027-5.653
					c0.875-0.882,21.165-22.039-0.359-50.746c-25.768-34.352,0.105-60.92,0.371-61.186c1.562-1.561,4.075-1.553,5.637-0.007
					c1.565,1.553,1.573,4.083,0.027,5.652c-0.874,0.882-21.165,22.04,0.359,50.747c25.768,34.352-0.105,60.919-0.371,61.185
					C202.084,119.701,201.064,120.091,200.046,120.091z"/>
			</g>
		</g>
		<g>
			<g>
				<path fill="#3A3847" d="M245.375,120.091c-1.02,0-2.038-0.39-2.818-1.163c-1.565-1.554-1.573-4.083-0.027-5.653
					c0.874-0.882,21.165-22.039-0.359-50.746c-1.327-1.765-0.968-4.271,0.8-5.598c1.761-1.327,4.271-0.96,5.594,0.804
					c25.769,34.352-0.105,60.919-0.37,61.185C247.412,119.701,246.394,120.091,245.375,120.091z"/>
			</g>
		</g>
		<g>
			<g>
				<path fill="#3A3847" d="M152.079,120.091c-1.02,0-2.038-0.39-2.818-1.163c-1.565-1.554-1.573-4.083-0.027-5.653
					c0.874-0.882,21.165-22.039-0.359-50.746c-1.327-1.765-0.968-4.271,0.8-5.598c1.757-1.327,4.267-0.96,5.594,0.804
					c25.768,34.352-0.105,60.919-0.37,61.185C154.116,119.701,153.098,120.091,152.079,120.091z"/>
			</g>
		</g>
		<g>
			<g>
				<path fill="#3A3847" d="M240.011,192.042c-2.209,0-3.997-1.788-3.997-3.998v-39.973c0-2.209,1.788-3.997,3.997-3.997
					c2.21,0,3.998,1.788,3.998,3.997v39.973C244.009,190.255,242.221,192.042,240.011,192.042z"/>
			</g>
		</g>
		<g>
			<g>
				<path fill="#3A3847" d="M152.071,168.059c-2.21,0-3.998-1.788-3.998-3.997v-15.989c0-2.209,1.788-3.997,3.998-3.997
					c2.209,0,3.997,1.788,3.997,3.997v15.989C156.068,166.271,154.28,168.059,152.071,168.059z"/>
			</g>
		</g>
		<g>
			<g>
				<path fill="#3A3847" d="M295.973,240.01c-2.209,0-3.997-1.788-3.997-3.997v-87.94c0-2.209,1.788-3.997,3.997-3.997
					c2.21,0,3.998,1.788,3.998,3.997v87.94C299.971,238.222,298.183,240.01,295.973,240.01z"/>
			</g>
		</g>
		<g>
			<g>
				<path fill="#3A3847" d="M96.109,184.048c-2.21,0-3.998-1.788-3.998-3.997v-31.979c0-2.209,1.788-3.997,3.998-3.997
					c2.209,0,3.997,1.788,3.997,3.997v31.979C100.106,182.26,98.318,184.048,96.109,184.048z"/>
			</g>
		</g>
	</g>
	<g opacity="0.3">
		<g>
			<rect x="351.936" y="220.023" fill="#3A3847" width="7.994" height="23.983"/>
		</g>
	</g>
	<g opacity="0.3">
		<g>
			<rect x="351.936" y="403.898" fill="#3A3847" width="7.994" height="23.983"/>
		</g>
	</g>
</g>
</svg>
