<?xml version="1.0" encoding="iso-8859-1"?>
<!-- Generator: Adobe Illustrator 19.0.0, SVG Export Plug-In . SVG Version: 6.00 Build 0)  -->
<svg version="1.1" id="Layer_1" xmlns="http://www.w3.org/2000/svg" xmlns:xlink="http://www.w3.org/1999/xlink" x="0px" y="0px"
	 viewBox="0 0 512.002 512.002" style="enable-background:new 0 0 512.002 512.002;" xml:space="preserve">
<polygon style="fill:#5C6670;" points="126.196,8.036 167.105,58.272 344.895,58.272 385.805,8.036 "/>
<polygon style="fill:#0082CA;" points="295.003,132.876 217.005,132.876 170.877,423.064 256.003,503.964 341.129,423.064 "/>
<polygon style="fill:#0055B8;" points="298.017,29.693 317.819,77.251 294.996,132.876 217.005,132.876 194.182,77.251 
	213.983,29.693 "/>
<path style="fill:#E0E0D3;" d="M312.768,244.637L177.782,379.623l-4.295,27.025l142.399-142.397L312.768,244.637z M297.288,147.255
	l-98.176,98.175l-4.295,27.025l105.589-105.588L297.288,147.255z M328.246,342.018L210.009,460.254l11.654,11.076l109.701-109.7
	L328.246,342.018z"/>
<polygon style="opacity:0.1;enable-background:new    ;" points="295.003,132.876 217.005,132.876 213.679,153.797 298.328,153.797 
	"/>
<g>
	<path style="fill:#E0E0D3;" d="M300.01,25.294c-6.079,1.632-11.28,2.022-8.86,7.833l34.06,61.753
		c2.42,5.81,7.619,5.119,11.863,0.017c0,0,50.979-54.27,56.502-68.29c4.691-11.909,0.327-20.459-11.053-18.207L300.01,25.294z"/>
	<path style="fill:#E0E0D3;" d="M211.99,25.294c6.079,1.632,11.28,2.022,8.86,7.833L186.79,94.88
		c-2.42,5.81-7.619,5.119-11.863,0.017c0,0-50.979-54.27-56.502-68.29c-4.691-11.909-0.327-20.459,11.053-18.207L211.99,25.294z"/>
</g>
<path style="fill:#1E252B;" d="M317.993,98.429c2.417,5.388,6.971,8.59,12.269,8.591c0.001,0,0.001,0,0.002,0
	c4.56,0,9.104-2.406,12.82-6.783c9.032-9.619,52.209-56.06,57.97-70.686c3.449-8.756,3.212-16.715-0.666-22.41
	c-3.134-4.603-8.254-7.138-14.417-7.138c-0.055,0-0.11,0.004-0.165,0.004V0H126.196v0.021c-6.23-0.027-11.423,2.48-14.581,7.12
	c-3.879,5.696-4.114,13.655-0.666,22.411c5.76,14.624,48.937,61.065,57.969,70.685c3.716,4.377,8.26,6.783,12.821,6.783
	c5.298,0,9.853-3.2,12.27-8.592l0.101-0.183l14.604,35.594l-45.774,287.963c-0.416,2.613,0.482,5.264,2.401,7.087l85.126,80.901
	c1.55,1.474,3.543,2.211,5.536,2.211c1.992,0,3.985-0.737,5.536-2.211l85.126-80.901c1.919-1.823,2.817-4.473,2.401-7.087
	L303.293,133.84l14.601-35.588L317.993,98.429z M385.969,16.074c0.782,0,1.126,0.117,1.141,0.124
	c0.255,0.389,0.825,2.803-1.01,7.464c-3.604,9.15-35.478,45.068-54.79,65.636l-30.796-55.834c0.439-0.11,0.887-0.224,1.339-0.343
	l82.229-16.838C384.781,16.143,385.415,16.074,385.969,16.074z M304.991,16.072l-6.592,1.35c-0.159,0.032-0.316,0.07-0.471,0.111
	c-0.696,0.186-1.38,0.356-2.04,0.519c-2.901,0.719-6.282,1.561-8.962,3.604h-61.851c-2.68-2.043-6.059-2.885-8.962-3.604
	c-0.66-0.163-1.344-0.333-2.04-0.519c-0.155-0.042-0.313-0.079-0.471-0.111l-6.592-1.35H304.991z M180.692,89.298
	c-36.307-38.661-52.876-60.777-54.791-65.636c-1.857-4.717-1.251-7.132-1.076-7.41c0.003-0.001,0.326-0.178,1.205-0.178
	c0.554,0,1.189,0.07,1.835,0.197l82.282,16.848c0.452,0.119,0.9,0.234,1.339,0.343L180.692,89.298z M332.53,420.151l-76.527,72.728
	l-76.527-72.728l44.387-279.239h64.28L332.53,420.151z M289.613,124.841h-67.22l-18.322-44.656l23.418-42.456h57.023l23.421,42.462
	L289.613,124.841z"/>
<g>
</g>
<g>
</g>
<g>
</g>
<g>
</g>
<g>
</g>
<g>
</g>
<g>
</g>
<g>
</g>
<g>
</g>
<g>
</g>
<g>
</g>
<g>
</g>
<g>
</g>
<g>
</g>
<g>
</g>
</svg>
