<?xml version="1.0" encoding="iso-8859-1"?>
<!-- Generator: Adobe Illustrator 19.0.0, SVG Export Plug-In . SVG Version: 6.00 Build 0)  -->
<svg version="1.1" id="Layer_1" xmlns="http://www.w3.org/2000/svg" xmlns:xlink="http://www.w3.org/1999/xlink" x="0px" y="0px"
	 viewBox="0 0 512 512" style="enable-background:new 0 0 512 512;" xml:space="preserve">
<polygon style="fill:#B0F6FF;" points="257.258,483.048 14.188,267.135 14.188,267.135 100.362,119.17 406.069,119.17 
	500.183,267.135 500.183,267.135 "/>
<polyline style="fill:#DCFDFF;" points="178.837,267.09 100.381,118.895 14.188,267.046 178.667,267.046 "/>
<g>
	<polygon style="fill:#6EE5F4;" points="335.571,267.046 257.258,118.77 178.797,267.046 	"/>
	<polyline style="fill:#6EE5F4;" points="335.472,267.09 406.02,118.895 500.183,267.046 335.788,267.046 	"/>
</g>
<g>
	<polygon style="fill:#60D8E8;" points="178.821,266.969 335.788,266.969 257.258,483.048 	"/>
	<polygon style="fill:#60D8E8;" points="257.245,119.17 335.664,267.135 406.069,119.17 	"/>
</g>
<polygon style="fill:#DCFDFF;" points="335.664,267.135 257.258,483.048 500.183,267.135 "/>
<path d="M510.559,262.976l-95.534-150.022c-1.69-2.654-4.619-4.262-7.765-4.262H96.896c-0.031,0-0.063,0-0.093,0h-0.025
	c-0.012,0-0.023,0.002-0.036,0.002c-0.357,0.001-0.714,0.027-1.072,0.071c-0.077,0.01-0.155,0.021-0.232,0.032
	c-0.308,0.045-0.615,0.106-0.922,0.184c-0.061,0.016-0.124,0.027-0.185,0.045c-0.357,0.098-0.711,0.216-1.059,0.36
	c-0.032,0.014-0.061,0.029-0.092,0.044c-0.242,0.102-0.482,0.21-0.719,0.336c-0.055,0.029-0.104,0.065-0.16,0.096
	c-0.096,0.053-0.188,0.11-0.281,0.168c-0.232,0.14-0.457,0.288-0.673,0.446c-0.079,0.058-0.158,0.114-0.236,0.176
	c-0.271,0.211-0.53,0.433-0.772,0.669c-0.014,0.014-0.029,0.026-0.043,0.039c-0.271,0.269-0.522,0.554-0.755,0.851
	c-0.036,0.045-0.069,0.095-0.103,0.141c-0.191,0.254-0.368,0.516-0.532,0.787c-0.026,0.042-0.056,0.077-0.081,0.12L1.255,263.279
	c-0.023,0.039-0.041,0.08-0.063,0.119c-0.07,0.124-0.135,0.25-0.199,0.378c-0.064,0.128-0.128,0.255-0.185,0.384
	c-0.056,0.126-0.11,0.255-0.161,0.384c-0.055,0.14-0.107,0.281-0.155,0.422c-0.042,0.124-0.082,0.248-0.119,0.373
	c-0.048,0.162-0.087,0.325-0.126,0.489c-0.026,0.109-0.053,0.219-0.075,0.33c-0.044,0.225-0.076,0.448-0.103,0.674
	c-0.007,0.056-0.017,0.112-0.023,0.169c-0.029,0.293-0.043,0.588-0.044,0.883c0,0.012-0.001,0.025-0.001,0.036
	c0,0.053,0.007,0.106,0.009,0.158c0.004,0.222,0.014,0.443,0.033,0.665c0.01,0.112,0.026,0.222,0.039,0.334
	c0.021,0.167,0.047,0.334,0.076,0.501c0.023,0.128,0.048,0.254,0.077,0.379c0.033,0.147,0.072,0.292,0.113,0.438
	c0.037,0.129,0.071,0.259,0.113,0.385c0.048,0.146,0.103,0.288,0.158,0.432c0.045,0.118,0.086,0.236,0.135,0.351
	c0.095,0.22,0.2,0.436,0.312,0.648c0.039,0.074,0.08,0.146,0.12,0.218c0.113,0.201,0.232,0.4,0.361,0.594
	c0.052,0.077,0.11,0.152,0.164,0.228c0.109,0.153,0.22,0.306,0.339,0.453c0.069,0.085,0.142,0.166,0.214,0.248
	c0.113,0.13,0.227,0.258,0.347,0.383c0.085,0.087,0.173,0.169,0.261,0.254c0.074,0.07,0.141,0.142,0.216,0.21l246.794,219.466
	c1.746,1.552,3.932,2.327,6.118,2.327c2.186,0,4.374-0.776,6.118-2.327l112.985-100.474c3.799-3.379,4.14-9.198,0.761-12.997
	c-3.378-3.802-9.198-4.14-12.997-0.762l-90.34,80.335l69.439-183.242h136.619l-71.334,63.434c-3.799,3.379-4.14,9.198-0.761,12.997
	c3.378,3.802,9.196,4.14,12.998,0.762l89.421-79.519C512.289,271.797,512.986,266.787,510.559,262.976z M96.394,136.818
	l64.687,121.896H25.24L96.394,136.818z M270.102,127.104h126.917l-61.642,120.993L270.102,127.104z M320.184,258.714H191.815
	L256,139.744L320.184,258.714z M176.455,248.404l-64.37-121.3h129.812L176.455,248.404z M170.033,277.127l69.439,183.242
	L33.413,277.127H170.033z M189.723,277.127h132.552l-66.277,174.896L189.723,277.127z M410.804,140.603l75.212,118.111H350.631
	L410.804,140.603z"/>
<path d="M265.206,44.251v-19.64c0-5.086-4.121-9.206-9.206-9.206c-5.086,0-9.206,4.121-9.206,9.206v19.64
	c0,5.086,4.121,9.206,9.206,9.206C261.086,53.458,265.206,49.337,265.206,44.251z"/>
<path d="M221.281,67.839c2.356,0,4.712-0.899,6.511-2.696c3.595-3.597,3.595-9.425,0-13.02l-13.888-13.888
	c-3.597-3.594-9.425-3.594-13.02,0c-3.595,3.597-3.595,9.425,0,13.02l13.887,13.887C216.569,66.939,218.926,67.839,221.281,67.839z"
	/>
<path d="M297.229,65.142l13.887-13.887c3.595-3.597,3.595-9.425,0-13.02c-3.597-3.594-9.425-3.594-13.02,0l-13.887,13.887
	c-3.595,3.597-3.595,9.425,0,13.02c1.798,1.797,4.155,2.696,6.511,2.696S295.431,66.939,297.229,65.142z"/>
<g>
</g>
<g>
</g>
<g>
</g>
<g>
</g>
<g>
</g>
<g>
</g>
<g>
</g>
<g>
</g>
<g>
</g>
<g>
</g>
<g>
</g>
<g>
</g>
<g>
</g>
<g>
</g>
<g>
</g>
</svg>
