<?xml version="1.0" encoding="iso-8859-1"?>
<!-- Generator: Adobe Illustrator 19.0.0, SVG Export Plug-In . SVG Version: 6.00 Build 0)  -->
<svg version="1.1" id="Layer_1" xmlns="http://www.w3.org/2000/svg" xmlns:xlink="http://www.w3.org/1999/xlink" x="0px" y="0px"
	 viewBox="0 0 512.001 512.001" style="enable-background:new 0 0 512.001 512.001;" xml:space="preserve">
<circle style="fill:#FFEFCA;" cx="237.371" cy="327.721" r="175.375"/>
<g>
	<path style="fill:#FBD696;" d="M190.478,327.892c0-5.303-4.297-9.601-9.601-9.601H62.254c-0.165,3.122-0.253,6.267-0.253,9.431
		c0,3.28,0.097,6.535,0.275,9.771h118.601C186.179,337.493,190.478,333.194,190.478,327.892z"/>
	<path style="fill:#FBD696;" d="M290.365,318.291c-5.303,0-9.601,4.297-9.601,9.601s4.297,9.601,9.601,9.601h119.334
		c0.975,0,1.916-0.147,2.802-0.417c0.163-3.098,0.248-6.215,0.248-9.354c0-3.021-0.077-6.024-0.228-9.007
		c-0.894-0.275-1.841-0.424-2.824-0.424H290.365z"/>
	<path style="fill:#FBD696;" d="M271.716,414.124c-2.204,0-4.419-0.755-6.228-2.298l-29.17-24.898l-32.723,24.051
		c-4.273,3.14-10.281,2.222-13.421-2.051c-3.14-4.272-2.222-10.281,2.051-13.421l38.855-28.558c3.592-2.642,8.528-2.46,11.919,0.433
		l34.958,29.838c4.032,3.442,4.511,9.504,1.07,13.536C277.125,412.981,274.429,414.124,271.716,414.124z"/>
	<path style="fill:#FBD696;" d="M337.797,188.843c-14.071-6.36-27.481-13.905-40.827-21.59
		c-27.571-8.462-53.932-20.934-78.702-35.779c-2.29-0.818-4.461-1.859-6.472-3.131c-7.344,14.816-11.479,31.503-11.479,49.16
		c0,61.22,49.629,110.85,110.848,110.85c46.486,0,86.281-28.618,102.748-69.195C388.228,209.862,362.697,200.098,337.797,188.843z"
		/>
</g>
<path style="fill:#FFC5E5;" d="M450.056,154.464c-9.121,62.136-63.467,109.571-128.536,107.799
	c-68.519-1.865-123.414-58.875-122.825-127.417C199.29,65.574,255.632,9.601,325.045,9.601c6.822,0,13.515,0.54,20.044,1.581
	l-20.044,124.775L433.652,71.34c5.636,9.454,10.073,19.705,13.102,30.543c0,0,5.968,36.472,3.984,48.38L450.056,154.464z"/>
<path style="fill:#826075;" d="M414.172,225.495l-89.125-89.538l-65.38,108.022c18.135,11.051,39.253,17.669,61.855,18.285
	C357.701,263.248,390.552,249.005,414.172,225.495z"/>
<path style="fill:#6BE8C7;" d="M433.297,70.629l-0.856,0.178l-107.324,65.126l88.936,89.673
	c15.127-14.912,26.969-34.405,32.941-56.219C456.551,134.469,450.523,99.165,433.297,70.629z"/>
<path d="M452.896,142.145c-5.264-0.641-10.057,3.084-10.711,8.346c-2.88,23.216-12.535,44.143-26.808,60.938l-73.535-73.535
	l89.414-53.197c3.107,6.347,5.627,12.966,7.53,19.77c1.427,5.106,6.723,8.09,11.831,6.663c5.106-1.427,8.089-6.724,6.663-11.831
	c-3.221-11.52-7.965-22.582-14.104-32.877c-2.714-4.553-8.604-6.041-13.154-3.333l-90.961,54.118l16.787-104.503
	c0.403-2.517-0.209-5.09-1.704-7.153c-1.494-2.065-3.748-3.45-6.266-3.851c-7.078-1.129-14.33-1.7-21.553-1.7
	C251.359,0,190.37,60.99,190.37,135.955s60.99,135.957,135.955,135.957c68.493,0,126.494-51.183,134.917-119.057
	C461.894,147.593,458.158,142.799,452.896,142.145z M209.572,135.955c0-64.378,52.376-116.754,116.754-116.754
	c2.994,0,5.993,0.114,8.977,0.341l-18.158,113.032l-59.48,97.75C228.537,209.074,209.572,174.69,209.572,135.955z M274.051,240.333
	l54.124-88.948l73.606,73.606c-20.47,17.335-46.89,27.721-75.456,27.721C307.544,252.71,289.787,248.246,274.051,240.333z"/>
<path d="M163.579,176.99c4.771-2.317,6.758-8.061,4.442-12.829c-2.316-4.768-8.062-6.76-12.829-4.442
	c-30.853,14.984-56.941,38.211-75.444,67.17c-19.013,29.756-29.062,64.233-29.062,99.703c0,102.235,83.175,185.41,185.41,185.41
	c102.236,0,185.411-83.175,185.411-185.41c0-13.711-1.505-27.389-4.473-40.654c-1.159-5.174-6.288-8.431-11.466-7.274
	c-5.174,1.158-8.431,6.292-7.274,11.466c1.969,8.793,3.213,17.792,3.732,26.859H289.108c-5.303,0-9.601,4.297-9.601,9.601
	s4.297,9.601,9.601,9.601H402.02c-4.991,87.197-77.5,156.607-165.925,156.607S75.162,423.388,70.171,336.191H179.62
	c5.303,0,9.601-4.297,9.601-9.601s-4.297-9.601-9.601-9.601H70.186c1.626-28.394,10.426-55.792,25.742-79.764
	C112.522,211.255,135.916,190.426,163.579,176.99z"/>
<path d="M204.874,410.979l32.723-24.051l29.17,24.898c1.809,1.543,4.025,2.298,6.228,2.298c2.713,0,5.41-1.143,7.308-3.368
	c3.441-4.032,2.962-10.094-1.07-13.536l-34.958-29.838c-3.39-2.893-8.328-3.075-11.919-0.433L193.5,395.508
	c-4.273,3.14-5.191,9.149-2.051,13.421C194.593,413.201,200.601,414.119,204.874,410.979z"/>
<g>
</g>
<g>
</g>
<g>
</g>
<g>
</g>
<g>
</g>
<g>
</g>
<g>
</g>
<g>
</g>
<g>
</g>
<g>
</g>
<g>
</g>
<g>
</g>
<g>
</g>
<g>
</g>
<g>
</g>
</svg>
