<?xml version="1.0" encoding="iso-8859-1"?>
<!-- Generator: Adobe Illustrator 19.0.0, SVG Export Plug-In . SVG Version: 6.00 Build 0)  -->
<svg version="1.1" id="Layer_1" xmlns="http://www.w3.org/2000/svg" xmlns:xlink="http://www.w3.org/1999/xlink" x="0px" y="0px"
	 viewBox="0 0 512.001 512.001" style="enable-background:new 0 0 512.001 512.001;" xml:space="preserve">
<circle style="fill:#FFDEF2;" cx="262.671" cy="256.198" r="235.611"/>
<path style="fill:#97EFFF;" d="M265.639,20.63l-1.82-0.045v64.48l-44.647,204.987l182.777,78.111l48.531,30.313
	c29.995-39.533,47.806-88.819,47.806-142.272C498.287,127.07,394.396,22.219,265.639,20.63z"/>
<circle style="fill:#A0758E;" cx="262.671" cy="256.198" r="184.142"/>
<circle style="fill:#FFDEF2;" cx="262.671" cy="256.198" r="142.968"/>
<path style="fill:#6BE8C7;" d="M138.006,186.191c-11.647,20.694-18.298,44.575-18.298,70.012
	c0,78.959,64.008,142.968,142.968,142.968c0.374,0,0.745-0.011,1.119-0.015l0.025-0.184v-44.407l14.628-82.507l-66.971-80.016
	L138.006,186.191z"/>
<path style="fill:#FEA8D6;" d="M372.573,164.762c-26.225-31.484-65.719-51.527-109.897-51.527
	c-72.474,0-132.344,53.929-141.691,123.845l3.299,0.822l39.578,5.394l108.498,7.451l65.803-58.595l33.168-26.306L372.573,164.762z"
	/>
<circle style="fill:#A0758E;" cx="262.671" cy="256.198" r="94.93"/>
<circle style="fill:#FFC5E5;" cx="262.671" cy="256.198" r="52.635"/>
<path style="fill:#FFDEF2;" d="M239.801,213.884l-2.275-3.925c-16.372,8.923-27.482,26.285-27.482,46.244
	c0,16.509,7.607,31.236,19.5,40.885l3.395-4.286l30.881-36.6L239.801,213.884z"/>
<g>
	<circle style="fill:#60D8E8;" cx="482.281" cy="34.313" r="20.587"/>
	<circle style="fill:#60D8E8;" cx="38.505" cy="478.45" r="20.587"/>
</g>
<path d="M125.202,190.894c-9.734,20.495-14.668,42.307-14.668,64.831c0,31.886,10.362,63.646,29.176,89.428
	c2.793,3.828,8.162,4.664,11.985,1.873c3.827-2.793,4.665-8.159,1.873-11.985c-16.688-22.868-25.878-51.036-25.878-79.315
	c0-2.942,0.108-5.867,0.296-8.782l27.824,3.793c-0.08,1.686-0.125,3.381-0.125,5.086c0,55.686,43.072,101.499,97.65,105.881v28.067
	c-16.956-1.067-33.401-5.33-48.99-12.733c-6.206-2.947-12.211-6.379-17.849-10.199c-3.922-2.656-9.257-1.631-11.912,2.291
	c-2.657,3.923-1.632,9.256,2.291,11.913c6.357,4.306,13.122,8.172,20.11,11.491c20.495,9.733,42.306,14.668,64.831,14.668
	c28.229,0,55.861-7.874,79.911-22.77c24.705-15.3,44.379-37.321,56.899-63.683c9.734-20.495,14.668-42.307,14.668-64.83
	c0-28.229-7.874-55.861-22.768-79.911c-15.301-24.704-37.321-44.379-63.683-56.899c-20.495-9.733-42.306-14.668-64.831-14.668
	c-28.229,0-55.861,7.874-79.911,22.77C157.396,142.51,137.721,164.532,125.202,190.894z M172.841,255.822
	c0-49.115,39.958-89.072,89.072-89.072s89.072,39.958,89.072,89.072s-39.958,89.072-89.072,89.072S172.841,304.937,172.841,255.822z
	 M396.138,255.919c0,19.957-4.377,39.293-13.009,57.47c-11.102,23.376-28.542,42.899-50.436,56.458
	c-18.864,11.682-40.208,18.486-62.202,19.908v-28.053c54.578-4.383,97.65-50.194,97.65-105.881c0-23.266-7.525-44.804-20.259-62.322
	l21.969-17.423c2.139,2.901,4.179,5.883,6.088,8.965C389.153,206.376,396.138,230.886,396.138,255.919z M262.012,121.597
	c19.957,0,39.293,4.377,57.47,13.01c14.842,7.049,28.123,16.661,39.318,28.337l-22.09,17.52
	c-19.213-19.071-45.651-30.872-74.796-30.872c-50.997,0-93.71,36.125-103.909,84.127l-27.811-3.79
	c2.141-10.862,5.65-21.452,10.505-31.676c11.102-23.376,28.542-42.899,50.436-56.458
	C212.469,128.582,236.977,121.597,262.012,121.597z"/>
<path d="M324.005,255.822c0-2.186-0.116-4.392-0.343-6.557c-0.496-4.711-4.709-8.133-9.428-7.634
	c-4.711,0.495-8.129,4.716-7.634,9.428c0.166,1.573,0.249,3.176,0.249,4.765c0,24.777-20.158,44.935-44.935,44.935
	c-7.939,0-15.397-2.077-21.876-5.705l28.432-33.698c2.315-2.745,2.676-6.643,0.904-9.766l-21.767-38.352
	c4.497-1.515,9.305-2.349,14.307-2.349c12.002,0,23.285,4.673,31.772,13.16c3.351,3.35,8.782,3.35,12.132,0
	c3.35-3.35,3.35-8.782,0-12.131c-11.728-11.727-27.319-18.185-43.905-18.185c-34.238,0-62.091,27.855-62.091,62.091
	s27.855,62.091,62.091,62.091S324.005,290.059,324.005,255.822z M216.978,255.822c0-13.629,6.108-25.851,15.72-34.098l18.807,33.134
	l-24.572,29.122C220.712,276.27,216.978,266.476,216.978,255.822z"/>
<path d="M427.377,78.486c-45.046-42.047-103.809-65.205-165.464-65.205c-119.854,0-219.665,87.391-239.099,201.795
	c-0.03,0.172-0.057,0.344-0.086,0.517c-2.195,13.089-3.355,26.524-3.355,40.229c0,133.738,108.803,242.54,242.54,242.54
	c55.543,0,109.828-19.255,152.854-54.218c42.408-34.462,72.226-82.657,83.962-135.707c1.024-4.625-1.897-9.205-6.523-10.228
	c-4.636-1.031-9.206,1.897-10.228,6.523c-6.701,30.292-19.762,58.879-37.977,83.852l-24.558-18.815
	c23.244-32.046,36.974-71.421,36.974-113.947c0-104.374-82.641-189.797-185.925-194.303V30.614
	c54.147,2.037,105.415,23.297,145.18,60.414c41.653,38.88,66.875,91.475,71.018,148.095c0.347,4.725,4.437,8.272,9.182,7.93
	c4.725-0.345,8.274-4.456,7.93-9.181C499.338,176.928,472.198,120.324,427.377,78.486z M433.374,402.055
	c-8.879,10.421-18.717,20.072-29.426,28.774c-39.976,32.486-90.418,50.376-142.034,50.376
	c-124.277,0-225.384-101.107-225.384-225.384c0-121.403,96.491-220.678,216.806-225.205v30.902
	C150.052,66.024,67.41,151.447,67.41,255.821c0,107.25,87.254,194.503,194.503,194.503c58.57,0,111.174-26.023,146.863-67.115
	L433.374,402.055z M439.26,255.822c0,97.79-79.557,177.347-177.347,177.347S84.566,353.611,84.566,255.822
	S164.123,78.475,261.913,78.475S439.26,158.032,439.26,255.822z"/>
<path d="M8.578,22.499h56.043c4.739,0,8.578-3.841,8.578-8.578s-3.84-8.578-8.578-8.578H8.578C3.84,5.343,0,9.184,0,13.921
	S3.84,22.499,8.578,22.499z"/>
<path d="M8.578,62.53h56.043c4.739,0,8.578-3.841,8.578-8.578s-3.84-8.578-8.578-8.578H8.578C3.84,45.374,0,49.214,0,53.952
	S3.84,62.53,8.578,62.53z"/>
<path d="M480.38,4.771c-16.082,0-29.165,13.083-29.165,29.165s13.083,29.165,29.165,29.165c16.082,0,29.165-13.083,29.165-29.165
	S496.461,4.771,480.38,4.771z M480.38,45.946c-6.622,0-12.009-5.387-12.009-12.009s5.387-12.009,12.009-12.009
	c6.622,0,12.009,5.387,12.009,12.009S487.002,45.946,480.38,45.946z"/>
<path d="M36.6,448.899c-16.082,0-29.165,13.083-29.165,29.165c0,16.082,13.083,29.165,29.165,29.165s29.165-13.083,29.165-29.165
	C65.765,461.982,52.682,448.899,36.6,448.899z M36.6,490.074c-6.622,0-12.009-5.387-12.009-12.009
	c0-6.622,5.387-12.009,12.009-12.009s12.009,5.387,12.009,12.009C48.609,484.687,43.222,490.074,36.6,490.074z"/>
<path d="M497.356,456.03l-25.873,25.873l-8.078-8.078c-3.35-3.35-8.782-3.351-12.13,0c-3.351,3.35-3.351,8.78-0.001,12.13
	l14.143,14.145c1.609,1.609,3.79,2.513,6.066,2.513s4.456-0.904,6.066-2.513l31.939-31.938c3.35-3.35,3.35-8.782,0-12.13
	C506.136,452.68,500.706,452.679,497.356,456.03z"/>
<g>
</g>
<g>
</g>
<g>
</g>
<g>
</g>
<g>
</g>
<g>
</g>
<g>
</g>
<g>
</g>
<g>
</g>
<g>
</g>
<g>
</g>
<g>
</g>
<g>
</g>
<g>
</g>
<g>
</g>
</svg>
