<?xml version="1.0" encoding="iso-8859-1"?>
<!-- Generator: Adobe Illustrator 19.0.0, SVG Export Plug-In . SVG Version: 6.00 Build 0)  -->
<svg version="1.1" id="Layer_1" xmlns="http://www.w3.org/2000/svg" xmlns:xlink="http://www.w3.org/1999/xlink" x="0px" y="0px"
	 viewBox="0 0 512.1 512.1" style="enable-background:new 0 0 512.1 512.1;" xml:space="preserve">
<path style="fill:#A0758E;" d="M491.7,238.1v194.6c0,7.1-5.8,13-13,13H35.5c-7.1,0-13-5.8-13-13V238.1H491.7z"/>
<g>
	<path style="fill:#CA98B3;" d="M113.7,441.9c0-47.4-38.4-85.8-85.8-85.8c-1.2,0-4.2,0-5.4,0.1v7.4v69.1c0,7.1,5.8,13,13,13h78.3
		L113.7,441.9z"/>
	<path style="fill:#CA98B3;" d="M490,356.1c-47.4,0-85.8,38.4-85.8,85.8l-0.1,3.8h74.7c7.1,0,13-5.8,13-13v-76.5L490,356.1z"/>
</g>
<g>
	<path style="fill:#826075;" d="M243.6,368.9l-221-84.1c0.9-8.8-0.7-112.8,0-120.4h469.2v120.4L272,368.9
		C262.9,372.4,252.7,372.4,243.6,368.9z"/>
</g>
<path style="fill:#6BE8C7;" d="M234.7,341.1v29.1c0,11.8,9.6,19.4,21.4,19.4l0,0c11.8,0,21.4-7.6,21.4-19.4v-30.8L234.7,341.1z"/>
<path style="fill:#CA98B3;" d="M243.6,349.7l-222-84.1c-7.2-2.7-12-9.7-12-17.4v-89.4c0-7.5,6.1-13.6,13.6-13.6h467.9
	c7.5,0,13.6,6.1,13.6,13.6v89.4c0,7.7-4.8,14.6-12,17.4L272,349.7C262.9,353.2,252.7,353.2,243.6,349.7z"/>
<path style="fill:#FFEFCA;" d="M80.9,211.6L80.9,211.6c-13.1,0-23.8-10.6-23.8-23.8v-43.6h47.5v43.6
	C104.7,200.9,94,211.6,80.9,211.6z"/>
<path id="SVGCleanerId_0" style="fill:#FFEFCA;" d="M433.4,211.6L433.4,211.6c-13.1,0-23.8-10.6-23.8-23.8v-43.6h47.5v43.6
	C457.1,200.9,446.5,211.6,433.4,211.6z"/>
<g>
	<path id="SVGCleanerId_0_1_" style="fill:#FFEFCA;" d="M433.4,211.6L433.4,211.6c-13.1,0-23.8-10.6-23.8-23.8v-43.6h47.5v43.6
		C457.1,200.9,446.5,211.6,433.4,211.6z"/>
</g>
<path style="fill:#826075;" d="M465,287.2v158.5h13.9c7.2,0,13.1-5.9,13.1-13.1l-0.1-160.4C491.9,272.2,465.5,287.7,465,287.2z"/>
<path style="fill:#D3AEC3;" d="M30.2,145.2v124l-9.4-3.6C14,263,9.5,256.5,9.5,249.3v-89.8c0-8.1,6.6-14.6,14.6-14.4L30.2,145.2z"/>
<path d="M490.6,305.9c-4.7,0-8.5,3.8-8.5,8.5v32.4c-47.3,3.3-85.1,41.7-87.5,89.3H121c-2.4-48.8-42.1-87.9-91.1-89.5v-32.2
	c0-4.7-3.8-8.5-8.5-8.5s-8.5,3.8-8.5,8.5v117.1c0,11.8,9.6,21.5,21.5,21.5h443.2c11.8,0,21.5-9.6,21.5-21.5V314.4
	C499.1,309.7,495.3,305.9,490.6,305.9z M29.9,431.5v-68c39.7,1.6,71.7,33.1,74.1,72.5H34.4C31.9,436,29.9,434,29.9,431.5z
	 M477.6,436h-66c2.3-38.2,32.5-69,70.5-72.3v67.8C482.1,434,480.1,436,477.6,436z"/>
<path d="M490,135.6H22c-12.2,0-22,9.9-22,22v102.2c0,3.5,2.2,6.7,5.5,7.9l220.6,83.6v37.1c0,4.7,3.8,8.5,8.5,8.5h42.9
	c4.7,0,8.5-3.8,8.5-8.5v-36.6l220.6-84.1c3.3-1.3,5.5-4.4,5.5-7.9V157.6C512,145.5,502.1,135.6,490,135.6z M447.5,153.9V189
	c0,8.4-6.9,15.3-15.3,15.3s-15.3-6.9-15.3-15.3v-35.1H447.5z M95,153.9V189c0,8.4-6.9,15.3-15.3,15.3s-15.3-6.9-15.3-15.3v-35.1H95z
	 M269,380h-26v-22.2l10.6,4c1,0.4,2,0.6,3,0.6s2-0.2,3-0.6l9.3-3.5V380H269z M495,254l-238.4,90.9L17,254v-96.4
	c0-2.8,2.3-5.1,5.1-5.1h25.5V189c0,17.8,14.5,32.2,32.2,32.2S112,206.7,112,189v-36.4h288V189c0,17.8,14.5,32.2,32.2,32.2
	s32.2-14.5,32.2-32.2v-36.4H490c2.8,0,5.1,2.3,5.1,5.1L495,254L495,254z"/>
<path d="M186,119.2c4.7,0,8.5-3.8,8.5-8.5V81.1c0-2.8,2.3-5.1,5.1-5.1h112.8c2.8,0,5.1,2.3,5.1,5.1v29.6c0,4.7,3.8,8.5,8.5,8.5
	s8.5-3.8,8.5-8.5V81.1c0-12.2-9.9-22-22-22H199.6c-12.2,0-22,9.9-22,22v29.6C177.6,115.4,181.4,119.2,186,119.2z"/>
<g>
</g>
<g>
</g>
<g>
</g>
<g>
</g>
<g>
</g>
<g>
</g>
<g>
</g>
<g>
</g>
<g>
</g>
<g>
</g>
<g>
</g>
<g>
</g>
<g>
</g>
<g>
</g>
<g>
</g>
</svg>
