<?xml version="1.0" encoding="utf-8"?>
<!-- Generator: Adobe Illustrator 16.0.0, SVG Export Plug-In . SVG Version: 6.00 Build 0)  -->
<!DOCTYPE svg PUBLIC "-//W3C//DTD SVG 1.0//EN" "http://www.w3.org/TR/2001/REC-SVG-20010904/DTD/svg10.dtd">
<svg version="1.0" id="Layer_1" xmlns="http://www.w3.org/2000/svg" xmlns:xlink="http://www.w3.org/1999/xlink" x="0px" y="0px"
	 width="100px" height="100px" viewBox="0 0 100 100" enable-background="new 0 0 100 100" xml:space="preserve">
<circle fill="#E0F7FA" cx="46.753" cy="53.246" r="32.468"/>
<path fill="#00B8D4" d="M50.434,34.125c-1.192-0.229-2.418-0.358-3.68-0.358c-10.769,0-19.48,8.713-19.48,19.48
	c0,10.768,8.711,19.48,19.48,19.48c10.769,0,19.48-8.713,19.48-19.48c0-1.262-0.13-2.491-0.357-3.685h-6.728
	c0.348,1.175,0.592,2.396,0.592,3.685c0,7.178-5.81,12.986-12.987,12.986c-7.179,0-12.987-5.809-12.987-12.986
	S39.575,40.26,46.753,40.26c1.287,0,2.504,0.244,3.68,0.593V34.125z"/>
<path fill="#00B8D4" d="M49.601,27.437c-0.935-0.104-1.883-0.164-2.847-0.164c-14.355,0-25.973,11.617-25.973,25.974
	c0,14.355,11.618,25.973,25.973,25.973c14.356,0,25.973-11.617,25.973-25.973c0-0.965-0.061-1.916-0.165-2.853l5.53-5.527
	c0.712,2.677,1.129,5.476,1.129,8.38c0,17.945-14.521,32.466-32.467,32.466c-17.945,0-32.468-14.521-32.468-32.466
	c0-17.946,14.522-32.467,32.468-32.467c2.904,0,5.701,0.416,8.377,1.128L49.601,27.437z"/>
<path fill="#212121" d="M70.704,43.07l15.01-15.008h-9.185l5.938-5.94l-4.59-4.588l-5.941,5.938v-9.185L56.927,29.294v9.187
	l-8.512,8.514c-0.533-0.142-1.084-0.241-1.661-0.241c-3.59,0-6.493,2.904-6.493,6.494s2.903,6.493,6.493,6.493
	c3.589,0,6.494-2.903,6.494-6.493c0-0.58-0.099-1.128-0.241-1.662l8.516-8.515H70.704z"/>
</svg>
