<?xml version="1.0" encoding="iso-8859-1"?>
<!-- Generator: Adobe Illustrator 19.0.0, SVG Export Plug-In . SVG Version: 6.00 Build 0)  -->
<svg version="1.1" id="Layer_1" xmlns="http://www.w3.org/2000/svg" xmlns:xlink="http://www.w3.org/1999/xlink" x="0px" y="0px"
	 viewBox="0 0 512.001 512.001" style="enable-background:new 0 0 512.001 512.001;" xml:space="preserve">
<circle style="fill:#EBF9FE;" cx="257.603" cy="265.253" r="239.218"/>
<g>
	<path style="fill:#BED8E4;" d="M202.084,95.413V10.715c0-4.492,3.437-8.133,7.68-8.133h92.517c4.241,0,7.68,3.641,7.68,8.133
		v84.698c0,4.492-3.437,8.133-7.68,8.133h-92.517C205.521,103.546,202.084,99.905,202.084,95.413z"/>
	<path style="fill:#BED8E4;" d="M251.802,423.652l-45.971-61.012c-1.209-1.605-1.808-3.639-1.68-5.698l13.23-209.915
		c0.27-4.296,3.599-7.634,7.613-7.634h65.485c4.014,0,7.343,3.337,7.613,7.634l13.23,209.915c0.13,2.058-0.47,4.093-1.68,5.698
		l-45.971,61.012c-1.448,1.923-3.63,3.04-5.936,3.04S253.252,425.575,251.802,423.652z"/>
	<path style="fill:#BED8E4;" d="M353.894,154.931h50.174c4.688,0,8.488,3.801,8.488,8.488v46.817c0,4.688-3.801,8.488-8.488,8.488
		h-50.174c-4.688,0-8.488-3.801-8.488-8.488v-46.817C345.406,158.731,349.206,154.931,353.894,154.931z"/>
</g>
<g>
	<path style="fill:#D3E8F1;" d="M256.577,37.507L293.753,2.08h12.697c4.529,0,8.625,3.272,8.625,7.682v83.165
		c0,4.41-4.095,7.986-8.625,7.986h-98.792c-4.53,0-8.199-3.575-8.199-7.986V9.762c0-4.41,3.671-7.682,8.199-7.682h14.549
		L256.577,37.507z"/>
	<path style="fill:#D3E8F1;" d="M257.057,166.455h-41.774l1.396-22.438c0.266-4.276,3.636-7.601,7.704-7.601h66.245
		c4.068,0,7.438,3.325,7.704,7.601l13.608,214.221c0.126,2.039-0.48,4.055-1.699,5.645l-46.731,61.478
		c-1.466,1.911-3.672,3.02-6.005,3.02L257.057,166.455z"/>
</g>
<path d="M318.1,8.76c0-4.839-3.921-8.76-8.76-8.76H203.801c-4.839,0-8.76,3.921-8.76,8.76v91.229c0,4.839,3.921,8.76,8.76,8.76
	H309.34c4.839,0,8.76-3.921,8.76-8.76V8.76z M300.58,91.229h-88.019V17.52h88.019V91.229z"/>
<path d="M285.95,148.104l7.557,115.283c0.317,4.829,4.525,8.481,9.315,8.169c4.829-0.317,8.486-4.487,8.169-9.315l-8.094-123.471
	c-0.302-4.605-4.125-8.188-8.741-8.188h-75.169c-4.608,0-8.429,3.572-8.74,8.169l-15.185,224.642
	c-0.148,2.203,0.54,4.38,1.927,6.098l52.77,65.291c1.663,2.058,4.166,3.253,6.813,3.253c2.647,0,5.15-1.195,6.813-3.253
	l52.77-65.291c1.403-1.737,2.091-3.944,1.923-6.169l-3.366-44.337c-0.366-4.825-4.58-8.436-9.398-8.072
	c-4.825,0.366-8.439,4.574-8.072,9.398l3.102,40.872l-43.773,54.159l-43.798-54.191l14.4-213.046h58.777V148.104z"/>
<path d="M335.15,226.717c1.647,1.68,3.902,2.628,6.256,2.628h70.547c4.839,0,8.76-3.921,8.76-8.76v-67.02
	c0-4.839-3.921-8.76-8.76-8.76h-13.332v-29.158c0-4.839-3.921-8.76-8.76-8.76c-4.839,0-8.76,3.921-8.76,8.76v29.159h-10.699V96.246
	c0-4.839-3.921-8.76-8.76-8.76c-4.839,0-8.76,3.921-8.76,8.76v48.56h-11.476c-3.543,0-6.738,2.134-8.093,5.408
	c-0.763,1.84-0.86,3.836-0.354,5.676c0.509,5.523,0.25,36.651-0.312,64.518C332.601,222.763,333.503,225.036,335.15,226.717z
	 M350.663,187.659c0.096-9.69,0.118-17.478,0.062-23.149c-0.008-0.765-0.015-1.493-0.023-2.184h52.492v49.5h-52.867
	C350.435,205.492,350.573,196.569,350.663,187.659z"/>
<path d="M466.093,128.902c-24.862-38.914-59.916-70.127-101.371-90.263c-4.355-2.115-9.595-0.3-11.707,4.052
	c-2.114,4.353-0.3,9.594,4.052,11.707c38.546,18.723,71.142,47.749,94.263,83.937c23.74,37.158,36.289,80.218,36.289,124.528
	c0,127.715-103.904,231.618-231.619,231.618S24.382,390.577,24.382,262.863c0-45.007,12.918-88.641,37.356-126.184
	c23.82-36.592,57.286-65.633,96.779-83.984c4.388-2.038,6.292-7.249,4.254-11.636c-2.038-4.388-7.249-6.291-11.636-4.254
	c-42.477,19.736-78.467,50.967-104.081,90.314C20.76,167.516,6.862,214.454,6.862,262.863
	c0,137.374,111.764,249.138,249.138,249.138c137.376,0,249.139-111.764,249.139-249.138
	C505.138,215.204,491.637,168.881,466.093,128.902z"/>
<g>
</g>
<g>
</g>
<g>
</g>
<g>
</g>
<g>
</g>
<g>
</g>
<g>
</g>
<g>
</g>
<g>
</g>
<g>
</g>
<g>
</g>
<g>
</g>
<g>
</g>
<g>
</g>
<g>
</g>
</svg>
