<?xml version="1.0" encoding="iso-8859-1"?>
<!-- Generator: Adobe Illustrator 19.0.0, SVG Export Plug-In . SVG Version: 6.00 Build 0)  -->
<svg version="1.1" id="Layer_1" xmlns="http://www.w3.org/2000/svg" xmlns:xlink="http://www.w3.org/1999/xlink" x="0px" y="0px"
	 viewBox="0 0 512 512" style="enable-background:new 0 0 512 512;" xml:space="preserve">
<path style="fill:#FFC5E5;" d="M242.109,33.151c-128.821,0-233.25,104.43-233.25,233.25c0,128.822,104.429,233.25,233.25,233.25
	s233.25-104.429,233.25-233.25S370.929,33.151,242.109,33.151z M242.109,358.305c-50.757,0-91.904-41.146-91.904-91.904
	c0-50.757,41.147-91.904,91.904-91.904s91.904,41.147,91.904,91.904S292.865,358.305,242.109,358.305z"/>
<g>
	<path style="fill:#826075;" d="M328.564,49.71l-52.041,131.474c28.218,11.407,49.485,36.399,55.657,66.886l131.333-55.22
		C441.832,127.556,392.084,75.075,328.564,49.71z"/>
	<path style="fill:#826075;" d="M385.865,450.092l-88.151-110.531c-15.441,11.754-34.703,18.742-55.605,18.742
		c-8.361,0-16.453-1.138-24.151-3.228l-16.645,141.014c13.246,2.336,26.878,3.561,40.795,3.561
		C296.342,499.651,346.25,481.139,385.865,450.092z"/>
	<path style="fill:#826075;" d="M150.205,266.4c0-25.922,10.749-49.321,28.012-66.029L72.106,106.719
		C32.891,148.452,8.859,204.616,8.859,266.4c0,7.723,0.385,15.353,1.118,22.884l140.886-12.039
		C150.445,273.686,150.205,270.073,150.205,266.4z"/>
</g>
<path style="fill:#FF97CB;" d="M381.234,446.749l1.358-1.308c0.435,0.363,1.807,1.907,3.845,4.293
	c54.444-42.555,90.084-108.223,90.084-182.604c0-25.367-4.065-49.779-11.551-72.643l-38.308,14.672
	C445.243,286.533,442.02,375.426,381.234,446.749z"/>
<g>
	<path style="fill:#684C5F;" d="M358.618,64.363c11.872,19.298,37.342,66.003,40.326,73.163
		c17.922,38.143,27.573,71.69,27.573,71.69l0.143-0.055l38.308-14.672C446.818,139.061,408.473,92.785,358.618,64.363z"/>
	<path style="fill:#684C5F;" d="M382.59,445.441l-1.358,1.308l-22.535,21.707c9.688-5.599,18.958-11.858,27.737-18.721
		C384.398,447.348,383.025,445.803,382.59,445.441z"/>
</g>
<path d="M340.317,481.962c2.139,4.32,7.371,6.088,11.691,3.95c50.324-24.914,90.183-66.154,113.424-116.977
	c0.012,0.005,0.023,0.009,0.035,0.013c3.99,1.148,7.89,1.717,11.642,1.717c8.877,0,16.918-3.177,23.33-9.357
	c9.666-9.315,13.753-24.021,10.414-37.466c-3.119-12.564-12.248-21.881-25.046-25.563c-0.033-0.009-0.065-0.014-0.098-0.023
	c5.568-43.15-0.586-87.155-18.401-128.083C441.319,110.466,393.634,64.455,333.04,40.613
	c-36.685-14.433-75.444-19.678-113.567-15.815c-3.866-11.428-11.802-19.404-22.706-22.642c-12.867-3.821-27.678-0.131-37.734,9.398
	c-8.699,8.244-12.427,19.601-10.473,31.519c-0.69,0.293-1.383,0.572-2.072,0.873C86.782,69.933,40.771,117.617,16.931,178.212
	c-28.26,71.827-19.929,149.16,15.962,211.317c-10.19,8.572-14.83,19.873-13.051,31.98c1.951,13.28,11.533,25.162,24.41,30.27
	c4.296,1.704,8.701,2.546,13.066,2.546c7.533,0,14.936-2.532,21.451-7.42c21.508,19.824,46.948,36.083,75.759,47.419
	c28.756,11.314,58.562,17.008,88.894,17.008c7.523,0,15.085-0.351,22.662-1.053c4.799-0.444,8.328-4.694,7.883-9.492
	c-0.444-4.798-4.709-8.343-9.492-7.883c-17.791,1.647-35.441,1.203-52.829-1.308l14.377-120.671c0.009-0.073,0.008-0.147,0.015-0.22
	c5.879,1.009,11.784,1.529,17.658,1.529c19.549,0,38.728-5.485,55.278-15.707l76.492,95.047
	c-9.818,7.012-20.242,13.273-31.202,18.699C339.946,472.41,338.179,477.644,340.317,481.962z M493.916,328.046
	c1.807,7.274-0.492,15.784-5.588,20.695c-4.114,3.965-9.667,5.292-16.143,3.903c4.536-12.145,8.082-24.504,10.626-36.981
	C490.072,318.418,492.869,323.827,493.916,328.046z M451.306,177.136c1.301,2.988,2.521,5.997,3.688,9.019l-112.109,47.264
	c-2.942-8.546-6.998-16.731-12.117-24.366c-10.265-15.31-24.214-27.47-40.664-35.555l44.237-113.441
	C386.937,82.965,428.29,124.259,451.306,177.136z M171.037,24.219c5.44-5.155,13.981-7.348,20.762-5.334
	c4.314,1.281,7.642,4.15,9.833,8.396c-12.185,2.162-24.26,5.267-36.136,9.315C165.588,30.781,168.371,26.745,171.037,24.219z
	 M318.091,53.7L273.86,167.128c-23.712-7.149-48.927-5.719-71.89,4.277c-8.691,3.782-16.685,8.658-23.883,14.433l-92.455-80.256
	C145.402,47.357,235.038,24.785,318.091,53.7z M33.169,184.601c9.832-24.99,23.653-47.248,40.435-66.35l91.772,79.664
	c-8.039,9.073-14.517,19.576-19.088,31.193c-5.15,13.092-7.578,26.797-7.306,40.451l-121.409,8.212
	C16.132,246.368,21.315,214.731,33.169,184.601z M50.687,435.558c-6.966-2.764-12.551-9.584-13.58-16.587
	c-0.77-5.242,1.027-10.173,5.199-14.419c7.132,10.515,15.101,20.5,23.858,29.847C60.102,437.944,54.505,437.07,50.687,435.558z
	 M208.696,368.857l-14.242,119.544c-11.32-2.552-22.513-5.982-33.536-10.318C104.66,455.949,60.389,413.231,36.262,357.8
	c-8.815-20.252-14.542-41.318-17.2-62.641l121.768-8.236c1.451,7.598,3.728,15.094,6.891,22.359
	c11.17,25.66,31.662,45.434,57.705,55.68c1.308,0.514,2.622,0.984,3.938,1.443C209.031,367.167,208.799,367.989,208.696,368.857z
	 M313.014,346.133c7.282-6.398,13.764-13.888,19.167-22.393c2.584-4.068,1.381-9.461-2.687-12.045
	c-4.066-2.583-9.46-1.382-12.045,2.687c-22.35,35.188-66.778,49.631-105.635,34.341c-21.704-8.539-38.783-25.02-48.093-46.406
	c-9.31-21.386-9.733-45.117-1.194-66.821s25.02-38.784,46.406-48.093c21.386-9.308,45.115-9.732,66.82-1.192
	c33.554,13.201,55.289,45.026,55.374,81.077c0.012,4.813,3.915,8.705,8.725,8.705c0.007,0,0.014,0,0.021,0
	c4.82-0.012,8.716-3.926,8.705-8.746c-0.013-5.631-0.491-11.212-1.39-16.704l113.486-47.845
	c14.552,48.379,12.507,99.898-6.277,147.634c-13.963,35.493-36.428,66.481-65.136,90.544L313.014,346.133z"/>
<g>
</g>
<g>
</g>
<g>
</g>
<g>
</g>
<g>
</g>
<g>
</g>
<g>
</g>
<g>
</g>
<g>
</g>
<g>
</g>
<g>
</g>
<g>
</g>
<g>
</g>
<g>
</g>
<g>
</g>
</svg>
