<?xml version="1.0" encoding="iso-8859-1"?>
<!-- Generator: Adobe Illustrator 19.0.0, SVG Export Plug-In . SVG Version: 6.00 Build 0)  -->
<svg xmlns="http://www.w3.org/2000/svg" xmlns:xlink="http://www.w3.org/1999/xlink" version="1.1" id="Layer_1" x="0px" y="0px" viewBox="0 0 512.001 512.001" style="enable-background:new 0 0 512.001 512.001;" xml:space="preserve">
<g>
	<path style="fill:#EFEFEF;" d="M241.943,155.846v70.493h190.311c38.932,0,70.493-31.561,70.493-70.493L241.943,155.846   L241.943,155.846z"/>
	<path style="fill:#EFEFEF;" d="M241.943,226.339v70.493h120.599c38.932,0,70.493-31.561,70.493-70.493H241.943z"/>
	<path style="fill:#EFEFEF;" d="M241.943,296.833v70.493h50.887c38.932,0,70.493-31.56,70.493-70.493l0,0H241.943z"/>
</g>
<g>
	<path style="fill:#E0E0E3;" d="M502.749,155.853c0,38.918-31.567,70.486-70.502,70.486H241.943V192.38h190.304   c26.623,0,49.79-14.752,61.792-36.529h8.71V155.853z"/>
	<path style="fill:#E0E0E3;" d="M433.032,226.339c0,38.935-31.551,70.486-70.486,70.486H241.943v-33.958h120.603   c26.623,0,49.79-14.752,61.775-36.529h8.711V226.339z"/>
	<path style="fill:#E0E0E3;" d="M363.316,296.825c0,38.935-31.551,70.502-70.486,70.502h-50.888v-33.957h50.888   c26.623,0,49.79-14.753,61.775-36.544h8.71V296.825z"/>
</g>
<circle style="fill:#FFD527;" cx="157.132" cy="264.997" r="135.899"/>
<circle style="fill:#FFDF46;" cx="157.132" cy="264.997" r="115.493"/>
<circle style="fill:#EFC203;" cx="157.132" cy="264.997" r="92.588"/>
<circle style="fill:#FFD527;" cx="157.132" cy="264.997" r="69.819"/>
<path d="M512.001,155.846c0-5.111-4.142-9.253-9.253-9.253h-88.141c-5.111,0-9.253,4.142-9.253,9.253  c0,5.111,4.142,9.253,9.253,9.253h78.191c-4.474,29.393-29.921,51.987-60.543,51.987H294.16  c-6.864-19.573-17.803-37.245-31.805-51.987h116.325c5.111,0,9.253-4.142,9.253-9.253c0-5.111-4.142-9.253-9.253-9.253H241.944  c-0.289,0-0.576,0.017-0.858,0.044c-23.715-16.869-52.693-26.797-83.947-26.797c-80.04,0-145.157,65.117-145.157,145.157  c0,39.175,15.367,75.894,43.272,103.393c3.643,3.589,9.498,3.545,13.085-0.095c3.587-3.639,3.544-9.499-0.095-13.085  c-24.348-23.994-37.756-56.032-37.756-90.212c0-69.835,56.816-126.651,126.651-126.651S283.79,195.162,283.79,264.997  s-56.816,126.65-126.651,126.65c-20.465,0-39.992-4.726-58.04-14.05c-4.544-2.348-10.123-0.566-12.468,3.974  c-2.346,4.541-0.566,10.123,3.974,12.468c20.409,10.542,43.414,16.114,66.534,16.114c35.232,0,67.567-12.621,92.736-33.574h42.955  c41.046,0,74.936-31.172,79.267-71.085c36.645-4.398,65.722-33.727,69.712-70.494C481.29,230.26,512.001,196.582,512.001,155.846z   M292.829,358.073h-24.396c12.609-15.052,22.224-32.688,27.93-51.987h57.008C348.895,335.478,323.452,358.073,292.829,358.073z   M362.542,287.58h-62.006c1.155-7.361,1.76-14.903,1.76-22.584c0-10.071-1.033-19.905-2.995-29.403h123.783  C418.609,264.984,393.164,287.58,362.542,287.58z"/>
<path d="M77.391,289.293c-1.487-4.89-6.66-7.647-11.545-6.159c-4.889,1.487-7.647,6.657-6.159,11.545  c6.221,20.451,19.1,38.826,36.264,51.742c17.753,13.36,38.912,20.421,61.187,20.421c56.159,0,101.847-45.688,101.847-101.847  s-45.688-101.847-101.847-101.847c-24.628,0-48.399,8.909-66.935,25.083c-18.353,16.014-30.376,38.047-33.855,62.037  c-0.732,5.058,2.773,9.752,7.83,10.486c5.058,0.727,9.751-2.772,10.486-7.83c5.889-40.63,41.346-71.269,82.474-71.269  c45.955,0,83.341,37.386,83.341,83.341s-37.386,83.341-83.341,83.341C120.184,348.337,88.137,324.609,77.391,289.293z"/>
<path d="M162.571,285.597h-18.437c-0.501-4.638-4.427-8.249-9.199-8.249c-5.111,0-9.253,4.142-9.253,9.253  c0,9.651,7.851,17.502,17.502,17.502h4.153v9.444c0,5.111,4.142,9.253,9.253,9.253s9.253-4.142,9.253-9.253v-9.684  c12.201-1.61,21.656-12.053,21.656-24.686c0-13.746-11.181-24.928-24.928-24.928h-11.962c-3.541,0-6.422-2.881-6.422-6.421  c0-3.541,2.881-6.422,6.422-6.422h18.437c0.501,4.638,4.427,8.249,9.199,8.249c5.111,0,9.253-4.142,9.253-9.253  c0-9.651-7.851-17.502-17.504-17.502h-4.151v-9.444c0-5.111-4.142-9.253-9.253-9.253c-5.111,0-9.253,4.142-9.253,9.253v9.684  c-12.201,1.61-21.656,12.053-21.656,24.688c0,13.745,11.181,24.927,24.928,24.927h11.962c3.541,0,6.422,2.881,6.422,6.422  C168.992,282.716,166.112,285.597,162.571,285.597z"/>
<path d="M19.456,149.517c-3.358,3.851-2.958,9.697,0.894,13.055c1.753,1.529,3.919,2.278,6.077,2.278  c2.581,0,5.148-1.073,6.978-3.172c11.91-13.659,25.632-25.518,40.79-35.249c4.3-2.761,5.548-8.486,2.788-12.785  c-2.762-4.3-8.486-5.547-12.785-2.788C47.569,121.531,32.515,134.538,19.456,149.517z"/>
<path d="M16.227,143.201c11.911-13.659,25.636-25.52,40.792-35.25c4.3-2.762,5.548-8.486,2.788-12.785  c-2.763-4.3-8.487-5.546-12.785-2.788C30.393,103.054,15.339,116.062,2.28,131.04c-3.359,3.85-2.959,9.697,0.892,13.054  c1.753,1.53,3.919,2.28,6.077,2.28C11.831,146.374,14.398,145.299,16.227,143.201z"/>
<path d="M386.018,362.482c3.359-3.85,2.959-9.697-0.892-13.054c-3.849-3.36-9.697-2.96-13.054,0.892  c-11.911,13.659-25.636,25.52-40.792,35.25c-4.3,2.762-5.548,8.486-2.788,12.785c1.769,2.753,4.749,4.256,7.795,4.256  c1.712,0,3.443-0.474,4.99-1.467C357.906,390.468,372.959,377.46,386.018,362.482z"/>
<path d="M402.302,367.906c-3.85-3.36-9.697-2.961-13.054,0.892c-11.909,13.657-25.632,25.515-40.791,35.249  c-4.301,2.762-5.548,8.486-2.788,12.785c1.769,2.753,4.75,4.256,7.795,4.256c1.712,0,3.443-0.474,4.99-1.467  c16.631-10.679,31.683-23.686,44.739-38.66C406.554,377.109,406.154,371.264,402.302,367.906z"/>
<g>
</g>
<g>
</g>
<g>
</g>
<g>
</g>
<g>
</g>
<g>
</g>
<g>
</g>
<g>
</g>
<g>
</g>
<g>
</g>
<g>
</g>
<g>
</g>
<g>
</g>
<g>
</g>
<g>
</g>
</svg>
