<?xml version="1.0" encoding="iso-8859-1"?>
<!-- Generator: Adobe Illustrator 19.0.0, SVG Export Plug-In . SVG Version: 6.00 Build 0)  -->
<svg version="1.1" id="Layer_1" xmlns="http://www.w3.org/2000/svg" xmlns:xlink="http://www.w3.org/1999/xlink" x="0px" y="0px"
	 viewBox="0 0 511.999 511.999" style="enable-background:new 0 0 511.999 511.999;" xml:space="preserve">
<path style="fill:#FFDFA1;" d="M367.7,169.802c21.902-31.564,65.26-46.361,101.888-34.77c9.485,3.002,18.9,7.956,24.219,16.364
	c5.319,8.407,5.122,20.845-2.534,27.198c-8.663,7.188-21.58,3.862-32.218,0.179c8.818,3.813,18.369,5.363,22.646,13.58
	c1.177,2.262,1.974,4.704,2.398,7.213c2.393,14.172-11.738,25.853-24.925,20.136c-0.344-0.15-0.685-0.308-1.023-0.474
	c5.373,4.076,5.753,12.677,1.903,18.214c-3.85,5.538-10.822,8.234-17.558,8.542c-6.736,0.308-16.665-1.239-23.182-2.975"/>
<polygon style="fill:#FBD696;" points="441.77,247.727 383.556,239.055 363.439,174.321 385.104,145.874 "/>
<path style="fill:#FFDFA1;" d="M141.174,164.137c-24.294-29.762-68.673-41.136-104.287-26.726
	c-9.223,3.731-18.222,9.405-22.871,18.2s-3.483,21.181,4.645,26.918c9.197,6.492,21.815,2.169,32.134-2.332
	c-8.494,4.489-17.896,6.778-21.52,15.303c-0.997,2.347-1.602,4.844-1.829,7.378c-1.281,14.316,13.716,24.86,26.418,18.134
	c0.332-0.175,0.66-0.36,0.982-0.553c-5.04,4.482-4.748,13.086-0.478,18.308c4.269,5.22,11.43,7.366,18.17,7.147
	c6.741-0.218,16.518-2.534,22.88-4.772"/>
<polygon style="fill:#FBD696;" points="126.164,148.742 149.436,174.37 113.903,241.656 98.026,240.899 73.085,250.597 "/>
<polygon style="fill:#B0F6FF;" points="259.201,412.214 86.391,258.754 86.391,258.754 147.657,153.516 364.997,153.516 
	431.906,258.754 431.906,258.754 "/>
<polyline style="fill:#DCFDFF;" points="203.421,258.801 147.656,153.516 86.391,258.846 203.272,258.846 "/>
<g>
	<polygon style="fill:#6EE5F4;" points="314.877,258.846 259.201,153.492 203.419,258.846 	"/>
	<polyline style="fill:#6EE5F4;" points="314.876,258.801 364.997,153.516 431.906,258.846 315.169,258.846 	"/>
</g>
<g>
	<polygon style="fill:#60D8E8;" points="203.302,258.754 315.175,258.754 259.201,412.214 	"/>
	<polygon style="fill:#60D8E8;" points="259.192,153.516 314.943,258.754 364.997,153.516 	"/>
</g>
<polygon style="fill:#DCFDFF;" points="314.943,258.754 259.201,412.214 431.906,258.754 "/>
<path d="M478.478,123.889c-19.345-6.123-41.191-5.677-61.507,1.258c-16.359,5.582-30.925,15.104-42.02,27.303l-2.072-3.251
	c-1.483-2.325-4.049-3.733-6.805-3.733c-0.001,0-0.002,0-0.003,0l-217.339,0.073c-0.034,0-0.069,0.006-0.103,0.008
	c-0.28,0.003-0.559,0.023-0.84,0.056c-0.087,0.01-0.172,0.023-0.258,0.036c-0.249,0.037-0.497,0.087-0.743,0.148
	c-0.07,0.018-0.141,0.031-0.211,0.052c-0.307,0.085-0.612,0.186-0.912,0.31c-0.032,0.014-0.062,0.03-0.094,0.044
	c-0.209,0.089-0.416,0.182-0.621,0.29c-0.051,0.026-0.096,0.059-0.145,0.086c-0.079,0.044-0.155,0.093-0.232,0.14
	c-0.21,0.126-0.411,0.259-0.605,0.401c-0.066,0.048-0.131,0.095-0.195,0.145c-0.244,0.19-0.478,0.389-0.695,0.604
	c-0.006,0.008-0.014,0.013-0.02,0.019c-0.241,0.239-0.462,0.491-0.668,0.753c-0.027,0.036-0.052,0.072-0.079,0.108
	c-0.173,0.229-0.334,0.467-0.48,0.711c-0.02,0.032-0.045,0.062-0.065,0.096l-3.644,6.249
	c-12.302-12.311-28.352-21.407-46.067-25.948c-20.797-5.329-42.609-4.072-61.418,3.539c-12.997,5.258-22.075,12.629-26.979,21.909
	c-6.103,11.546-5.106,28.648,7.125,37.281c2.447,1.727,5.027,2.906,7.66,3.657c-1.207,2.962-1.967,6.117-2.258,9.38
	c-0.873,9.745,3.662,19.17,11.834,24.6c3.682,2.447,7.742,3.883,11.874,4.294c0.3,4.546,1.956,9.094,5.005,12.822
	c5.294,6.473,13.778,10.124,23.425,10.123c0.414,0,0.833-0.006,1.251-0.02c3.105-0.101,6.649-0.57,10.212-1.243
	c-0.022,0.068-0.04,0.137-0.059,0.204c-0.04,0.138-0.074,0.277-0.107,0.416c-0.024,0.1-0.048,0.199-0.068,0.3
	c-0.037,0.19-0.065,0.382-0.087,0.573c-0.006,0.055-0.017,0.11-0.023,0.164c-0.025,0.256-0.038,0.513-0.039,0.768
	c0,0.012-0.002,0.023-0.002,0.034c0,0.051,0.006,0.1,0.008,0.151c0.003,0.19,0.012,0.38,0.029,0.568
	c0.009,0.1,0.023,0.199,0.034,0.297c0.018,0.145,0.04,0.29,0.067,0.434c0.02,0.113,0.043,0.225,0.068,0.337
	c0.029,0.127,0.062,0.254,0.098,0.381c0.032,0.114,0.062,0.228,0.099,0.34c0.042,0.128,0.09,0.254,0.139,0.381
	c0.039,0.102,0.074,0.204,0.117,0.305c0.086,0.201,0.182,0.397,0.285,0.591c0.026,0.049,0.054,0.097,0.081,0.145
	c0.103,0.186,0.214,0.37,0.334,0.549c0.043,0.065,0.09,0.124,0.134,0.186c0.099,0.14,0.199,0.278,0.307,0.411
	c0.058,0.071,0.12,0.14,0.181,0.209c0.101,0.115,0.202,0.231,0.311,0.341c0.073,0.075,0.15,0.146,0.225,0.218
	c0.066,0.062,0.125,0.127,0.193,0.187l172.81,153.568c1.528,1.359,3.444,2.038,5.36,2.038c1.917,0,3.835-0.681,5.363-2.041
	l79.066-70.359c3.33-2.962,3.627-8.063,0.664-11.392c-2.962-3.331-8.063-3.629-11.392-0.664l-58.276,51.859l45.825-121.051
	l90.24-0.03l-46.726,41.58c-3.33,2.962-3.627,8.063-0.664,11.392c2.963,3.331,8.064,3.628,11.392,0.664l62.578-55.686
	c2.96-2.633,3.57-7.024,1.442-10.364l-2.724-4.276c3.456,0.443,6.954,0.725,10.111,0.725c0.736,0,1.453-0.016,2.145-0.047
	c10.158-0.463,18.839-4.834,23.819-11.996c2.75-3.955,4.046-8.617,3.991-13.173c4.087-0.732,8.024-2.48,11.504-5.205
	c7.724-6.051,11.509-15.802,9.881-25.448c-0.547-3.233-1.548-6.317-2.981-9.174c2.565-0.954,5.046-2.33,7.351-4.242
	c11.521-9.56,11.183-26.686,4.199-37.723C501.469,134.762,491.846,128.12,478.478,123.889z M418.275,250.463l-89.159,0.03
	l39.601-77.796L418.275,250.463z M148.402,170.189l42.674,80.351l-89.559,0.029L148.402,170.189z M272.786,161.635l83.467-0.028
	l-40.512,79.585L272.786,161.635z M302.428,250.503l-84.413,0.028l42.18-78.248L302.428,250.503z M204.549,241.501l-42.397-79.827
	l85.444-0.029L204.549,241.501z M198.928,266.676l45.907,121.019L108.687,266.707L198.928,266.676z M216.187,266.67l88.081-0.029
	l-44.001,116.233L216.187,266.67z M69.048,241.298c-4.949,0.153-9.418-1.446-11.662-4.191c-1.732-2.118-1.942-5.805-0.406-7.169
	c3.108-2.764,3.607-7.439,1.149-10.796c-2.458-3.357-7.063-4.297-10.639-2.169c-0.206,0.123-0.414,0.241-0.633,0.356
	c-4.552,2.41-8.448,0.41-9.913-0.563c-3.287-2.184-5.041-5.818-4.691-9.721c0.156-1.743,0.565-3.405,1.217-4.938
	c1.501-3.53,5.385-5.454,11.597-8.303c2.032-0.932,4.134-1.896,6.267-3.023c3.836-2.028,5.382-6.726,3.5-10.636
	c-1.883-3.909-6.518-5.629-10.496-3.896c-8.259,3.602-18.478,7.213-24.255,3.136c-4.685-3.306-4.9-11.378-2.164-16.556
	c3.077-5.823,9.391-10.698,18.763-14.491c31.227-12.63,70.586-3.169,92.969,21.96l-38.682,66.319c-0.488,0.074-0.977,0.19-1.46,0.36
	C83.962,238.933,74.904,241.109,69.048,241.298z M492.577,168.934c-5.444,4.517-15.912,1.712-24.424-1.236
	c-4.099-1.421-8.588,0.655-10.161,4.701c-1.573,4.044,0.336,8.607,4.318,10.331c2.215,0.959,4.384,1.755,6.482,2.525
	c6.416,2.355,10.438,3.972,12.21,7.375c0.769,1.476,1.307,3.101,1.598,4.829c0.652,3.863-0.813,7.622-3.921,10.056
	c-1.382,1.082-5.11,3.386-9.841,1.332c-0.214-0.093-0.427-0.193-0.638-0.296c-3.728-1.852-8.254-0.562-10.448,2.975
	c-2.194,3.539-1.335,8.165,1.982,10.682c1.636,1.242,1.716,4.931,0.154,7.179c-2.025,2.913-6.354,4.862-11.303,5.087
	c-5.849,0.259-15.051-1.196-20.737-2.711c-0.842-0.224-1.689-0.3-2.516-0.255l-41.317-64.833
	c20.677-25.587,58.184-37.332,89.596-27.396c9.639,3.051,16.312,7.42,19.835,12.985
	C496.574,157.209,496.989,165.274,492.577,168.934z"/>
<path d="M195.507,91.716c-4.456,0-8.069,3.612-8.069,8.069s3.613,8.069,8.069,8.069h120.971c4.458,0,8.069-3.612,8.069-8.069
	s-3.612-8.069-8.069-8.069H195.507z"/>
<g>
</g>
<g>
</g>
<g>
</g>
<g>
</g>
<g>
</g>
<g>
</g>
<g>
</g>
<g>
</g>
<g>
</g>
<g>
</g>
<g>
</g>
<g>
</g>
<g>
</g>
<g>
</g>
<g>
</g>
</svg>
