<?xml version="1.0" encoding="iso-8859-1"?>
<!-- Generator: Adobe Illustrator 19.0.0, SVG Export Plug-In . SVG Version: 6.00 Build 0)  -->
<svg version="1.1" id="Layer_1" xmlns="http://www.w3.org/2000/svg" xmlns:xlink="http://www.w3.org/1999/xlink" x="0px" y="0px"
	 viewBox="0 0 512.001 512.001" style="enable-background:new 0 0 512.001 512.001;" xml:space="preserve">
<polygon style="fill:#60D8E8;" points="433.063,149.318 494.903,184.133 488.53,204.307 39.219,204.155 23.338,183.442 
	118.428,128.244 386.487,122.111 "/>
<g>
	<rect x="22.545" y="183.779" style="fill:#6EE5F4;" width="472.235" height="30.751"/>
	<path style="fill:#6EE5F4;" d="M33.914,446.416h449.494c6.279,0,11.369-5.09,11.369-11.369V230.664H22.545v204.383
		C22.545,441.326,27.636,446.416,33.914,446.416z"/>
</g>
<path style="fill:#60D8E8;" d="M339.173,377.462v-20.691c0-7.642-1.143-15.226-3.396-22.537c-1.312-4.257-5.827-6.642-10.084-5.332
	c-4.257,1.312-6.644,5.827-5.332,10.084c1.779,5.771,2.681,11.755,2.681,17.785v20.691H200.944h-0.509v-20.691
	c0-33.628,27.621-60.985,61.572-60.985c6.402,0,13.06,1.066,19.252,3.081c4.234,1.378,8.787-0.937,10.167-5.174
	c1.379-4.235-0.938-8.788-5.174-10.167c-7.785-2.534-16.169-3.874-24.246-3.874c-42.846,0-77.704,34.595-77.704,77.118v20.691
	h-1.638v68.954h161.315v-68.954h-4.298h-0.509V377.462z"/>
<rect x="121.735" y="8.066" style="fill:#FFDFA1;" width="267.785" height="175.293"/>
<polygon style="fill:#8D93A4;" points="331.795,370.292 315.663,370.292 193.057,370.292 176.925,370.292 174.777,370.292 
	174.777,502.855 336.093,502.855 336.093,370.292 "/>
<path d="M167.278,371.372v132.563c0,4.456,3.611,8.066,8.066,8.066h161.315c4.455,0,8.066-3.61,8.066-8.066V371.372
	c0-4.456-3.612-8.066-8.066-8.066h-4.35c0.032-0.294,0.052-0.591,0.052-0.894v-12.81c0-7.71-1.143-15.327-3.396-22.64
	c-1.312-4.257-5.826-6.646-10.084-5.332c-4.257,1.312-6.644,5.826-5.332,10.084c1.779,5.771,2.681,11.791,2.681,17.889v12.81
	c0,0.302,0.019,0.6,0.052,0.894h-122.71c0.032-0.294,0.052-0.591,0.052-0.894v-12.81c0-33.673,27.621-61.068,61.572-61.068
	c6.569,0,13.226,1.037,19.252,2.998c4.234,1.378,8.788-0.937,10.167-5.174c1.379-4.235-0.938-8.788-5.174-10.167
	c-7.619-2.48-16.002-3.79-24.246-3.79c-42.846,0-77.704,34.632-77.704,77.201v12.81c0,0.302,0.019,0.6,0.052,0.894h-2.199
	C170.889,363.306,167.278,366.916,167.278,371.372z M328.593,495.868H183.41v-116.43h145.183V495.868z"/>
<path d="M19.886,450.722h123.477c4.455,0,8.066-3.61,8.066-8.066s-3.611-8.066-8.066-8.066H27.952V230.664H484.05V434.59H369.177
	c-4.455,0-8.066,3.61-8.066,8.066s3.611,8.066,8.066,8.066h122.94c4.455,0,8.066-3.61,8.066-8.066V180.02
	c0-4.456-3.611-8.066-8.066-8.066h-0.429l-53.643-29.692c-3.899-2.16-8.806-0.747-10.964,3.151
	c-2.157,3.898-0.746,8.806,3.151,10.962l28.145,15.578h-35.404c-4.455,0-8.066,3.61-8.066,8.066c0,4.456,3.611,8.066,8.066,8.066
	h61.078v26.445h-456.1v-26.445h61.483c4.455,0,8.066-3.61,8.066-8.066c0-4.456-3.611-8.066-8.066-8.066H51.766l35.089-19.494
	c3.894-2.164,5.297-7.075,3.134-10.969c-2.163-3.893-7.073-5.296-10.969-3.134l-60.541,33.634c-0.069,0.039-0.131,0.084-0.199,0.124
	c-3.686,0.744-6.462,4-6.462,7.906v262.636C11.82,447.111,15.431,450.722,19.886,450.722z"/>
<path d="M390.592,187.123c4.455,0,8.066-3.61,8.066-8.066V8.066c0-4.456-3.611-8.066-8.066-8.066H122.809
	c-4.455,0-8.066,3.61-8.066,8.066v170.99c0,4.456,3.611,8.066,8.066,8.066c4.455,0,8.066-3.61,8.066-8.066V16.132h251.651v162.924
	C382.526,183.512,386.137,187.123,390.592,187.123z"/>
<path d="M217.208,56.038c-3.15-3.149-8.258-3.149-11.407,0l-24.329,24.33l-7.596-7.596c-3.15-3.151-8.258-3.15-11.408-0.001
	c-3.15,3.15-3.15,8.258,0,11.407l13.299,13.301c1.513,1.513,3.564,2.363,5.704,2.363c2.14,0,4.191-0.85,5.703-2.362l30.032-30.033
	C220.358,64.296,220.358,59.189,217.208,56.038z"/>
<path d="M205.801,122.448l-24.329,24.329l-7.596-7.596c-3.15-3.149-8.258-3.149-11.407,0c-3.15,3.151-3.15,8.258,0,11.408
	l13.299,13.299c1.575,1.575,3.639,2.362,5.703,2.362c2.064,0,4.129-0.787,5.703-2.362l30.032-30.032c3.15-3.151,3.15-8.258,0-11.408
	C214.058,119.299,208.951,119.299,205.801,122.448z"/>
<path d="M345.228,68.692h-91.95c-4.455,0-8.066,3.61-8.066,8.066s3.611,8.066,8.066,8.066h91.95c4.455,0,8.066-3.61,8.066-8.066
	S349.682,68.692,345.228,68.692z"/>
<path d="M345.228,135.101h-91.95c-4.455,0-8.066,3.61-8.066,8.066c0,4.456,3.611,8.066,8.066,8.066h91.95
	c4.455,0,8.066-3.61,8.066-8.066C353.294,138.712,349.682,135.101,345.228,135.101z"/>
<path d="M245.696,459.1c1.512,1.513,3.564,2.363,5.703,2.363c2.139,0,4.191-0.85,5.703-2.363l30.032-30.033
	c3.15-3.15,3.15-8.258,0-11.407c-3.15-3.149-8.258-3.15-11.407,0.001l-24.329,24.329l-7.596-7.596
	c-3.15-3.15-8.258-3.151-11.407-0.001c-3.15,3.15-3.15,8.258,0,11.407L245.696,459.1z"/>
<g>
</g>
<g>
</g>
<g>
</g>
<g>
</g>
<g>
</g>
<g>
</g>
<g>
</g>
<g>
</g>
<g>
</g>
<g>
</g>
<g>
</g>
<g>
</g>
<g>
</g>
<g>
</g>
<g>
</g>
</svg>
