<?xml version="1.0" encoding="iso-8859-1"?>
<!-- Generator: Adobe Illustrator 19.0.0, SVG Export Plug-In . SVG Version: 6.00 Build 0)  -->
<svg version="1.1" id="Layer_1" xmlns="http://www.w3.org/2000/svg" xmlns:xlink="http://www.w3.org/1999/xlink" x="0px" y="0px"
	 viewBox="0 0 512 512" style="enable-background:new 0 0 512 512;" xml:space="preserve">
<path style="fill:#FFEFCA;" d="M425.556,454.317c-25.61,0-46.446-20.836-46.446-46.446c0-25.61,20.836-46.446,46.446-46.446
	c25.611,0,46.447,20.835,46.447,46.446C472.004,433.481,451.167,454.317,425.556,454.317z"/>
<g>
	<path style="fill:#6BE8C7;" d="M307.833,187.838H206.101c-4.664,0-8.444-3.781-8.444-8.444V91.455c0-4.663,3.78-8.444,8.444-8.444
		h101.732c4.664,0,8.444,3.781,8.444,8.444v87.938C316.277,184.057,312.497,187.838,307.833,187.838z"/>
	<path style="fill:#6BE8C7;" d="M256.968,512c-2.551,0-4.964-1.153-6.567-3.137l-50.866-62.936c-1.334-1.651-1.997-3.742-1.859-5.86
		l14.637-223.293c0.292-4.439,3.977-7.891,8.426-7.891h72.457c4.449,0,8.135,3.452,8.426,7.891l14.637,223.293
		c0.138,2.118-0.526,4.21-1.859,5.86l-50.866,62.936C261.932,510.847,259.518,512,256.968,512z"/>
</g>
<path d="M84.256,95.488c0-4.663-3.78-8.444-8.444-8.444c-4.664,0-8.444,3.781-8.444,8.444v38.987c0,4.663,3.78,8.444,8.444,8.444
	h77.976c4.664,0,8.444-3.781,8.444-8.444s-3.78-8.444-8.444-8.444H84.256V95.488z"/>
<path d="M355.15,256.838h60.672v67.76c0,4.663,3.78,8.444,8.444,8.444c4.664,0,8.444-3.781,8.444-8.444v-76.204
	c0-4.663-3.78-8.444-8.444-8.444H355.15c-4.664,0-8.444,3.781-8.444,8.444S350.485,256.838,355.15,256.838z"/>
<path d="M29.521,16.888h93.926c4.664,0,8.444-3.781,8.444-8.444S128.112,0,123.447,0H29.521c-4.664,0-8.444,3.781-8.444,8.444
	S24.858,16.888,29.521,16.888z"/>
<path d="M29.521,61.193h93.926c4.664,0,8.444-3.781,8.444-8.444s-3.78-8.444-8.444-8.444H29.521c-4.664,0-8.444,3.781-8.444,8.444
	S24.858,61.193,29.521,61.193z"/>
<g>
	<rect x="364.295" y="9.586" style="fill:#FFC5E5;" width="40.529" height="40.529"/>
	<rect x="446.122" y="9.586" style="fill:#FFC5E5;" width="40.529" height="40.529"/>
	<rect x="364.295" y="91.465" style="fill:#FFC5E5;" width="40.529" height="40.529"/>
	<rect x="446.122" y="91.465" style="fill:#FFC5E5;" width="40.529" height="40.529"/>
</g>
<g>
	<path style="fill:#FEA8D6;" d="M70.015,449.798H33.796c-4.664,0-8.444-3.781-8.444-8.444V372.69c0-4.663,3.78-8.444,8.444-8.444
		h36.219c4.664,0,8.444,3.781,8.444,8.444v68.664C78.459,446.018,74.68,449.798,70.015,449.798z"/>
	<path style="fill:#FEA8D6;" d="M140.188,449.798H103.97c-4.664,0-8.444-3.781-8.444-8.444v-98.091c0-4.663,3.78-8.444,8.444-8.444
		h36.218c4.664,0,8.444,3.781,8.444,8.444v98.091C148.632,446.018,144.852,449.798,140.188,449.798z"/>
</g>
<path style="fill:#A0758E;" d="M148.629,500.515H25.354c-4.664,0-8.444-3.781-8.444-8.444c0-4.663,3.78-8.444,8.444-8.444h123.275
	c4.664,0,8.444,3.781,8.444,8.444C157.073,496.734,153.294,500.515,148.629,500.515z"/>
<g>
	<path style="fill:#3CD3A8;" d="M256.476,120.793l38.283-37.781h13.076c4.664,0,8.444,3.781,8.444,8.444v87.938
		c0,4.663-3.78,8.444-8.444,8.444H206.102c-4.664,0-8.444-3.781-8.444-8.444V91.455c0-4.663,3.78-8.444,8.444-8.444h14.982
		L256.476,120.793z"/>
	<path style="fill:#3CD3A8;" d="M256.476,240.07h-45.691l1.527-23.295c0.292-4.439,3.977-7.891,8.426-7.891h72.457
		c4.449,0,8.135,3.452,8.426,7.891l14.637,223.293c0.138,2.118-0.526,4.21-1.859,5.86l-50.866,62.936
		c-1.603,1.984-4.016,3.137-6.567,3.137"/>
</g>
<path d="M379.11,407.869c0,25.611,20.836,46.446,46.446,46.446c25.611,0,46.447-20.836,46.447-46.446s-20.836-46.446-46.447-46.446
	C399.946,361.424,379.11,382.259,379.11,407.869z M455.116,407.869c0,16.299-13.26,29.558-29.559,29.558
	s-29.558-13.26-29.558-29.558s13.259-29.558,29.558-29.558S455.116,391.571,455.116,407.869z"/>
<path d="M206.101,187.838h101.732c4.664,0,8.444-3.781,8.444-8.444V91.455c0-4.663-3.78-8.444-8.444-8.444H206.101
	c-4.664,0-8.444,3.781-8.444,8.444v87.938C197.657,184.057,201.437,187.838,206.101,187.838z M214.545,99.899h84.844v71.05h-84.844
	V99.899z"/>
<path d="M285.288,225.771l7.284,111.125c0.305,4.653,4.353,8.184,8.979,7.873c4.654-0.305,8.179-4.324,7.874-8.979l-7.802-119.016
	c-0.292-4.439-3.977-7.891-8.426-7.891H220.74c-4.449,0-8.135,3.452-8.426,7.891l-14.637,223.293
	c-0.138,2.118,0.526,4.21,1.859,5.86l50.866,62.936c1.603,1.984,4.016,3.137,6.567,3.137c2.551,0,4.964-1.153,6.567-3.137
	l50.866-62.936c1.334-1.651,1.997-3.742,1.859-5.86l-3.245-49.494c-0.306-4.653-4.368-8.188-8.979-7.873
	c-4.654,0.305-8.179,4.324-7.874,8.979l3.029,46.201l-42.224,52.243l-42.224-52.243l13.904-212.108h56.64V225.771z"/>
<path d="M364.294,58.559h40.529c4.664,0,8.444-3.781,8.444-8.444V9.586c0-4.663-3.78-8.444-8.444-8.444h-40.529
	c-4.664,0-8.444,3.781-8.444,8.444v40.53C355.85,54.779,359.629,58.559,364.294,58.559z M372.738,18.03h23.641v23.642h-23.641V18.03
	z"/>
<path d="M446.117,58.559h40.529c4.664,0,8.444-3.781,8.444-8.444V9.586c0-4.663-3.78-8.444-8.444-8.444h-40.529
	c-4.664,0-8.444,3.781-8.444,8.444v40.53C437.673,54.779,441.452,58.559,446.117,58.559z M454.561,18.03h23.641v23.642h-23.641
	V18.03z"/>
<path d="M364.294,140.442h40.529c4.664,0,8.444-3.781,8.444-8.444V91.469c0-4.663-3.78-8.444-8.444-8.444h-40.529
	c-4.664,0-8.444,3.781-8.444,8.444v40.529C355.85,136.662,359.629,140.442,364.294,140.442z M372.738,99.913h23.641v23.641h-23.641
	V99.913z"/>
<path d="M446.117,140.442h40.529c4.664,0,8.444-3.781,8.444-8.444V91.469c0-4.663-3.78-8.444-8.444-8.444h-40.529
	c-4.664,0-8.444,3.781-8.444,8.444v40.529C437.673,136.662,441.452,140.442,446.117,140.442z M454.561,99.913h23.641v23.641h-23.641
	V99.913z"/>
<path d="M33.796,364.246c-4.664,0-8.444,3.781-8.444,8.444v68.664c0,4.663,3.78,8.444,8.444,8.444h36.219
	c4.664,0,8.444-3.781,8.444-8.444V372.69c0-4.663-3.78-8.444-8.444-8.444H33.796z M61.571,432.911H42.24v-51.776h19.331
	C61.571,381.134,61.571,432.911,61.571,432.911z"/>
<path d="M103.97,334.82c-4.664,0-8.444,3.781-8.444,8.444v98.091c0,4.663,3.78,8.444,8.444,8.444h36.218
	c4.664,0,8.444-3.781,8.444-8.444v-98.091c0-4.663-3.78-8.444-8.444-8.444H103.97z M131.744,432.911h-19.33v-81.203h19.33V432.911z"
	/>
<path d="M25.354,500.515h123.275c4.664,0,8.444-3.781,8.444-8.444c0-4.663-3.78-8.444-8.444-8.444H25.354
	c-4.664,0-8.444,3.781-8.444,8.444C16.91,496.734,20.69,500.515,25.354,500.515z"/>
<g>
</g>
<g>
</g>
<g>
</g>
<g>
</g>
<g>
</g>
<g>
</g>
<g>
</g>
<g>
</g>
<g>
</g>
<g>
</g>
<g>
</g>
<g>
</g>
<g>
</g>
<g>
</g>
<g>
</g>
</svg>
