<?xml version="1.0" encoding="utf-8"?>
<!-- Generator: Adobe Illustrator 18.0.0, SVG Export Plug-In . SVG Version: 6.00 Build 0)  -->
<!DOCTYPE svg PUBLIC "-//W3C//DTD SVG 1.1//EN" "http://www.w3.org/Graphics/SVG/1.1/DTD/svg11.dtd">
<svg version="1.1" id="Layer_1" xmlns="http://www.w3.org/2000/svg" xmlns:xlink="http://www.w3.org/1999/xlink" x="0px" y="0px"
	 width="256px" height="256px" viewBox="0 0 256 256" enable-background="new 0 0 256 256" xml:space="preserve">
<g>
	<g>
		<path fill="#E0E0E0" d="M58.2,120.8l15.4,124.6H7.2v-78.5c0-25.4,20.7-46.1,46.1-46.1H58.2z"/>
	</g>
	<g>
		<path fill="#E0E0E0" d="M241.3,214.1c0.5,10.2-7.6,18.7-17.7,18.7h-40.7c-12.6,0-24.2-7.4-29.5-18.9l-7.3-14.3
			c-1.2-2.4-4.8-1.5-4.8,1.2v44.7h-38.1l18.1-124.6h2.8c25.6,0,45.6,20.9,46,46.5c0.2,16.5,13.7,29.9,30.3,29.9h22.7
			C232.6,197.3,240.8,204.6,241.3,214.1z"/>
	</g>
	<g>
		<g>
			<polygon fill="#F68F6F" points="104.7,232.8 95.5,146.2 99.5,135 102.5,126.5 74.7,126.5 77.7,135 81.6,146.2 72.5,232.8 
				57.6,119.8 74,245.4 103.1,245.4 121.3,120.8 			"/>
		</g>
	</g>
	<g>
		<path fill="#4A555F" d="M88.6,117L88.6,117c-24.7,0-44.8-20.1-44.8-44.8c0-24.7,20.1-44.8,44.8-44.8c24.7,0,44.8,20.1,44.8,44.8
			C133.4,96.9,113.3,117,88.6,117z M88.6,30.7c-22.9,0-41.5,18.6-41.5,41.5c0,22.9,18.6,41.5,41.5,41.5c22.9,0,41.5-18.6,41.5-41.5
			C130.1,49.3,111.5,30.7,88.6,30.7z"/>
	</g>
	<g>
		<path fill="#FFD552" d="M88.6,109.7C67.9,109.7,51,92.9,51,72.2s16.9-37.6,37.6-37.6c20.7,0,37.6,16.9,37.6,37.6
			S109.3,109.7,88.6,109.7L88.6,109.7z"/>
	</g>
	<g>
		<rect x="25.5" y="196.5" fill="#4A555F" width="3.3" height="48.9"/>
	</g>
	<g>
		<path fill="#4A555F" d="M96.8,147.8H80.5l-8.1-23h32.5L96.8,147.8z M82.8,144.5h11.6l5.8-16.4H77L82.8,144.5z"/>
	</g>
	<g>
		<polygon fill="#4A555F" points="105.7,245.7 102.4,245.2 103.4,237.6 94.1,147.8 83.1,147.8 74.1,235 75.4,245.2 72.1,245.7 
			70.7,235 70.8,234.8 80.2,144.5 97.1,144.5 106.8,237.6 		"/>
	</g>
	<g>
		<path fill="#4A555F" d="M60.8,155.8l-5.7-42.1h16.7l7.7,21.7L60.8,155.8z M58.9,117l4.3,31.4l12.6-13.7L69.5,117H58.9z"/>
	</g>
	<g>
		<path fill="#4A555F" d="M117.7,156.9l-20-21.5l7.7-21.7h18.2L117.7,156.9z M101.5,134.6l13.9,14.9l4.4-32.6h-12.1L101.5,134.6z"/>
	</g>
	<g>
		
			<rect x="-0.2" y="178.7" transform="matrix(0.1276 0.9918 -0.9918 0.1276 235.931 92.5104)" fill="#4A555F" width="131.2" height="3.3"/>
	</g>
	<g>
		
			<rect x="111.2" y="114.7" transform="matrix(0.9909 0.1348 -0.1348 0.9909 25.3377 -13.5663)" fill="#4A555F" width="3.3" height="131.3"/>
	</g>
	<g>
		<path fill="#4A555F" d="M3.3,245.4H0v-78.5c0-29.4,23.9-53.3,53.3-53.3h70.7c29.4,0,53.3,23.9,53.3,53.3
			c0,12.8,10.4,23.2,23.2,23.2h23.2c13.7,0,24.9,11.2,24.9,24.9c0,13.7-11.2,24.9-24.9,24.9h-40.7c-15.4,0-29.5-9.1-36-23.1
			l-9.3-20.3l3-1.4l9.3,20.3c5.9,12.8,18.9,21.1,33,21.1h40.7c11.9,0,21.6-9.7,21.6-21.6c0-11.9-9.7-21.6-21.6-21.6h-23.2
			c-14.6,0-26.5-11.9-26.5-26.5c0-27.5-22.4-50-50-50H53.3c-27.5,0-50,22.4-50,50V245.4z"/>
	</g>
	<g>
		<rect x="145.2" y="212.7" fill="#4A555F" width="3.3" height="32.8"/>
	</g>
	<g>
		<path fill="#4A555F" d="M239.1,131.3h-34.5v-4.5c0-7.2-2.8-14.3-8-19.9c-6.2-6.8-9.4-15.7-8.8-25c1-17.2,14.7-30.9,31.8-32
			c19.8-1.3,36.3,14.5,36.3,34c0,8.7-3.2,16.9-9.1,23.2c-5,5.4-7.8,12.5-7.8,19.9V131.3z M207.9,128h27.9V127
			c0-8.3,3.1-16.2,8.6-22.2c5.3-5.7,8.2-13.2,8.2-21c0-17.7-14.9-31.9-32.8-30.8c-15.5,1-27.9,13.4-28.8,28.9
			c-0.5,8.4,2.3,16.4,8,22.6c5.7,6.3,8.9,14.1,8.9,22.1V128z"/>
	</g>
	<g>
		<path fill="#FFD552" d="M211.7,124.1c-0.6-8-4-15.8-9.8-22.1c-4.9-5.4-7.4-12.4-7-19.8c0.8-13.3,11.8-24.4,25.2-25.3
			c0.6,0,1.2-0.1,1.8-0.1c14.9,0,27,12.1,27,27c0,6.8-2.6,13.4-7.2,18.4c-5.6,6-8.9,13.7-9.6,21.9H211.7z"/>
	</g>
	<g>
		<path fill="#4A555F" d="M239.1,149.7h-34.5V128h34.5V149.7z M208,146.4h27.9v-15.1H208V146.4z"/>
	</g>
	<g>
		<rect x="211.8" y="135.1" fill="#F68F6F" width="20.1" height="7.4"/>
	</g>
	<g>
		<path fill="#4A555F" d="M233.1,154.9h-22.5v-8.5h22.5V154.9z M213.9,151.6h15.9v-1.9h-15.9V151.6z"/>
	</g>
	<g>
		<path fill="#4A555F" d="M225,129.2c0-0.8-0.2-18.9,7.6-33.7c0.1-0.2,0.2-0.4,0.2-0.6v-8.9c0-0.7-0.6-1.3-1.4-1.3h-6.9
			c-0.3,0-0.6,0.1-0.9,0.3l2.3,4.7c0.7,1.4,0.6,3.1-0.2,4.5c-0.9,1.4-2.3,2.2-3.9,2.2c-1.6,0-3.1-0.8-3.9-2.2
			c-0.9-1.4-0.9-3.1-0.2-4.5l2.3-4.7c-0.2-0.2-0.5-0.3-0.9-0.3H212c-0.7,0-1.4,0.6-1.4,1.3V95c0,0.2,0.1,0.4,0.2,0.6
			c7.8,14.8,7.6,32.9,7.6,33.7l-3.3-0.1c0-0.2,0.2-18-7.2-32.1c-0.4-0.7-0.5-1.4-0.5-2.2v-8.9c0-2.6,2.1-4.7,4.7-4.7h6.9
			c1,0,2,0.3,2.8,0.9c0.8-0.6,1.8-0.9,2.8-0.9h6.9c2.6,0,4.7,2.1,4.7,4.7V95c0,0.7-0.2,1.5-0.5,2.2c-7.4,14.1-7.2,31.9-7.2,32.1
			L225,129.2z M221.7,88.7l-1.2,2.5c-0.3,0.6,0,1.1,0.1,1.3c0.1,0.2,0.5,0.6,1.1,0.6s1-0.4,1.1-0.6c0.1-0.2,0.4-0.7,0.1-1.3
			L221.7,88.7z"/>
	</g>
	<g>
		<path fill="#4A555F" d="M236,140.5h-3.3v-3.3h3.3V140.5z M229.4,140.5h-3.3v-3.3h3.3V140.5z M222.8,140.5h-3.3v-3.3h3.3V140.5z
			 M216.2,140.5h-3.3v-3.3h3.3V140.5z M209.6,140.5h-3.3v-3.3h3.3V140.5z"/>
	</g>
	<g>
		<path fill="#4A555F" d="M223.2,40.1h-3.3v-3.3h3.3V40.1z M223.2,33.5h-3.3v-3.3h3.3V33.5z M223.2,26.8h-3.3v-3.3h3.3V26.8z
			 M223.2,20.2h-3.3v-3.3h3.3V20.2z M223.2,13.6h-3.3v-3.3h3.3V13.6z"/>
	</g>
	<g>
		
			<rect x="244.7" y="24.3" transform="matrix(0.9175 0.3978 -0.3978 0.9175 33.9941 -95.1913)" fill="#4A555F" width="3.3" height="20.1"/>
	</g>
	<g>
		
			<rect x="187.8" y="33.2" transform="matrix(0.4187 0.9081 -0.9081 0.4187 146.3994 -158.9637)" fill="#4A555F" width="19.1" height="3.3"/>
	</g>
</g>
</svg>
