<?xml version="1.0" encoding="iso-8859-1"?>
<!-- Generator: Adobe Illustrator 19.0.0, SVG Export Plug-In . SVG Version: 6.00 Build 0)  -->
<svg version="1.1" id="Layer_1" xmlns="http://www.w3.org/2000/svg" xmlns:xlink="http://www.w3.org/1999/xlink" x="0px" y="0px"
	 viewBox="0 0 512 512" style="enable-background:new 0 0 512 512;" xml:space="preserve">
<circle style="fill:#FFEFCA;" cx="305.121" cy="286.079" r="200.289"/>
<circle style="fill:#FFE4A1;" cx="305.121" cy="286.079" r="144.117"/>
<circle style="fill:#FFF7E6;" cx="305.121" cy="286.079" r="90.215"/>
<path style="fill:#FBD696;" d="M354.657,361.273l53.736,12.619c4.209,0.988,8.433-1.768,9.387-6.124l4.747-21.67l10.836-49.461
	l4.743-21.649c0.954-4.356-1.708-8.731-5.917-9.718l-229.942-53.996c-4.209-0.988-8.433,1.768-9.387,6.126l-5.029,22.957
	l-10.249,46.783l-5.048,23.041c-0.954,4.356,1.708,8.731,5.916,9.718l15.278,3.588l32.896,7.724l-10.473-21.317l147.41,24.838
	l0.404,15.145l-0.404,2.423L354.657,361.273z"/>
<polygon style="fill:#F6E1B8;" points="226.625,331.208 354.657,361.273 364.762,352.889 220.714,320.923 "/>
<path style="fill:#6BE8C7;" d="M410.974,340.324c-16.352-3.71-26.603-19.972-22.893-36.324
	c3.708-16.352,19.972-26.603,36.324-22.893c5.918,1.342,11.03,4.334,14.977,8.374l4.94-21.776c0.994-4.383-1.778-8.782-6.161-9.776
	L198.7,203.615c-4.383-0.994-8.782,1.778-9.776,6.161l-5.237,23.091c5.848-2.682,12.588-3.538,19.346-2.005
	c16.352,3.708,26.603,19.972,22.893,36.324c-3.71,16.352-19.972,26.603-36.324,22.893c-6.759-1.533-12.469-5.214-16.588-10.155
	l-5.256,23.176c-0.994,4.383,1.778,8.782,6.161,9.776l15.91,3.609l35.621,8.08l187.93,42.626c4.383,0.994,8.782-1.778,9.776-6.161
	l4.944-21.797C422.794,341.173,416.892,341.666,410.974,340.324z M299.323,315.01c-16.352-3.71-26.603-19.972-22.893-36.324
	c3.71-16.352,19.972-26.603,36.324-22.893c16.352,3.708,26.603,19.972,22.893,36.324C331.939,308.469,315.675,318.72,299.323,315.01
	z"/>
<circle style="fill:#3CD3A8;" cx="306.04" cy="285.398" r="30.361"/>
<g>
	<path style="fill:#9AF7DD;" d="M388.081,304c-3.708,16.352,6.541,32.616,22.893,36.324c5.918,1.342,11.82,0.849,17.124-1.093
		l11.284-49.751c-3.947-4.04-9.059-7.031-14.977-8.374C408.053,277.397,391.789,287.646,388.081,304z"/>
	<path style="fill:#9AF7DD;" d="M225.925,267.186c3.708-16.352-6.541-32.616-22.893-36.324c-6.758-1.533-13.498-0.676-19.346,2.005
		l-10.674,47.057c4.119,4.942,9.829,8.622,16.588,10.155C205.953,293.788,222.217,283.538,225.925,267.186z"/>
</g>
<path style="fill:#B1C6D3;" d="M124.731,121.506l184.511,168.713c0,0-3.386,2.549-8.896,1.776c-0.258-0.036-0.504-0.155-0.697-0.33
	L73.507,86.081L124.731,121.506z"/>
<path style="fill:#FEA8D6;" d="M15.579,82.852C3.785,72.182,10.78,52.578,26.664,51.784l20.424-1.021l-1.021-20.424
	c-0.794-15.885,18.012-24.801,29.806-14.13l36.993,33.469c10.712,9.692,17.136,23.243,17.858,37.67l2.047,40.935l-40.935,2.047
	c-14.429,0.722-28.552-4.318-39.265-14.01L15.579,82.852z"/>
<path style="fill:#F49AD0;" d="M132.771,128.283l-40.935,2.047c-14.429,0.722-28.552-4.318-39.265-14.01L15.579,82.852
	C3.785,72.182,10.78,52.578,26.664,51.784l20.424-1.021"/>
<path style="fill:#FEA8D6;" d="M47.088,50.763l-1.021-20.424c-0.794-15.885,18.012-24.801,29.806-14.13l36.993,33.469
	c10.712,9.692,17.136,23.243,17.858,37.67l2.047,40.935"/>
<path d="M253.443,90.72c-27.284,6.788-52.425,18.723-74.724,35.469c-3.758,2.822-4.516,8.157-1.694,11.916
	c2.822,3.758,8.156,4.516,11.916,1.694c20.467-15.371,43.552-26.326,68.612-32.56c102.312-25.46,206.265,37.07,231.721,139.385
	c4.413,17.737,6.281,35.899,5.55,53.982c-0.189,4.697,3.465,8.657,8.16,8.848c0.118,0.005,0.234,0.007,0.35,0.007
	c4.541,0,8.313-3.588,8.497-8.167c0.797-19.698-1.236-39.473-6.039-58.778C478.068,131.089,364.865,62.996,253.443,90.72z"/>
<path d="M136.94,182.586c-4.031-2.423-9.259-1.12-11.679,2.908C96.61,233.148,88.225,289.11,101.65,343.069
	c23.541,94.611,108.705,157.978,202.085,157.978c16.593,0,33.453-2.002,50.264-6.186c35.546-8.844,68.177-26.903,94.363-52.226
	c25.4-24.562,44.28-55.413,54.601-89.215c1.372-4.495-1.16-9.253-5.655-10.625c-4.493-1.371-9.252,1.16-10.625,5.655
	c-9.48,31.05-26.822,59.387-50.153,81.948c-24.037,23.244-53.996,39.823-86.641,47.945
	c-102.312,25.46-206.264-37.07-231.721-139.385c-12.328-49.549-4.629-100.935,21.68-144.694
	C142.27,190.238,140.967,185.009,136.94,182.586z"/>
<path d="M434.75,238.539c1.229,0,2.479-0.268,3.663-0.834c4.241-2.027,6.036-7.107,4.01-11.348
	c-15.046-31.492-40.77-57.176-72.433-72.319c-32.094-15.349-68.814-19.063-103.396-10.459
	c-17.948,4.466-34.716,11.988-49.839,22.359c-3.876,2.659-4.864,7.956-2.206,11.832c2.659,3.878,7.956,4.865,11.832,2.206
	c13.44-9.217,28.351-15.905,44.322-19.878c62.764-15.619,128.523,15.335,156.361,73.597
	C428.525,236.751,431.573,238.539,434.75,238.539z"/>
<path d="M180.377,351.889c-2.027-4.241-7.104-6.036-11.348-4.01c-4.241,2.027-6.036,7.107-4.01,11.348
	c15.046,31.492,40.77,57.176,72.433,72.319c20.776,9.936,43.487,14.996,66.305,14.996c12.43,0,24.895-1.502,37.091-4.537
	c24.581-6.117,47.429-18.286,66.078-35.194c3.483-3.157,3.746-8.539,0.589-12.022c-3.157-3.481-8.538-3.746-12.022-0.589
	c-16.575,15.027-36.892,25.846-58.756,31.285C273.971,441.104,208.214,410.15,180.377,351.889z"/>
<path d="M282.93,195.698c-4.596,0.987-7.521,5.512-6.535,10.108c0.987,4.596,5.514,7.518,10.107,6.535
	c22.665-4.867,46.481,0.134,65.342,13.718c1.505,1.085,3.243,1.606,4.967,1.606c2.644,0,5.25-1.228,6.913-3.537
	c2.747-3.814,1.883-9.133-1.931-11.88C339.035,195.856,310.292,189.822,282.93,195.698z"/>
<path d="M303.558,392.118c8.034,0,16.133-0.979,24.137-2.971c1.408-0.351,2.828-0.736,4.218-1.147
	c4.508-1.331,7.082-6.065,5.75-10.573c-1.331-4.508-6.069-7.081-10.573-5.75c-1.156,0.342-2.334,0.662-3.504,0.952
	c-24.439,6.082-49.938,0.772-69.955-14.568c-3.731-2.86-9.073-2.152-11.932,1.578c-2.86,3.731-2.152,9.074,1.578,11.932
	C260.874,385.057,281.985,392.118,303.558,392.118z"/>
<path d="M416.05,297.99c4.655,0.622,8.942-2.644,9.567-7.302s-2.644-8.942-7.302-9.567c-18.909-2.544-36.449,9.567-40.805,28.161
	c-4.179,17.838,5.545,36.253,22.617,42.836c1.007,0.388,2.041,0.572,3.06,0.572c3.417,0,6.64-2.072,7.943-5.451
	c1.691-4.386-0.494-9.312-4.88-11.003c-9.188-3.543-14.42-13.461-12.168-23.07C396.43,303.146,405.872,296.619,416.05,297.99z"/>
<path d="M193.59,286.196c-4.697-0.146-8.615,3.569-8.748,8.267c-0.133,4.699,3.569,8.615,8.267,8.748
	c0.347,0.01,0.691,0.015,1.036,0.015c16.999,0,32.003-11.836,35.905-28.49c4.11-17.544-4.936-35.37-21.509-42.387
	c-4.328-1.83-9.322,0.192-11.156,4.52c-1.833,4.328,0.191,9.322,4.52,11.156c8.919,3.775,13.785,13.377,11.571,22.83
	C211.331,280.008,202.973,286.467,193.59,286.196z"/>
<path d="M8.735,97.106c3.487,3.155,8.868,2.885,12.021-0.601c3.154-3.486,2.885-8.867-0.601-12.021
	c-4.295-3.885-3.023-8.687-2.531-10.067c0.492-1.38,2.548-5.901,8.332-6.19l16.903-0.845l67.833,61.37l-20.412,1.021
	c-12.259,0.615-24.027-3.585-33.13-11.821l-13.01-11.77c-3.485-3.154-8.867-2.883-12.021,0.601s-2.885,8.867,0.601,12.021
	l13.009,11.771c11.677,10.564,26.548,16.28,42.181,16.28c1.069,0,2.144-0.026,3.218-0.081l37.414-1.871l62.261,56.329
	c-5.556,1.664-10.104,6.162-11.518,12.202l-21.947,93.685c-2.104,8.981,3.491,17.998,12.47,20.1l240.387,56.314
	c1.278,0.3,2.556,0.443,3.815,0.443c7.591,0,14.481-5.212,16.285-12.914l21.947-93.685c1.017-4.341,0.278-8.825-2.08-12.628
	c-2.358-3.803-6.05-6.456-10.39-7.473l-15.971-3.741c-4.578-1.072-9.155,1.769-10.228,6.346c-1.072,4.577,1.769,9.155,6.346,10.228
	l15.684,3.674l-21.813,93.11l-239.812-56.179l21.813-93.11l17.688,4.143l57.101,51.662c-1.675,3.063-2.97,6.389-3.8,9.935
	c-4.91,20.958,8.147,42.004,29.105,46.914c2.933,0.688,5.938,1.036,8.931,1.036c18.206,0,33.827-12.395,37.983-30.142
	c4.91-20.958-8.147-42.004-29.105-46.914c-2.933-0.688-5.938-1.036-8.931-1.036c-8.519,0-16.47,2.714-22.946,7.419l-34.102-30.854
	l136.445,31.963c4.574,1.072,9.154-1.769,10.228-6.346c1.072-4.577-1.769-9.155-6.346-10.228l-166.402-38.982L139.96,132.28
	l-1.871-37.414c-0.84-16.803-8.174-32.271-20.648-43.556L80.448,17.842c-8.058-7.29-19.162-8.927-28.98-4.272
	S35.889,27.856,36.431,38.708l0.596,11.923l-11.923,0.596C14.252,51.77,5.243,58.465,1.591,68.698S0.677,89.816,8.735,97.106z
	 M304.762,270.225c1.686,0,3.385,0.197,5.047,0.588c11.821,2.769,19.184,14.639,16.415,26.459
	c-2.344,10.011-11.149,17.002-21.411,17.002c-1.686,0-3.385-0.197-5.048-0.588c-5.726-1.341-10.587-4.833-13.688-9.831
	c-3.1-4.998-4.069-10.903-2.728-16.629c0.144-0.614,0.313-1.215,0.504-1.805l13.438,12.158c1.628,1.474,3.671,2.199,5.707,2.199
	c2.321,0,4.633-0.944,6.314-2.801c3.154-3.485,2.885-8.867-0.601-12.021l-13.74-12.432
	C297.937,271.056,301.26,270.225,304.762,270.225z M58.76,28.95c1.323-0.626,5.975-2.371,10.269,1.514l36.993,33.469
	c9.103,8.236,14.455,19.524,15.068,31.784l1.021,20.414l-67.834-61.37l-0.845-16.904C53.142,32.073,57.437,29.576,58.76,28.95z"/>
<g>
</g>
<g>
</g>
<g>
</g>
<g>
</g>
<g>
</g>
<g>
</g>
<g>
</g>
<g>
</g>
<g>
</g>
<g>
</g>
<g>
</g>
<g>
</g>
<g>
</g>
<g>
</g>
<g>
</g>
</svg>
