<?xml version="1.0" encoding="utf-8"?>
<!-- Generator: Adobe Illustrator 19.2.0, SVG Export Plug-In . SVG Version: 6.00 Build 0)  -->
<svg version="1.1" id="Layer_1" xmlns="http://www.w3.org/2000/svg" xmlns:xlink="http://www.w3.org/1999/xlink" x="0px" y="0px"
	 viewBox="0 0 500 500" style="enable-background:new 0 0 500 500;" xml:space="preserve">
<style type="text/css">
	.st0{fill:#ECF4F7;}
	.st1{fill:#1C1D21;}
	.st2{fill:#83E1E5;}
	.st3{fill:#AAB1BA;}
	.st4{fill:none;stroke:#1C1D21;stroke-width:10;stroke-linecap:round;stroke-linejoin:round;stroke-miterlimit:10;}
	.st5{fill:#FDDF7F;}
	.st6{fill:#FFFFFF;}
</style>
<g>
	<g>
		<g>
			<path class="st0" d="M370.7,495H134.3c-11,0-20-9-20-20v-48.8c0-11,9-20,20-20h236.3c11,0,20,9,20,20V475
				C390.7,486,381.7,495,370.7,495z"/>
		</g>
	</g>
	<g>
		<g>
			<path class="st3" d="M252.7,21.5l-18-13.6c-9.2-7-22.5-0.4-22.5,11.2v0c0,24.3-9.7,47.5-27,64.5l-65.8,64.8
				c-13.6,13.6-13.6,35.6,0,49.1l6.7,6.7c8,8,20.9,8,28.8,0l19.1-19.1c3.8-3.8,9-6,14.4-6h32c5.4,0,10.6,2.1,14.4,6l3.3,3.3
				c8,8,8,20.9,0,28.8l-50,50C161.8,293.7,147,329.6,147,367v39.1h211.6v-25.5V130.4c0-40.8-26.6-75.3-63.5-87.2
				C279.9,38.3,265.5,31.1,252.7,21.5z"/>
		</g>
	</g>
	<g>
		<g>
			<path class="st1" d="M370.3,500H134.7c-14,0-25.4-11.4-25.4-25.4v-48c0-14,11.4-25.4,25.4-25.4h110c2.8,0,5,2.2,5,5s-2.2,5-5,5
				h-110c-8.5,0-15.4,6.9-15.4,15.4v48c0,8.5,6.9,15.4,15.4,15.4h235.6c8.5,0,15.4-6.9,15.4-15.4v-48c0-8.5-6.9-15.4-15.4-15.4
				h-33.1c-2.8,0-5-2.2-5-5s2.2-5,5-5h33.1c14,0,25.4,11.4,25.4,25.4v48C395.7,488.6,384.3,500,370.3,500z"/>
		</g>
	</g>
	<g>
		<g>
			<path class="st1" d="M147,411.2c-2.8,0-5-2.2-5-5V367c0-39,15.2-75.7,42.8-103.4l50-50c2.9-2.9,4.5-6.8,4.5-10.9
				c0-4.1-1.6-8-4.5-10.9l-3.3-3.3c-2.9-2.9-6.8-4.5-10.9-4.5h-32c-4.1,0-8,1.6-10.9,4.5l-19.1,19.1c-9.9,9.9-26,9.9-35.9,0L116,201
				c-15.5-15.5-15.5-40.7,0-56.2L181.8,80c16.2-16,25.5-38.2,25.5-61c0-7.3,4-13.8,10.5-17c6.5-3.2,14.1-2.5,19.9,1.9l18,13.6
				c12,9.1,25.7,16.1,40.9,21c40,12.9,66.9,49.8,66.9,91.9v75.2c0,2.8-2.2,5-5,5c-2.8,0-5-2.2-5-5v-75.2c0-37.7-24.1-70.9-60-82.4
				c-16.2-5.2-30.9-12.8-43.8-22.5l-18-13.6c-2.8-2.1-6.3-2.4-9.4-0.9c-3.1,1.6-5,4.6-5,8.1c0,25.4-10.4,50.2-28.5,68.1L123,151.9
				c-11.6,11.6-11.6,30.4,0,42l6.7,6.7c6,6,15.8,6,21.8,0l19.1-19.1c4.8-4.8,11.2-7.4,18-7.4h32c6.8,0,13.2,2.6,18,7.4l3.3,3.3
				c4.8,4.8,7.4,11.2,7.4,18c0,6.8-2.6,13.2-7.4,18l-50,50C166.1,296.5,152,330.7,152,367v39.1C152,408.9,149.7,411.2,147,411.2z"/>
		</g>
	</g>
	<g>
		<g>
			<path class="st1" d="M358.6,312c-2.8,0-5-2.2-5-5v-74.4c0-2.8,2.2-5,5-5c2.8,0,5,2.2,5,5V307C363.6,309.8,361.3,312,358.6,312z"
				/>
		</g>
	</g>
	<g>
		<g>
			<path class="st1" d="M358.6,372.2c-2.8,0-5-2.2-5-5v-18.4c0-2.8,2.2-5,5-5c2.8,0,5,2.2,5,5v18.4
				C363.6,369.9,361.3,372.2,358.6,372.2z"/>
		</g>
	</g>
	<g>
		<g>
			<circle class="st5" cx="196.8" cy="109.1" r="25"/>
		</g>
	</g>
	<g>
		<g>
			<path class="st1" d="M196.8,139.2c-16.6,0-30-13.5-30-30c0-16.6,13.5-30,30-30c16.6,0,30,13.5,30,30
				C226.8,125.7,213.3,139.2,196.8,139.2z M196.8,89.1c-11.1,0-20,9-20,20c0,11.1,9,20,20,20c11.1,0,20-9,20-20
				C216.8,98,207.8,89.1,196.8,89.1z"/>
		</g>
	</g>
	<g>
		<g>
			<g>
				<path class="st1" d="M161.1,455.6h-46.7c-2.8,0-5-2.2-5-5s2.2-5,5-5h46.7c2.8,0,5,2.2,5,5S163.8,455.6,161.1,455.6z"/>
			</g>
		</g>
		<g>
			<g>
				<path class="st1" d="M225.6,455.6h-40.8c-2.8,0-5-2.2-5-5s2.2-5,5-5h40.8c2.8,0,5,2.2,5,5S228.4,455.6,225.6,455.6z"/>
			</g>
		</g>
	</g>
	<g>
		<g>
			<g>
				<path class="st1" d="M389.4,455.6h-90c-2.8,0-5-2.2-5-5s2.2-5,5-5h90c2.8,0,5,2.2,5,5S392.2,455.6,389.4,455.6z"/>
			</g>
		</g>
	</g>
</g>
<g>
	<g>
		<path class="st1" d="M296,412.2h-22c-2.8,0-5-2.2-5-5c0-2.8,2.2-5,5-5h22c2.8,0,5,2.2,5,5C301,410,298.8,412.2,296,412.2z"/>
	</g>
</g>
</svg>
