<?xml version="1.0" encoding="iso-8859-1"?>
<!-- Generator: Adobe Illustrator 19.0.0, SVG Export Plug-In . SVG Version: 6.00 Build 0)  -->
<svg version="1.1" id="Layer_1" xmlns="http://www.w3.org/2000/svg" xmlns:xlink="http://www.w3.org/1999/xlink" x="0px" y="0px"
	 viewBox="0 0 512 512" style="enable-background:new 0 0 512 512;" xml:space="preserve">
<path style="fill:#FEA8D6;" d="M308.689,442.958c-29.173,36.584-51.499,61.309-51.499,61.309S71.401,298.506,71.401,195.898
	S154.582,10.11,257.19,10.11s185.789,83.18,185.789,185.789c0,43.276-33.049,104.903-71.269,161.702L308.689,442.958z"/>
<circle style="fill:#FFFFFF;" cx="257.19" cy="188.608" r="118.752"/>
<path style="fill:#6BE8C7;" d="M333.932,187.422c0,0-34.358,43.928-76.742,43.928s-76.742-43.928-76.742-43.928
	s34.358-41.549,76.742-41.549S333.932,187.422,333.932,187.422z"/>
<circle style="fill:#FFFFFF;" cx="257.19" cy="188.608" r="17.35"/>
<path style="fill:#E88AC2;" d="M308.689,442.958l63.021-85.359c38.221-56.799,71.269-118.425,71.269-161.702
	c0-102.608-83.18-185.789-185.789-185.789c325.483,125.134,28.877,421.89,0,494.159C257.19,504.268,279.516,479.542,308.689,442.958
	z"/>
<path d="M256.001,512c-2.524,0-4.93-1.069-6.62-2.943c-7.68-8.506-188.089-209.514-188.089-314.348
	C61.291,87.347,148.637,0,256.001,0c107.363,0,194.708,87.347,194.708,194.709c0,38.824-24.49,94.904-72.788,166.682
	c-2.751,4.088-8.294,5.17-12.382,2.422c-4.088-2.751-5.172-8.294-2.421-12.382c45.63-67.813,69.75-122.006,69.75-156.721
	c0-97.525-79.342-176.868-176.867-176.868S79.133,97.185,79.133,194.709c0,40.044,31.506,104.815,91.113,187.31
	c35.465,49.085,71.322,91.074,85.758,107.592c8.698-9.945,25.154-29.116,44.521-53.402c3.073-3.853,8.685-4.485,12.537-1.413
	c3.851,3.072,4.485,8.684,1.413,12.537c-29.008,36.376-51.626,61.477-51.852,61.727C260.931,510.931,258.525,512,256.001,512z"/>
<path d="M256.001,315.094c-70.399,0-127.672-57.273-127.672-127.672S185.602,59.75,256.001,59.75s127.672,57.273,127.672,127.672
	S326.399,315.094,256.001,315.094z M256.001,77.591c-60.561,0-109.831,49.27-109.831,109.831s49.27,109.831,109.831,109.831
	s109.831-49.27,109.831-109.831S316.561,77.591,256.001,77.591z"/>
<path d="M256.001,239.081c-46.201,0-82.256-45.42-83.769-47.352c-2.582-3.299-2.518-7.953,0.152-11.181
	c1.512-1.828,37.563-44.784,83.617-44.784c46.052,0,82.104,42.956,83.616,44.784c2.67,3.229,2.734,7.881,0.152,11.181
	C338.255,193.661,302.2,239.081,256.001,239.081z M191.265,186.406c10.423,11.147,35.961,34.834,64.736,34.834
	c28.89,0,54.354-23.672,64.747-34.823c-10.519-10.6-35.991-32.812-64.746-32.812C227.257,153.605,201.795,175.796,191.265,186.406z"
	/>
<path d="M256.001,213.693c-14.486,0-26.271-11.785-26.271-26.271c0-14.486,11.785-26.271,26.271-26.271s26.271,11.785,26.271,26.271
	C282.271,201.908,270.487,213.693,256.001,213.693z M256.001,178.992c-4.648,0-8.429,3.781-8.429,8.429
	c0,4.648,3.781,8.429,8.429,8.429c4.648,0,8.429-3.781,8.429-8.429C264.43,182.773,260.649,178.992,256.001,178.992z"/>
<g>
</g>
<g>
</g>
<g>
</g>
<g>
</g>
<g>
</g>
<g>
</g>
<g>
</g>
<g>
</g>
<g>
</g>
<g>
</g>
<g>
</g>
<g>
</g>
<g>
</g>
<g>
</g>
<g>
</g>
</svg>
