<?xml version="1.0" encoding="iso-8859-1"?>
<!-- Generator: Adobe Illustrator 19.0.0, SVG Export Plug-In . SVG Version: 6.00 Build 0)  -->
<svg version="1.1" id="Layer_1" xmlns="http://www.w3.org/2000/svg" xmlns:xlink="http://www.w3.org/1999/xlink" x="0px" y="0px"
	 viewBox="0 0 512 512" style="enable-background:new 0 0 512 512;" xml:space="preserve">
<circle style="fill:#97EFFF;" cx="257.19" cy="257.167" r="183.479"/>
<circle style="fill:#F5FCFF;" cx="257.888" cy="256.729" r="86.326"/>
<path style="fill:#B0F6FF;" d="M196.34,430.317c-71.426-25.099-122.631-93.145-122.631-173.149
	c0-101.334,82.146-183.48,183.48-183.48C69.876,115.203,51.743,349.357,196.34,430.317z"/>
<path style="fill:#6EE5F4;" d="M292.742,437.206c84.318-16.556,147.927-90.869,147.927-180.038
	c0-76.001-46.207-141.207-112.061-169.061C483.784,202.715,425.836,403.362,292.742,437.206z"/>
<path d="M256.006,448.335c-106.062,0-192.35-86.288-192.35-192.35s86.288-192.35,192.35-192.35s192.35,86.288,192.35,192.35
	S362.068,448.335,256.006,448.335z M256.006,81.374c-96.281,0-174.611,78.33-174.611,174.611s78.33,174.611,174.611,174.611
	s174.611-78.33,174.611-174.611S352.286,81.374,256.006,81.374z"/>
<path d="M254.029,511.982c-0.021,0-0.043,0-0.065,0c-41.79-0.298-83.405-11.086-120.343-31.196
	c-55.755-30.354-98.04-80.024-119.071-139.863c-20.875-59.398-19.242-124.036,4.596-182.007c1.864-4.529,7.046-6.692,11.576-4.83
	s6.692,7.046,4.83,11.576c-22.181,53.94-23.696,114.094-4.266,169.379c19.571,55.688,58.926,101.916,110.816,130.164
	c34.383,18.719,73.108,28.759,111.989,29.036c4.898,0.035,8.841,4.034,8.806,8.932C262.862,508.053,258.898,511.982,254.029,511.982
	z"/>
<path d="M75.301,96.249c-2.167,0-4.337-0.788-6.045-2.381c-3.583-3.34-3.781-8.952-0.441-12.535l0.415-0.445
	c3.347-3.577,8.959-3.763,12.537-0.416c3.576,3.347,3.763,8.959,0.416,12.537l-0.393,0.419C80.045,95.3,77.675,96.249,75.301,96.249
	z"/>
<path d="M342.925,496.152c-3.678,0-7.013-2.306-8.302-5.747c-0.828-2.223-0.757-4.636,0.225-6.788
	c0.982-2.164,2.744-3.808,4.967-4.636l0.118-0.047c1.005-0.378,2.058-0.568,3.122-0.568c3.666,0,7.013,2.306,8.302,5.747
	c0.378,1.017,0.568,2.081,0.568,3.158c-0.012,3.654-2.318,6.977-5.747,8.266l-0.13,0.047
	C345.042,495.963,343.989,496.152,342.925,496.152z M425.47,444.757c-2.472,0-4.754-0.982-6.457-2.779
	c-3.347-3.56-3.181-9.189,0.378-12.547l0.035-0.035c0.272-0.26,0.544-0.509,0.816-0.769c1.656-1.573,3.832-2.448,6.114-2.448
	c2.46,0,4.742,0.982,6.433,2.755c1.573,1.656,2.448,3.832,2.436,6.126c0,2.448-0.97,4.73-2.744,6.41l-0.922,0.875
	C429.905,443.905,427.74,444.757,425.47,444.757z M482.152,364.435v-0.059V364.435c-1.242,0-2.436-0.26-3.583-0.757
	c-2.164-0.958-3.832-2.696-4.683-4.908c-0.863-2.211-0.804-4.624,0.154-6.788c0.13-0.284,0.248-0.579,0.378-0.863l0.095-0.213
	c1.407-3.24,4.6-5.333,8.136-5.333c1.218,0,2.412,0.248,3.536,0.745c3.24,1.407,5.322,4.6,5.334,8.124
	c0,1.218-0.248,2.413-0.745,3.548c-0.166,0.39-0.331,0.769-0.509,1.159C488.845,362.354,485.664,364.435,482.152,364.435z
	 M503.119,268.408v-0.059V268.408c-0.035,0-0.083,0-0.118,0c-4.896-0.071-8.822-4.104-8.751-8.988c0-0.402,0.012-0.792,0.012-1.183
	c0.035-4.849,4.021-8.787,8.869-8.787h0.071c4.837,0.035,8.775,3.997,8.798,8.822c0,0.035,0,0.083,0,0.118l-0.012,1.265
	C511.917,264.482,507.944,268.408,503.119,268.408z M484.907,171.802c-3.631,0-6.847-2.176-8.219-5.535
	c-0.106-0.272-0.225-0.544-0.331-0.816l-0.118-0.272c-0.438-1.076-0.662-2.2-0.662-3.347c-0.012-3.631,2.152-6.859,5.499-8.231
	c1.076-0.449,2.211-0.674,3.37-0.674c3.607,0,6.824,2.164,8.207,5.499c0.13,0.319,0.26,0.639,0.39,0.958l0.083,0.213
	c1.845,4.529-0.355,9.709-4.884,11.554C487.178,171.589,486.054,171.802,484.907,171.802z M430.567,89.896
	c-2.365,0-4.588-0.922-6.256-2.59l-0.84-0.828c-1.715-1.703-2.661-3.962-2.637-6.362c0.012-2.33,0.911-4.529,2.554-6.185
	c1.679-1.703,3.914-2.637,6.315-2.637c2.342,0,4.553,0.911,6.22,2.554c0.26,0.248,0.52,0.509,0.781,0.769l0.13,0.13
	c3.465,3.453,3.465,9.07,0.012,12.535C435.179,88.974,432.944,89.896,430.567,89.896z M154.786,39.447L154.786,39.447
	c-3.489,0-6.67-2.058-8.101-5.251c-1.999-4.458,0-9.721,4.47-11.719c0.166-0.071,0.331-0.154,0.497-0.225
	c0.213-0.095,0.438-0.189,0.662-0.296c1.135-0.497,2.342-0.757,3.583-0.757c3.5,0,6.693,2.081,8.113,5.286
	c1.975,4.47-0.059,9.721-4.529,11.696l-0.012,0.012c-0.355,0.154-0.698,0.307-1.053,0.461c0,0.012,0,0.012-0.012,0.012
	C157.258,39.175,156.04,39.447,154.786,39.447z M348.53,35.721c-1.147,0-2.259-0.213-3.335-0.65l-1.088-0.438
	c-3.406-1.36-5.594-4.612-5.582-8.278c0.012-1.112,0.225-2.211,0.639-3.252c1.36-3.382,4.588-5.582,8.243-5.582
	c1.123,0,2.235,0.213,3.288,0.639l0.118,0.047c0.343,0.142,0.698,0.284,1.053,0.426c2.2,0.887,3.914,2.578,4.837,4.766
	c0.922,2.176,0.934,4.588,0.047,6.788C355.389,33.545,352.161,35.721,348.53,35.721z M250.683,17.781
	c-2.33,0-4.529-0.899-6.197-2.519c-1.679-1.632-2.625-3.82-2.673-6.149c0-0.083,0-0.154,0-0.225c0-2.33,0.899-4.518,2.531-6.185
	c1.62-1.656,3.808-2.602,6.138-2.661c0.213,0,0.426-0.012,0.65-0.012l0.615-0.012c2.401-0.035,4.659,0.863,6.362,2.543
	c1.679,1.632,2.614,3.832,2.661,6.173c0.035,2.365-0.84,4.612-2.495,6.315c-1.644,1.703-3.855,2.661-6.22,2.708
	c-0.39,0-0.769,0.012-1.159,0.024h-0.024C250.813,17.781,250.742,17.781,250.683,17.781z"/>
<path d="M342.392,496.355c-3.6,0-6.986-2.208-8.315-5.781c-1.708-4.592,0.63-9.697,5.222-11.405l0.523-0.195
	c4.584-1.724,9.7,0.594,11.424,5.179c1.724,4.585-0.594,9.7-5.179,11.424l-0.585,0.219
	C344.463,496.176,343.419,496.355,342.392,496.355z"/>
<path d="M341.63,350.479c-2.263,0-4.527-0.861-6.258-2.584l-85.993-85.607c-1.678-1.671-2.619-3.944-2.611-6.313l0.37-119.891
	c0.015-4.889,3.984-8.842,8.869-8.842c0.009,0,0.019,0,0.027,0c4.898,0.015,8.858,3.998,8.842,8.897l-0.358,116.19l83.37,82.996
	c3.472,3.456,3.484,9.072,0.028,12.543C346.183,349.608,343.906,350.479,341.63,350.479z"/>
<path d="M339.951,289.901c-0.838,0-1.691-0.119-2.535-0.371c-4.695-1.399-7.366-6.338-5.969-11.032
	c2.167-7.272,3.264-14.845,3.264-22.511c0-26.89-13.518-51.649-36.16-66.228c-4.118-2.651-5.307-8.141-2.655-12.259
	c2.654-4.119,8.141-5.306,12.259-2.656c27.737,17.86,44.295,48.193,44.295,81.142c0,9.382-1.347,18.659-4.002,27.576
	C347.301,287.41,343.772,289.901,339.951,289.901z"/>
<path d="M256.006,352.429c-53.18,0-96.444-43.264-96.444-96.444c0-33.826,17.237-64.586,46.109-82.282
	c4.177-2.56,9.638-1.249,12.197,2.927c2.56,4.176,1.249,9.637-2.927,12.197c-23.57,14.445-37.641,39.552-37.641,67.158
	c0,43.399,35.306,78.705,78.705,78.705c5.596,0,11.181-0.589,16.596-1.751c4.794-1.029,9.506,2.022,10.532,6.812
	c1.028,4.789-2.021,9.504-6.812,10.532C269.687,351.707,262.852,352.429,256.006,352.429z"/>
<g>
</g>
<g>
</g>
<g>
</g>
<g>
</g>
<g>
</g>
<g>
</g>
<g>
</g>
<g>
</g>
<g>
</g>
<g>
</g>
<g>
</g>
<g>
</g>
<g>
</g>
<g>
</g>
<g>
</g>
</svg>
