<?xml version="1.0" encoding="iso-8859-1"?>
<!-- Generator: Adobe Illustrator 19.0.0, SVG Export Plug-In . SVG Version: 6.00 Build 0)  -->
<svg version="1.1" id="Layer_1" xmlns="http://www.w3.org/2000/svg" xmlns:xlink="http://www.w3.org/1999/xlink" x="0px" y="0px"
	 viewBox="0 0 512 512" style="enable-background:new 0 0 512 512;" xml:space="preserve">
<path style="fill:#9AF7DD;" d="M333.35,447.258v-49.09c0-11.69-9.476-21.166-21.166-21.166H193.652
	c-12.26,0-21.955,10.384-21.116,22.615l3.333,48.586c0.033,0.483,0.05,0.965,0.05,1.449v32.31c0,11.69,9.476,21.166,21.166,21.166
	h115.464c11.69,0,21.166-9.476,21.166-21.166v-33.035"/>
<path style="fill:#6BE8C7;" d="M175.633,457.356c0,0,70.751,40.321,157.479,1.521l0.761-40.321l-159.761-5.326L175.633,457.356z"/>
<path style="fill:#FFEFCA;" d="M476.842,233.658c0,1.679-0.02,3.363-0.058,5.05c-2.705,119.542-101.355,215.934-220.927,216.018
	c-122.261,0.086-221.39-99.043-221.303-221.303C34.64,110.797,135.853,10.948,258.469,12.454c1.786,0.022,3.568,0.065,5.343,0.129
	c75.442,2.721,143.742,45.476,181.121,111.063l4.053,7.111C466.867,162.132,476.854,197.544,476.842,233.658z"/>
<path d="M256.001,17.744c66.099,0,127.382,29.908,168.135,82.055c3.018,3.862,8.594,4.547,12.453,1.527
	c3.861-3.016,4.545-8.593,1.527-12.453C393.976,32.393,327.598,0,256.001,0C128.627,0,25,103.627,25,231
	c0,96.664,59.689,179.635,144.139,214.034c-0.576,1.176-0.91,2.494-0.91,3.893v54.201c0,4.901,3.972,8.872,8.872,8.872h157.796
	c4.901,0,8.872-3.971,8.872-8.872v-54.201c0-1.399-0.332-2.717-0.91-3.894C427.31,410.636,487,327.664,487,231
	c0-28.957-5.292-57.201-15.729-83.949c-1.783-4.563-6.925-6.818-11.491-5.04c-4.564,1.781-6.822,6.926-5.04,11.491
	c9.633,24.682,14.516,50.757,14.516,77.499c0,100.191-69.456,184.451-162.743,207.196l58.158-203.544
	c0.764-2.677,0.228-5.557-1.449-7.78c-1.676-2.223-4.299-3.529-7.082-3.529h-56.675v-45.75c0-4.901-3.971-8.872-8.872-8.872
	s-8.872,3.971-8.872,8.872v45.75h-51.441v-45.75c0-4.901-3.972-8.872-8.872-8.872c-4.9,0-8.872,3.971-8.872,8.872v45.75h-56.673
	c-2.772,0-5.385,1.296-7.062,3.503c-1.677,2.206-2.227,5.07-1.487,7.741l56.371,203.169C111.305,414.368,42.744,330.544,42.744,231
	C42.744,113.41,138.411,17.744,256.001,17.744z M326.027,494.256H185.975v-43.117c22.098,7.045,45.623,10.862,70.026,10.862
	c24.402,0,47.928-3.816,70.026-10.862V494.256z M222.673,439.832L167.53,241.085h45.005v49.39c0,4.901,3.972,8.872,8.872,8.872
	c4.9,0,8.872-3.971,8.872-8.872v-49.39h51.444v49.39c0,4.901,3.971,8.872,8.872,8.872s8.872-3.971,8.872-8.872v-49.39h44.913
	l-57.403,200.913c-10.115,1.479-20.455,2.257-30.975,2.257c-11.229,0-22.257-0.879-33.022-2.56
	C222.943,441.078,222.845,440.454,222.673,439.832z"/>
<g>
</g>
<g>
</g>
<g>
</g>
<g>
</g>
<g>
</g>
<g>
</g>
<g>
</g>
<g>
</g>
<g>
</g>
<g>
</g>
<g>
</g>
<g>
</g>
<g>
</g>
<g>
</g>
<g>
</g>
</svg>
