<?xml version="1.0" encoding="iso-8859-1"?>
<!-- Generator: Adobe Illustrator 19.0.0, SVG Export Plug-In . SVG Version: 6.00 Build 0)  -->
<svg version="1.1" id="Layer_1" xmlns="http://www.w3.org/2000/svg" xmlns:xlink="http://www.w3.org/1999/xlink" x="0px" y="0px"
	 viewBox="0 0 512 512" style="enable-background:new 0 0 512 512;" xml:space="preserve">
<path style="fill:#FFC843;" d="M314.48,156.829v-22.855c0-6.04-4.941-10.981-10.981-10.981H208.49
	c-6.04,0-10.981,4.941-10.981,10.981v22.855H314.48z"/>
<path style="fill:#333E48;" d="M401.698,162.52H366.19V93.87c0-3.209-2.71-5.919-5.918-5.919H151.724
	c-3.209,0-5.918,2.71-5.918,5.919v68.65h-35.509V93.87c0-22.843,18.584-41.427,41.427-41.427h208.547
	c22.843,0,41.427,18.584,41.427,41.427V162.52z"/>
<rect x="110.294" y="126.084" style="opacity:0.2;enable-background:new    ;" width="35.513" height="36.435"/>
<rect x="366.186" y="126.084" style="opacity:0.2;enable-background:new    ;" width="35.513" height="36.435"/>
<path style="fill:#333E48;" d="M503.764,435.883c0,13.02-10.653,23.673-23.672,23.673H31.908c-13.02,0-23.672-10.653-23.672-23.673
	V168.266c0-13.019,10.652-23.673,23.672-23.673h448.185c13.019,0,23.672,10.653,23.672,23.673L503.764,435.883L503.764,435.883z"/>
<g>
	<path style="fill:#FFC843;" d="M438.611,459.556h41.481c13.019,0,23.672-10.653,23.672-23.673v-41.48
		C467.781,394.404,438.611,423.573,438.611,459.556z"/>
	<path style="fill:#FFC843;" d="M73.388,459.556h-41.48c-13.02,0-23.672-10.653-23.672-23.673v-41.48
		C44.219,394.404,73.388,423.573,73.388,459.556z"/>
</g>
<g>
	<rect x="95.14" y="144.598" style="fill:#5C6670;" width="65.815" height="314.959"/>
	<rect x="349.011" y="144.598" style="fill:#5C6670;" width="65.815" height="314.959"/>
</g>
<path style="fill:#1E252B;" d="M480.092,136.357h-70.158V93.87c0-27.385-22.278-49.663-49.663-49.663H151.724
	c-27.385,0-49.663,22.279-49.663,49.663v42.487H31.908C14.314,136.357,0,150.671,0,168.266v267.619
	c0,17.594,14.314,31.909,31.908,31.909h448.185c17.594,0,31.908-14.314,31.908-31.909V168.266
	C512,150.671,497.686,136.357,480.092,136.357z M118.533,93.87c0-18.302,14.89-33.191,33.191-33.191h208.547
	c18.301,0,33.191,14.89,33.191,33.191v42.487h-19.037V93.87c0-7.805-6.349-14.155-14.154-14.155H151.724
	c-7.804,0-14.154,6.349-14.154,14.155v42.487h-19.038C118.533,136.357,118.533,93.87,118.533,93.87z M303.499,114.757H208.49
	c-10.597,0-19.217,8.62-19.217,19.217v2.383h-35.231v-40.17h203.911v40.17h-35.238v-2.383
	C322.716,123.378,314.095,114.757,303.499,114.757z M306.244,133.974v2.383h-100.5v-2.383c0-1.488,1.257-2.745,2.745-2.745h95.009
	C304.987,131.229,306.244,132.486,306.244,133.974z M31.908,451.32c-8.511,0-15.436-6.925-15.436-15.437v-32.639
	c24.799,3.616,44.455,23.277,48.065,48.076H31.908z M495.528,435.883c0,8.511-6.925,15.437-15.436,15.437h-32.641
	c3.612-24.803,23.273-44.466,48.077-48.077V435.883z M495.528,386.642c-33.896,3.805-60.874,30.782-64.677,64.678H81.138
	c-3.804-33.893-30.776-60.867-64.666-64.676V168.266c0-8.511,6.925-15.437,15.436-15.437h448.185
	c8.511,0,15.436,6.925,15.436,15.437L495.528,386.642L495.528,386.642z"/>
<g>
</g>
<g>
</g>
<g>
</g>
<g>
</g>
<g>
</g>
<g>
</g>
<g>
</g>
<g>
</g>
<g>
</g>
<g>
</g>
<g>
</g>
<g>
</g>
<g>
</g>
<g>
</g>
<g>
</g>
</svg>
