<?xml version="1.0" encoding="utf-8"?>
<!-- Generator: Adobe Illustrator 16.0.0, SVG Export Plug-In . SVG Version: 6.00 Build 0)  -->
<!DOCTYPE svg PUBLIC "-//W3C//DTD SVG 1.1//EN" "http://www.w3.org/Graphics/SVG/1.1/DTD/svg11.dtd">
<svg version="1.1" id="Layer_1" xmlns="http://www.w3.org/2000/svg" xmlns:xlink="http://www.w3.org/1999/xlink" x="0px" y="0px"
	 width="512px" height="512px" viewBox="0 0 512 512" enable-background="new 0 0 512 512" xml:space="preserve">
<g id="_x31__site_x2C__seo_x2C__marketing_x2C__target_x2C__arrow_x2C__business_1_">
	<g>
		<path fill="#656D78" d="M92.947,421.104c0,0-20.827,63.783-20.827,74.825s0.969,12.011,11.995,11.995
			c20.006,0.016,71.549-50.812,71.549-50.812L92.947,421.104z"/>
	</g>
	<g opacity="0.2">
		<path d="M137.629,458.61c-16.02,14.696-47.025,41.333-61.511,41.317c-1.491,0-2.768-0.023-3.912-0.078
			c0.367,7.332,2.374,8.09,11.909,8.074c15.645,0.008,50.59-31.08,65.072-44.629L137.629,458.61z"/>
	</g>
	<g>
		<path fill="#656D78" d="M347.162,421.104c0,0,20.827,63.783,20.827,74.825s-0.969,12.011-11.995,11.995
			c-20.007,0.016-71.545-50.812-71.545-50.812L347.162,421.104z"/>
	</g>
	<g opacity="0.2">
		<path fill="#FFFFFF" d="M302.503,458.587c16.009,14.688,47.041,41.356,61.535,41.341c1.491,0,2.764-0.023,3.912-0.078
			c-0.367,7.332-2.374,8.09-11.909,8.074c-15.673,0.016-50.68-31.158-65.126-44.675L302.503,458.587z"/>
	</g>
	<g opacity="0.2">
		<path d="M343.43,434.434c6.075,19.272,16.562,53.647,16.562,61.495c0,8.52-0.632,11.019-5.95,11.722
			c0.648,0.094,1.359,0.273,1.952,0.273c11.026,0.016,11.995-0.953,11.995-11.995c0.008-8.574-12.549-48.938-18.164-66.563
			L343.43,434.434z"/>
	</g>
	<g opacity="0.2">
		<path fill="#FFFFFF" d="M80.117,495.929c0-7.848,10.483-42.223,16.559-61.495l-6.396-5.045
			c-5.615,17.633-18.16,57.974-18.16,66.54c0,11.042,0.969,12.011,11.995,11.995c0.597,0,1.308-0.18,1.957-0.273
			C80.749,506.947,80.117,504.448,80.117,495.929z"/>
	</g>
	<g>
		<path fill="#E6E9ED" d="M415.959,272.039c0,108.279-87.632,195.91-195.906,195.91c-108.278,0-195.91-87.631-195.91-195.91
			c0-108.282,87.632-195.914,195.91-195.914C328.327,76.125,415.959,163.757,415.959,272.039z"/>
	</g>
	<g opacity="0.2">
		<path d="M347.162,421.104l-62.713,36.008c0,0,2.499,2.459,6.474,6.184c21.6-7.996,41.473-19.529,58.902-33.922
			C348.225,424.36,347.162,421.104,347.162,421.104z"/>
	</g>
	<g opacity="0.2">
		<path d="M90.288,429.381c17.429,14.393,37.299,25.918,58.895,33.914c3.975-3.725,6.481-6.184,6.481-6.184l-62.717-36.008
			C92.947,421.104,91.885,424.36,90.288,429.381z"/>
	</g>
	<g>
		<path fill="#FFFFFF" d="M32.139,272.039c0-106.939,85.484-193.673,191.9-195.812c-1.327-0.039-2.647-0.102-3.986-0.102
			c-108.278,0-195.91,87.632-195.91,195.914c0,108.279,87.632,195.91,195.91,195.91c1.339,0,2.659-0.062,3.986-0.109
			C117.623,465.701,32.139,378.975,32.139,272.039z"/>
	</g>
	<g>
		<path fill="#ED5565" d="M379.976,272.039c0,88.382-71.537,159.927-159.923,159.927c-88.39,0-159.927-71.545-159.927-159.927
			c0-88.393,71.537-159.931,159.927-159.931C308.438,112.108,379.976,183.646,379.976,272.039z"/>
	</g>
	<g opacity="0.4">
		<path fill="#FFFFFF" d="M68.122,272.039c0-87.042,69.41-157.588,155.929-159.728c-1.343-0.035-2.647-0.203-3.998-0.203
			c-88.39,0-159.927,71.538-159.927,159.931c0,88.382,71.537,159.927,159.927,159.927c1.351,0,2.655-0.171,3.998-0.202
			C137.532,429.623,68.122,359.078,68.122,272.039z"/>
	</g>
	<g>
		<path fill="#E6E9ED" d="M343.992,272.039c0,68.5-55.443,123.943-123.939,123.943c-68.5,0-123.943-55.443-123.943-123.943
			c0-68.504,55.443-123.947,123.943-123.947C288.549,148.092,343.992,203.535,343.992,272.039z"/>
	</g>
	<g>
		<path fill="#FFFFFF" d="M104.105,272.039c0-67.152,53.315-121.62,119.945-123.744c-1.339-0.043-2.647-0.203-3.998-0.203
			c-68.5,0-123.943,55.443-123.943,123.947c0,68.5,55.443,123.943,123.943,123.943c1.351,0,2.659-0.164,3.998-0.203
			C157.421,393.655,104.105,339.181,104.105,272.039z"/>
	</g>
	<g>
		<path fill="#ED5565" d="M308.009,272.039c0,48.604-39.35,87.96-87.956,87.96c-48.61,0-87.96-39.356-87.96-87.96
			c0-48.614,39.35-87.963,87.96-87.963C268.659,184.076,308.009,223.425,308.009,272.039z"/>
	</g>
	<g opacity="0.4">
		<path fill="#FFFFFF" d="M140.089,272.039c0-47.263,37.222-85.66,83.962-87.76c-1.335-0.062-2.647-0.203-3.998-0.203
			c-48.61,0-87.96,39.349-87.96,87.963c0,48.604,39.35,87.96,87.96,87.96c1.351,0,2.663-0.141,3.998-0.203
			C177.311,357.688,140.089,319.299,140.089,272.039z"/>
	</g>
	<g>
		<path fill="#E6E9ED" d="M272.024,272.039c0,28.722-23.25,51.977-51.972,51.977c-28.722,0-51.977-23.255-51.977-51.977
			c0-28.725,23.255-51.979,51.977-51.979C248.774,220.06,272.024,243.314,272.024,272.039z"/>
	</g>
	<g>
		<path fill="#FFFFFF" d="M176.073,272.039c0-27.374,21.135-49.735,47.978-51.777c-1.323-0.102-2.647-0.203-3.998-0.203
			c-28.722,0-51.977,23.255-51.977,51.979c0,28.722,23.255,51.977,51.977,51.977c1.351,0,2.675-0.109,3.998-0.203
			C197.208,321.767,176.073,299.402,176.073,272.039z"/>
	</g>
	<g>
		<path fill="#ED5565" d="M236.045,272.039c0,8.824-7.161,15.993-15.993,15.993s-15.993-7.169-15.993-15.993
			c0-8.836,7.161-15.996,15.993-15.996S236.045,263.203,236.045,272.039z"/>
	</g>
	<g opacity="0.4">
		<path fill="#FFFFFF" d="M212.057,272.039c0-7.449,5.106-13.646,11.994-15.43c-1.285-0.332-2.608-0.566-3.998-0.566
			c-8.832,0-15.993,7.16-15.993,15.996c0,8.824,7.161,15.993,15.993,15.993c1.39,0,2.713-0.234,3.998-0.57
			C217.163,285.674,212.057,279.474,212.057,272.039z"/>
	</g>
	<g opacity="0.2">
		<path d="M407.963,272.039c0-106.939-85.484-193.673-191.9-195.812c1.327-0.039,2.647-0.102,3.986-0.102
			c108.278,0,195.91,87.632,195.91,195.914c0,108.279-87.632,195.91-195.91,195.91c-1.339,0-2.659-0.062-3.986-0.109
			C322.479,465.701,407.963,378.975,407.963,272.039z"/>
	</g>
	<g opacity="0.2">
		<path d="M371.979,272.039c0-87.042-69.414-157.588-155.929-159.728c1.343-0.035,2.647-0.203,3.998-0.203
			c88.39,0,159.927,71.538,159.927,159.931c0,88.382-71.537,159.927-159.927,159.927c-1.351,0-2.655-0.171-3.998-0.202
			C302.565,429.623,371.979,359.078,371.979,272.039z"/>
	</g>
	<g opacity="0.2">
		<path d="M335.995,272.039c0-67.152-53.318-121.62-119.944-123.744c1.339-0.043,2.647-0.203,3.998-0.203
			c68.5,0,123.943,55.443,123.943,123.947c0,68.5-55.443,123.943-123.943,123.943c-1.351,0-2.659-0.164-3.998-0.203
			C282.677,393.655,335.995,339.181,335.995,272.039z"/>
	</g>
	<g opacity="0.2">
		<path d="M300.013,272.039c0-47.263-37.222-85.66-83.962-87.76c1.335-0.062,2.647-0.203,3.998-0.203
			c48.61,0,87.96,39.349,87.96,87.963c0,48.604-39.35,87.96-87.96,87.96c-1.351,0-2.663-0.141-3.998-0.203
			C262.791,357.688,300.013,319.299,300.013,272.039z"/>
	</g>
	<g opacity="0.2">
		<path d="M264.028,272.039c0-27.374-21.135-49.735-47.978-51.777c1.323-0.102,2.647-0.203,3.998-0.203
			c28.721,0,51.976,23.255,51.976,51.979c0,28.722-23.254,51.977-51.976,51.977c-1.351,0-2.675-0.109-3.998-0.203
			C242.894,321.767,264.028,299.402,264.028,272.039z"/>
	</g>
	<g opacity="0.2">
		<path d="M228.045,272.039c0-7.449-5.107-13.646-11.994-15.43c1.284-0.332,2.608-0.566,3.998-0.566
			c8.832,0,15.993,7.16,15.993,15.996c0,8.824-7.161,15.993-15.993,15.993c-1.39,0-2.714-0.234-3.998-0.57
			C222.938,285.674,228.045,279.474,228.045,272.039z"/>
	</g>
	<g opacity="0.3">
		<g>
			<path d="M415.959,276.037h-195.91c-2.21,0-3.998-1.796-3.998-3.998c0-2.218,1.788-3.998,3.998-3.998h195.91
				c2.21,0,3.998,1.78,3.998,3.998C419.957,274.241,418.169,276.037,415.959,276.037z"/>
		</g>
	</g>
	<g id="_x31__site_x2C__seo_x2C__marketing_x2C__target_x2C__arrow_x2C__business">
		<g>
			<path fill="#3A3847" d="M220.061,471.947c-110.227-0.016-199.905-89.701-199.909-199.924
				c0.004-110.23,89.682-199.908,199.905-199.908c45.026,0,87.522,14.603,122.881,42.234c1.741,1.359,2.054,3.873,0.695,5.611
				c-1.366,1.738-3.873,2.05-5.614,0.691c-33.945-26.522-74.736-40.54-117.962-40.54c-105.815,0-191.904,86.094-191.908,191.912
				c0.004,105.812,86.097,191.912,191.912,191.928c105.822-0.016,191.908-86.116,191.9-191.928
				c0.008-43.277-14.056-84.133-40.669-118.152c-1.358-1.738-1.055-4.252,0.688-5.615c1.741-1.358,4.248-1.05,5.614,0.688
				c27.722,35.44,42.371,78.003,42.363,123.08C419.965,382.246,330.295,471.932,220.061,471.947z"/>
		</g>
		<g>
			<path fill="#3A3847" d="M220.061,435.949c-43.789,0-84.953-17.055-115.916-48.01c-30.962-30.971-48.013-72.131-48.009-115.916
				c0-43.776,17.051-84.938,48.013-115.904c30.963-30.962,72.12-48.013,115.889-48.013c0.008,0,0.012,0,0.016,0
				c35.257,0,68.839,11.015,97.123,31.853c1.78,1.308,2.155,3.811,0.844,5.587c-1.304,1.781-3.818,2.159-5.583,0.847
				c-26.902-19.815-58.845-30.291-92.384-30.291c-0.004,0-0.012,0-0.016,0c-41.637,0-80.779,16.22-110.235,45.671
				c-29.452,29.455-45.67,68.609-45.67,110.25c-0.004,41.653,16.215,80.807,45.667,110.254
				c29.452,29.456,68.613,45.675,110.262,45.675c85.972-0.016,155.917-69.952,155.925-155.913
				c-0.008-33.629-10.534-65.642-30.439-92.578c-1.319-1.777-0.938-4.279,0.836-5.592c1.78-1.323,4.287-0.933,5.591,0.836
				c20.936,28.323,32.001,61.979,32.009,97.334C383.974,362.404,310.437,435.934,220.061,435.949z"/>
		</g>
		<g>
			<path fill="#3A3847" d="M220.061,399.98c-70.546-0.016-127.941-57.419-127.941-127.957c0-34.168,13.306-66.298,37.471-90.462
				c24.165-24.165,56.287-37.472,90.451-37.472c0.008,0,0.012,0,0.016,0c25.465,0,50.063,7.462,71.14,21.58
				c1.835,1.23,2.326,3.713,1.101,5.548c-1.233,1.839-3.717,2.323-5.552,1.097c-19.757-13.236-42.812-20.229-66.688-20.229
				c-0.004,0-0.012,0-0.016,0c-32.028,0-62.144,12.475-84.797,35.128c-22.654,22.658-35.129,52.776-35.129,84.809
				c0,66.126,53.808,119.945,119.945,119.961c66.13,0,119.934-53.804,119.934-119.945c0-24.047-7.075-47.24-20.468-67.074
				c-1.233-1.832-0.758-4.314,1.078-5.553c1.835-1.226,4.318-0.749,5.552,1.078c14.282,21.158,21.834,45.9,21.834,71.549
				C347.99,342.585,290.603,399.98,220.061,399.98z"/>
		</g>
		<g>
			<path fill="#3A3847" d="M220.053,363.981c-24.559,0-47.65-9.565-65.021-26.94c-17.371-17.367-26.937-40.458-26.933-65.018
				c0-50.707,41.251-91.958,91.958-91.958c15.653,0,31.114,4.01,44.714,11.597c1.929,1.074,2.624,3.51,1.546,5.439
				c-1.077,1.925-3.518,2.612-5.438,1.542c-12.413-6.923-26.531-10.581-40.821-10.581c-46.295,0-83.962,37.666-83.962,83.961
				c-0.004,22.428,8.73,43.512,24.591,59.363c15.859,15.868,36.944,24.599,59.367,24.599c46.295,0,83.958-37.671,83.958-83.962
				c0.008-14.364-3.687-28.541-10.684-41.008c-1.085-1.925-0.397-4.361,1.531-5.443c1.921-1.078,4.357-0.398,5.442,1.53
				c7.669,13.658,11.714,29.194,11.706,44.921C312.007,322.734,270.76,363.981,220.053,363.981z"/>
		</g>
		<g>
			<path fill="#3A3847" d="M220.053,327.998c-30.857,0-55.971-25.098-55.979-55.959c0.012-30.872,25.129-55.99,55.986-55.99
				c5.688,0,11.307,0.855,16.703,2.542c2.108,0.656,3.284,2.897,2.624,5.006c-0.652,2.104-2.917,3.28-5.006,2.624
				c-4.623-1.441-9.441-2.175-14.321-2.175c-26.453,0-47.979,21.529-47.99,47.993c0.008,26.441,21.533,47.963,47.982,47.963
				c26.457,0,47.974-21.521,47.974-47.979c0-4.959-0.749-9.854-2.24-14.548c-0.672-2.104,0.491-4.354,2.6-5.021
				c2.132-0.667,4.357,0.5,5.021,2.6c1.733,5.479,2.616,11.19,2.616,16.969C276.023,302.885,250.917,327.998,220.053,327.998z"/>
		</g>
		<g>
			<path fill="#3A3847" d="M220.658,291.226c-5.337,0-10.354-2.077-14.123-5.849c-7.789-7.793-7.789-20.49-0.004-28.284
				c1.562-1.562,4.096-1.558,5.658-0.004c1.562,1.562,1.562,4.092,0.004,5.657c-4.677,4.686-4.677,12.292,0,16.978
				c2.257,2.265,5.263,3.506,8.465,3.506c0.004,0,0.008,0,0.012,0c3.206-0.008,6.22-1.257,8.48-3.521
				c1.562-1.562,4.096-1.562,5.658,0s1.562,4.092,0.004,5.653c-3.775,3.779-8.793,5.856-14.134,5.864
				C220.669,291.226,220.662,291.226,220.658,291.226z"/>
		</g>
		<g>
			<path fill="#3A3847" d="M220.049,276.021c-1.023,0-2.046-0.391-2.827-1.171c-1.562-1.562-1.562-4.092,0-5.653L479.367,6.903
				c1.562-1.562,4.093-1.562,5.654,0s1.562,4.092,0,5.654L222.875,274.851C222.095,275.631,221.072,276.021,220.049,276.021z"/>
		</g>
		<g>
			<path fill="#3A3847" d="M83.791,511.914c-5.814,0-9.859-0.25-12.631-3.015c-2.827-2.827-3.038-6.974-3.038-12.979
				c0-11.354,14.532-56.146,16.192-61.214c0.683-2.101,2.928-3.256,5.041-2.554c2.101,0.68,3.245,2.937,2.558,5.037
				c-4.393,13.438-15.794,50.195-15.794,58.73c0,4.396,0.234,6.856,0.691,7.317c0.461,0.453,2.925,0.648,7.301,0.68
				c0,0,0.004,0,0.008,0c15.052,0,46.354-28.003,57.146-38.795c1.562-1.562,4.092-1.562,5.653,0c1.562,1.562,1.562,4.092,0,5.653
				c-4.209,4.217-41.73,41.138-62.792,41.138C84.01,511.867,83.904,511.914,83.791,511.914z"/>
		</g>
		<g>
			<path fill="#3A3847" d="M355.986,511.93c-21.037,0-58.583-36.952-62.792-41.169c-1.562-1.562-1.562-4.092,0-5.653
				c1.562-1.562,4.093-1.562,5.654,0c10.8,10.8,42.113,38.826,57.138,38.826c8.005,0,8.005,0,8.005-7.997
				c-0.008-8.543-11.417-45.308-15.813-58.746c-0.688-2.101,0.452-4.35,2.554-5.037c2.108-0.687,4.357,0.461,5.044,2.554
				c1.655,5.068,16.204,49.86,16.212,61.229C371.979,509.243,369.285,511.93,355.986,511.93z"/>
		</g>
		<g>
			<path fill="#3A3847" d="M470.871,25.043c-1.671,0-3.232-1.058-3.795-2.733l-5.653-16.977c-0.695-2.097,0.438-4.361,2.529-5.06
				c2.117-0.688,4.365,0.433,5.061,2.53l5.654,16.977c0.694,2.097-0.438,4.361-2.53,5.06
				C471.715,24.977,471.293,25.043,470.871,25.043z"/>
		</g>
		<g>
			<path fill="#3A3847" d="M425.642,47.658c-1.022,0-2.045-0.391-2.826-1.171c-1.562-1.562-1.562-4.092,0-5.653l39.575-39.592
				c1.562-1.562,4.092-1.562,5.654,0c1.562,1.562,1.562,4.092,0,5.654l-39.576,39.591C427.688,47.267,426.665,47.658,425.642,47.658
				z"/>
		</g>
		<g>
			<path fill="#3A3847" d="M425.642,70.272c-2.209,0-3.998-1.788-3.998-3.998V43.659c0-2.21,1.789-3.998,3.998-3.998
				c2.211,0,3.999,1.788,3.999,3.998v22.615C429.641,68.484,427.853,70.272,425.642,70.272z"/>
		</g>
		<g>
			<path fill="#3A3847" d="M487.848,30.689c-0.413,0-0.843-0.066-1.257-0.203l-16.977-5.646c-2.101-0.699-3.232-2.963-2.538-5.056
				c0.695-2.101,2.96-3.217,5.061-2.534l16.977,5.646c2.093,0.699,3.225,2.964,2.53,5.057
				C491.089,29.631,489.526,30.689,487.848,30.689z"/>
		</g>
		<g>
			<path fill="#3A3847" d="M448.257,70.272c-1.023,0-2.046-0.391-2.827-1.171c-1.562-1.562-1.562-4.092,0-5.654l39.592-39.583
				c1.562-1.562,4.092-1.562,5.653,0s1.562,4.092,0,5.654l-39.592,39.583C450.303,69.882,449.28,70.272,448.257,70.272z"/>
		</g>
		<g>
			<path fill="#3A3847" d="M448.257,70.272h-22.615c-2.209,0-3.998-1.788-3.998-3.998s1.789-3.999,3.998-3.999h22.615
				c2.21,0,3.998,1.789,3.998,3.999S450.467,70.272,448.257,70.272z"/>
		</g>
	</g>
</g>
</svg>
