<svg width="212" height="152" viewBox="0 0 212 152" fill="none" xmlns="http://www.w3.org/2000/svg">
<rect width="212" height="152" fill=""/>
<rect width="212" height="152" fill=""/>
<g clip-path="url(#clip0_0_1)">
<path d="M82.8526 70.6758L109.182 55.1905M5.53662 115.055L44.1946 92.0821M5.53662 69.1095L44.5929 46.0283" stroke="#000000" stroke-width="2"/>
<path d="M6.06616 24.2085L83.9117 70.6758" stroke="#000000" stroke-width="2"/>
<path d="M44.6723 1.84045L5.53662 24.3515V114.912L44.1417 137.118V125.154V85.7991V66.122V46.4449V46.141L44.2751 46.0658M44.6723 1.84045L83.3811 24.0476L44.4086 45.9907L44.2751 46.0658M44.6723 1.84045L44.2751 46.0658" stroke="#000000" stroke-width="2"/>
<path d="M83.3652 24.0581L122.092 1.84045L144.603 15.9973M83.3652 24.0581L109 39M83.3652 24.0581V47.1059V70.1537" stroke="#000000" stroke-width="2"/>
<path d="M182 127C168.036 117.271 159.964 112.729 146 103" stroke="#000000" stroke-width="2"/>
<path d="M144 15.5L182.012 39.0211L144.678 61M144 15.5L144.678 61M144 15.5L108.906 39.2477V82.9284L145.911 102.86M144.678 61L182.491 83.5152M145.911 102.86L182.491 83.5152M145.911 102.86L145.666 146M145.911 102.86L123.738 115.98L109.417 124.454L145.666 146M182.491 83.5152V97.1313V111.853V127.093L145.666 146" stroke="#000000" stroke-width="2"/>
<path d="M144.463 60.9871L108.906 39.1584" stroke="#000000" stroke-width="2"/>
<path d="M109.4 82.6127L144.957 60.9871" stroke="#000000" stroke-width="2"/>
</g>
<defs>
<clipPath id="clip0_0_1">
<rect width="208" height="147" fill=""/>
</clipPath>
</defs>
</svg>
