<svg width="212" height="152" viewBox="0 0 212 152" fill="none" xmlns="http://www.w3.org/2000/svg">
<rect width="212" height="152" fill=""/>
<rect width="212" height="152" fill=""/>
<path d="M84.4459 73.0797L124.117 49.0558M5.64307 118.968L45.0445 95.2141M5.64307 71.4601L45.4504 47.5938" stroke="#747474" stroke-width="2"/>
<path d="M6.1828 25.0319L85.5254 73.0797" stroke="#747474" stroke-width="2"/>
<path d="M45.5313 1.90305L5.64307 25.1798V118.82L44.9905 141.782V129.411V88.7174V68.371V48.0246V47.7104L45.1265 47.6327M45.5313 1.90305L84.9846 24.8656L45.2625 47.555L45.1265 47.6327M45.5313 1.90305L45.1265 47.6327" stroke="#747474" stroke-width="2"/>
<path d="M124.981 118.968V141.782L144.655 130.301M84.9684 24.8764L124.44 1.90305L144.384 13.5414M84.9684 24.8764L124.717 48.6401L124.981 48.7977V49.1044M84.9684 24.8764V48.7081V72.5399" stroke="#747474" stroke-width="2"/>
<path d="M205.889 118.428C190.396 109.237 181.44 104.946 165.948 95.754" stroke="#747474" stroke-width="2"/>
<path d="M164.544 1.90091L205.348 24.816L165.354 47.8865L164.868 48.246M164.544 1.90091L164.868 48.246M164.544 1.90091L125.467 25.1269V71.58L145.68 83.7388L165.892 95.8976M164.868 48.246L205.889 72.2041M165.892 95.8976L205.889 72.2041M165.892 95.8976L165.624 141.775M165.892 95.8976L141.659 109.85L126.007 118.861L165.624 141.775M205.889 72.2041V86.6843V102.34V118.548L165.624 141.775" stroke="#747474" stroke-width="2"/>
<path d="M164.328 48.246L125.467 25.0319" stroke="#747474" stroke-width="2"/>
<path d="M126.006 71.2442L164.868 48.246" stroke="#747474" stroke-width="2"/>
</svg>
