<svg width="629" height="439" viewBox="0 0 629 439" fill="none" xmlns="http://www.w3.org/2000/svg">
<rect width="629" height="439" fill="#E5E5E5"/>
<rect width="629" height="439" fill="white"/>
<path d="M445 141H183V297H445V141Z" fill="#E5E5E5"/>
<path d="M445 141H183V297H445V141Z" fill="white"/>
<path d="M227.5 155L227 197.5" stroke="black"/>
<path d="M337 176L265.237 219.801M227.376 196.896L208.938 207.948L190.5 219" stroke="black"/>
<path d="M337.75 219.8C323.398 211.287 315.352 206.513 301 198" stroke="black"/>
<path d="M438 262.5C423.648 253.987 415.852 249.513 401.5 241" stroke="black"/>
<path d="M191 176L265.5 219.6" stroke="black"/>
<path d="M226.999 241.846L190.5 263M301.001 241.846L337 262.5M226.95 272.672V284.129L190.5 262.863V176.137L227.451 154.579L263.999 175.846L227.202 196.86L226.95 197.004V197.295V234.983V272.672Z" stroke="black"/>
<path d="M300.549 154.579L337.5 176.137V262.863L301.05 284.129V272.672V198.295V198.011L301 198M300.549 154.579L263.984 175.856L301 198M300.549 154.579L301 198" stroke="black"/>
<path d="M400.7 154.577L437.499 175.8L400.45 197.167L400 197.5M400.7 154.577L363.5 176.088V219.111L400.95 240.767M400.7 154.577L400 197.5M400 197.5L400.45 198.033L438 219.689M438 219.689V233.1V247.6V262.611L400.7 284.123M438 219.689L400.949 241.633M400.7 284.123L364.001 262.901L400.949 241.633M400.7 284.123L400.949 241.633" stroke="black"/>
<path d="M399.5 197.5L363.5 176" stroke="black"/>
<path d="M364 218.8L400 197.5" stroke="black"/>
</svg>
