<?xml version="1.0" encoding="iso-8859-1"?>
<!-- Generator: Adobe Illustrator 19.0.0, SVG Export Plug-In . SVG Version: 6.00 Build 0)  -->
<svg version="1.1" id="Layer_1" xmlns="http://www.w3.org/2000/svg" xmlns:xlink="http://www.w3.org/1999/xlink" x="0px" y="0px"
	 viewBox="0 0 511.999 511.999" style="enable-background:new 0 0 511.999 511.999;" xml:space="preserve">
<path style="fill:#FFEFCA;" d="M67.313,174.213v-51.29c0-4.581,3.714-8.295,8.295-8.295h77.449H257.36
	c4.581,0,8.295,3.714,8.295,8.295v91.004H71.151C71.151,213.927,64.895,174.213,67.313,174.213z"/>
<path style="fill:#6BE8C7;" d="M468.423,174.213V70.605c0-4.581-3.714-8.295-8.295-8.295H199.139c-4.581,0-8.295,3.714-8.295,8.295
	v100.458v59.901h277.835C468.677,230.964,468.423,169.993,468.423,174.213z"/>
<rect x="13.146" y="177.12" style="fill:#D3E8F1;" width="488.138" height="271.481"/>
<g>
	<path style="fill:#BED8E4;" d="M307.185,306.319l194.094,142.282H13.146c0-3.271,192.646-135.739,192.646-135.739l33.839-21.156
		L307.185,306.319z"/>
	<polyline style="fill:#BED8E4;" points="477.831,177.121 501.279,177.121 501.279,448.601 479.034,448.601 	"/>
</g>
<polygon style="fill:#B1C6D3;" points="255.863,358.84 256.276,359.099 324.593,318.473 289.528,293.215 260.034,291.644 "/>
<polygon style="fill:#BED8E4;" points="324.593,318.473 493.559,205.702 493.559,180.691 293.091,291.506 301.557,302.28 "/>
<path style="fill:#B1C6D3;" d="M223.572,298.263c20.166,18.668,34.504,32.284,34.504,33.26c0,4.618-1.801,27.576-1.801,27.576
	l-61.395-38.806"/>
<path style="fill:#BED8E4;" d="M194.881,320.293L12.976,205.317v-28.196l82.342,4.339c0,0,80.48,72.575,128.255,116.802"/>
<polygon style="fill:#EBF9FE;" points="13.146,177.121 257.213,335.757 501.124,177.235 "/>
<path d="M502.915,165.956h-24.196V62.309c0-5.019-4.066-9.085-9.085-9.085H192.055c-5.019,0-9.085,4.066-9.085,9.085v103.647H77.609
	v-42.242h76.658c5.019,0,9.085-4.066,9.085-9.085s-4.066-9.085-9.085-9.085H68.524c-5.019,0-9.085,4.066-9.085,9.085v51.329H9.085
	c-0.024,0-0.046,0.004-0.07,0.004c-0.173,0.001-0.345,0.015-0.518,0.025c-0.133,0.008-0.268,0.012-0.4,0.025
	c-0.115,0.013-0.228,0.035-0.342,0.052c-0.185,0.027-0.372,0.052-0.555,0.09c-0.001,0.001-0.004,0.001-0.006,0.002
	c-0.973,0.206-1.885,0.573-2.715,1.062c-0.584,0.343-1.133,0.755-1.635,1.232c-0.064,0.061-0.132,0.116-0.194,0.177
	c-0.098,0.098-0.188,0.206-0.281,0.309c-0.11,0.122-0.223,0.24-0.327,0.367c-0.062,0.076-0.117,0.159-0.177,0.236
	c-0.127,0.167-0.253,0.333-0.368,0.509c-0.01,0.016-0.022,0.028-0.03,0.042c-0.039,0.061-0.069,0.124-0.107,0.183
	c-0.113,0.182-0.223,0.366-0.322,0.555c-0.051,0.096-0.093,0.194-0.139,0.289c-0.081,0.171-0.162,0.339-0.233,0.516
	c-0.05,0.121-0.09,0.243-0.134,0.366c-0.055,0.154-0.11,0.306-0.156,0.464c-0.044,0.147-0.078,0.294-0.114,0.442
	c-0.033,0.137-0.068,0.274-0.094,0.413c-0.034,0.173-0.056,0.346-0.079,0.521c-0.016,0.12-0.035,0.237-0.046,0.359
	c-0.018,0.197-0.024,0.394-0.03,0.59C0.01,174.872,0,174.955,0,175.04v274.649c0,5.019,4.066,9.085,9.085,9.085h493.807
	c0.005,0,0.011,0.001,0.016,0.001c0.039,0,0.079-0.006,0.117-0.007c0.297-0.004,0.59-0.019,0.878-0.05
	c0.09-0.011,0.177-0.028,0.265-0.041c0.243-0.033,0.486-0.073,0.722-0.126c0.098-0.022,0.194-0.05,0.291-0.075
	c0.224-0.058,0.446-0.122,0.663-0.195c0.104-0.035,0.207-0.075,0.31-0.114c0.206-0.079,0.407-0.165,0.606-0.258
	c0.105-0.05,0.212-0.098,0.316-0.151c0.197-0.103,0.389-0.214,0.577-0.329c0.094-0.058,0.19-0.11,0.282-0.172
	c0.265-0.177,0.522-0.365,0.768-0.568c0.067-0.056,0.127-0.119,0.193-0.176c0.187-0.164,0.368-0.332,0.54-0.51
	c0.08-0.082,0.155-0.17,0.231-0.256c0.157-0.177,0.309-0.357,0.453-0.545c0.038-0.05,0.081-0.092,0.119-0.143
	c0.031-0.044,0.057-0.088,0.087-0.132c0.101-0.143,0.196-0.291,0.29-0.44c0.068-0.108,0.136-0.216,0.199-0.326
	c0.082-0.145,0.158-0.294,0.231-0.445c0.061-0.121,0.121-0.241,0.176-0.365c0.063-0.141,0.117-0.286,0.173-0.43
	c0.052-0.137,0.105-0.273,0.15-0.411c0.044-0.134,0.081-0.273,0.119-0.409c0.042-0.154,0.085-0.306,0.119-0.46
	c0.028-0.127,0.05-0.258,0.073-0.389c0.029-0.167,0.057-0.334,0.076-0.503c0.015-0.125,0.023-0.25,0.033-0.376
	c0.013-0.177,0.024-0.352,0.027-0.531c0.001-0.053,0.008-0.104,0.008-0.157V175.041C512,170.023,507.932,165.956,502.915,165.956z
	 M18.17,191.781l177.429,115.324c-11.68,8.04-53.193,36.64-94.257,65.227c-28.317,19.711-50.886,35.561-67.079,47.109
	c-6.321,4.507-11.692,8.375-16.092,11.589V191.781H18.17z M477.674,184.126L256.059,324.733L39.731,184.126H477.674z
	 M209.126,319.852c0.968-0.666,1.76-1.489,2.379-2.408l39.544,25.703c1.504,0.979,3.227,1.468,4.951,1.468
	c1.691,0,3.381-0.471,4.867-1.414l43.641-27.688l170.647,125.094H35.883C72.869,414,152.452,358.823,209.126,319.852z
	 M320.982,305.06l172.847-109.666v236.372L320.982,305.06z M201.14,71.393h259.409v94.562H201.14V71.393z"/>
<g>
</g>
<g>
</g>
<g>
</g>
<g>
</g>
<g>
</g>
<g>
</g>
<g>
</g>
<g>
</g>
<g>
</g>
<g>
</g>
<g>
</g>
<g>
</g>
<g>
</g>
<g>
</g>
<g>
</g>
</svg>
